<svg width="248" height="55" viewBox="0 0 248 55" fill="none" xmlns="http://www.w3.org/2000/svg">
<path d="M247.499 0.985858C247.52 0.710529 247.314 0.470162 247.038 0.448983L242.552 0.103848C242.276 0.0826691 242.036 0.288698 242.015 0.564027C241.994 0.839356 242.2 1.07972 242.475 1.1009L246.463 1.40769L246.156 5.39591C246.135 5.67124 246.341 5.9116 246.617 5.93278C246.892 5.95396 247.132 5.74793 247.153 5.4726L247.499 0.985858ZM0.84833 42.424C24.9894 50.109 66.2538 57.2679 111.651 53.7961C157.05 50.324 206.621 36.2164 247.325 1.32714L246.675 0.567881C206.179 35.2786 156.833 49.3377 111.574 52.799C66.3129 56.2605 25.1772 49.1193 1.15167 41.4711L0.84833 42.424Z" fill="#134173"/>
</svg>
