<svg width="131" height="148" viewBox="0 0 131 148" fill="none" xmlns="http://www.w3.org/2000/svg">
<path d="M103.739 66.6125L88.3805 81.6366C84.3794 69.6639 79.8096 66.3796 77.7948 65.4883C75.767 67.0297 65.7699 69.2205 60.6115 69.8836L49.1067 92.5566C48.5018 93.7553 48.159 95.0693 48.1011 96.4109C48.0432 97.7534 48.2715 99.0919 48.7709 100.338C52.3886 109.099 56.8017 117.51 61.9547 125.466C68.2611 124.59 73.59 122.02 76.7436 116.545C71.2394 108.88 66.6259 101.609 63.4147 94.9955L68.6115 86.4553L68.3932 78.0742C71.5752 84.6449 77.124 91.3017 81.4302 95.8861C82.7849 97.3223 84.6299 98.196 86.5993 98.3335C88.568 98.4718 90.5175 97.864 92.059 96.6307C99.5487 90.6593 106.717 84.4252 113.842 78.1887C113.26 75.5684 112.029 73.1362 110.265 71.1139C108.5 69.0917 106.256 67.5441 103.739 66.6125Z" fill="#134173"/>
<path fill-rule="evenodd" clip-rule="evenodd" d="M40.4068 26.0258L34.5968 23.7282C33.1171 24.7097 31.4688 25.4094 29.735 25.7922C21.2524 27.6901 12.7737 21.9401 12.6969 13.718C12.6285 6.76844 18.7389 1.07754 26.3601 1.0007C33.9667 0.928464 40.1954 6.49104 40.2754 13.4591C40.2956 15.892 39.5554 18.2706 38.1584 20.2626L40.4068 26.0258ZM28.7846 10.9193C28.9862 11.0029 29.1695 11.1254 29.3237 11.2798C29.4782 11.4341 29.6007 11.6173 29.6843 11.819C29.7679 12.0207 29.8109 12.2368 29.8109 12.4551C29.8109 12.6734 29.7679 12.8896 29.6843 13.0912C29.6007 13.2929 29.4782 13.4761 29.3237 13.6304L26.5497 16.3898L23.7757 13.6304C23.4641 13.3187 23.289 12.896 23.289 12.4551C23.289 12.0143 23.4641 11.5915 23.7757 11.2798C24.0875 10.9682 24.5103 10.793 24.951 10.793C25.3919 10.793 25.8147 10.9682 26.1263 11.2798L26.5497 11.7032L26.9731 11.2798C27.1274 11.1254 27.3107 11.0029 27.5123 10.9193C27.714 10.8357 27.9301 10.7926 28.1484 10.7926C28.3667 10.7926 28.5829 10.8357 28.7846 10.9193Z" fill="#134173"/>
<path d="M8.16845 65.1973L8.81085 66.4967L10.2416 66.7011L9.20505 67.7085L9.45325 69.1385L8.16845 68.4669L6.89826 69.1385L7.13186 67.7085L6.10986 66.7011L7.54066 66.4967L8.16845 65.1973Z" fill="#134173"/>
<path d="M13.746 65.1973L14.3884 66.4967L15.8192 66.7011L14.7826 67.7085L15.0308 69.1385L13.746 68.4669L12.4758 69.1385L12.7094 67.7085L11.6729 66.7011L13.1036 66.4967L13.746 65.1973Z" fill="#134173"/>
<path d="M19.3227 65.1973L19.9651 66.4967L21.3959 66.7011L20.3593 67.7085L20.6075 69.1385L19.3227 68.4669L18.0379 69.1385L18.2861 67.7085L17.2495 66.7011L18.6803 66.4967L19.3227 65.1973Z" fill="#134173"/>
<path d="M24.8998 65.1973L25.5422 66.4967L26.973 66.7011L25.9364 67.7085L26.17 69.1385L24.8998 68.4669L23.6151 69.1385L23.8633 67.7085L22.8267 66.7011L24.2575 66.4967L24.8998 65.1973Z" fill="#134173"/>
<path d="M30.477 65.1973L31.1048 66.4967L32.5356 66.7011L31.499 67.7085L31.7472 69.1385L30.477 68.4669L29.1922 69.1385L29.4404 67.7085L28.4038 66.7011L29.8346 66.4967L30.477 65.1973Z" fill="#134173"/>
<path d="M118.602 119.581L113.229 118.808L110.835 113.946L108.441 118.808L103.068 119.581L106.951 123.377L106.032 128.721L110.835 126.195L115.638 128.721L114.719 123.377L118.602 119.581Z" fill="#134173"/>
<path d="M62.4941 35.9685C62.5632 36.3047 62.5975 36.6472 62.5963 36.9905L63.3986 35.4429C63.1126 35.6436 62.8101 35.8195 62.4941 35.9685Z" fill="#3897A0"/>
<path d="M60.4074 68.8614C60.0132 70.8178 58.9328 70.0732 58.1152 68C58.8607 68.3343 59.6263 68.622 60.4074 68.8614Z" fill="#3897A0"/>
<path d="M59.2683 61.0084C58.9078 61.0984 58.5328 61.1136 58.1662 61.0532C57.7996 60.9928 57.4492 60.8581 57.1367 60.6572C57.4725 58.7861 58.4361 59.1542 59.2683 61.0084Z" fill="#3897A0"/>
<path d="M49.9238 40.6116L45.8213 47.3276C45.7868 47.3798 45.7745 47.4437 45.787 47.505C45.7995 47.5663 45.8358 47.6202 45.8879 47.6549C45.94 47.6896 46.0037 47.7022 46.0651 47.6899C46.1265 47.6776 46.1806 47.6416 46.2155 47.5896L50.8437 41.2248C50.8878 41.1645 50.9192 41.0959 50.9361 41.0232C50.953 40.9504 50.955 40.875 50.942 40.8015C50.9289 40.7279 50.9012 40.6578 50.8603 40.5952C50.8194 40.5327 50.7662 40.4791 50.7041 40.4377C50.642 40.3962 50.5721 40.3678 50.4986 40.3541C50.4252 40.3404 50.3498 40.3417 50.2768 40.358C50.2039 40.3742 50.1351 40.4051 50.0744 40.4487C50.0137 40.4923 49.9625 40.5477 49.9238 40.6116Z" fill="#014451"/>
<path d="M60.5386 34.4936C60.5448 34.6851 60.6252 34.8666 60.7627 34.9998C60.9003 35.133 61.0844 35.2075 61.2759 35.2075C61.4674 35.2075 61.6514 35.133 61.789 34.9998C61.9266 34.8666 62.007 34.6851 62.0132 34.4936C62.007 34.3022 61.9266 34.1207 61.789 33.9875C61.6514 33.8542 61.4674 33.7798 61.2759 33.7798C61.0844 33.7798 60.9003 33.8542 60.7627 33.9875C60.6252 34.1207 60.5448 34.3022 60.5386 34.4936Z" fill="#3897A0"/>
<path d="M70.9324 82.6148L68.5964 86.4399L68.3774 78.0596C69.1505 79.621 70.0026 81.1417 70.9324 82.6148Z" fill="#3897A0"/>
<path d="M106.367 65.1677L104.731 67.0372C107.8 68.3846 110.354 70.6824 112.017 73.5918C113.132 72.7917 114.377 72.1892 115.696 71.8106C120.093 70.0844 124.272 67.8501 128.15 65.1531C123.887 63.7376 110.761 64.7881 106.367 65.1677Z" fill="#3897A0"/>
<path d="M72.8747 121.129C70.2506 123.171 67.1685 124.545 63.895 125.129L64.4214 125.961C65.3704 127.436 65.4872 129.057 65.6324 130.809C66.1726 135.503 67.2553 140.119 68.8598 144.563C71.3418 140.798 73.6923 127.846 74.4515 123.496L72.8747 121.129Z" fill="#3897A0"/>
<path d="M73.3248 22.6534C73.3248 19.5582 71.1648 15.6162 68.055 15.6162C64.959 15.6162 62.2734 18.6238 61.8931 21.646C61.7953 22.4333 61.913 23.2324 62.2335 23.9581C61.3104 24.0573 60.4438 24.4511 59.7621 25.0812C59.0803 25.7114 58.6196 26.5443 58.4482 27.4568L58.8271 27.4422C58.7197 28.4749 58.6699 29.5129 58.678 30.5512C59.3043 24.9801 62.4986 27.0802 63.4845 29.2525C63.715 28.1137 64.302 27.3108 64.989 27.3108H67.0468C67.2697 27.319 67.4841 27.3954 67.6616 27.5298C67.6408 27.4337 67.6185 27.3423 67.5955 27.2516C70.6668 27.2208 73.3248 25.7171 73.3248 22.6534Z" fill="#3897A0"/>
<path d="M73.3248 22.6534C73.3248 19.5582 71.1648 15.6162 68.055 15.6162C64.959 15.6162 62.2734 18.6238 61.8931 21.646C61.7953 22.4333 61.913 23.2324 62.2335 23.9581C61.3104 24.0573 60.4438 24.4511 59.7621 25.0812C59.0803 25.7114 58.6196 26.5443 58.4482 27.4568L58.8271 27.4422C58.7197 28.4749 58.6699 29.5129 58.678 30.5512C59.3043 24.9801 62.4986 27.0802 63.4845 29.2525C63.715 28.1137 64.302 27.3108 64.989 27.3108H67.0468C67.2697 27.319 67.4841 27.3954 67.6616 27.5298C67.6408 27.4337 67.6185 27.3423 67.5955 27.2516C70.6668 27.2208 73.3248 25.7171 73.3248 22.6534Z" stroke="#014451" stroke-width="0.73" stroke-linejoin="round"/>
<path d="M58.9906 120.676C49.1739 119.277 40.081 114.715 33.0903 107.682" stroke="#014451" stroke-width="0.73" stroke-linecap="round" stroke-linejoin="round"/>
<path d="M110.834 80.8037C109.68 90.5042 105.45 99.5808 98.7638 106.703C92.077 113.826 83.2863 118.62 73.6772 120.384" stroke="#014451" stroke-width="0.73" stroke-linecap="round" stroke-linejoin="round"/>
<path d="M106.119 54.5688C107.494 57.2409 108.6 60.0436 109.418 62.9354" stroke="#014451" stroke-width="0.73" stroke-linecap="round" stroke-linejoin="round"/>
<path d="M21.0017 88.1916V73.1682H32.8568C33.4071 73.1682 33.9347 72.9496 34.3239 72.5606C34.7129 72.1714 34.9315 71.6438 34.9315 71.0935V63.2264C34.9315 62.9543 34.8778 62.685 34.7735 62.4337C34.669 62.1826 34.5161 61.9543 34.3233 61.7624C34.1306 61.5704 33.9018 61.4184 33.6501 61.315C33.3985 61.2117 33.1289 61.1591 32.8568 61.1602H5.78854C5.51559 61.1604 5.24534 61.2144 4.9933 61.3193C4.74126 61.4241 4.51235 61.5777 4.31978 61.7711C4.12714 61.9645 3.97461 62.1941 3.87095 62.4466C3.76721 62.6992 3.71435 62.9696 3.71535 63.2426V71.095C3.71535 71.6453 3.93396 72.173 4.32301 72.5621C4.71214 72.9512 5.23981 73.1698 5.79007 73.1698H17.6437V89.4456" stroke="#014451" stroke-width="0.73" stroke-linecap="round" stroke-linejoin="round"/>
<path d="M21.002 97.3598V93.8267" stroke="#014451" stroke-width="0.73" stroke-linecap="round" stroke-linejoin="round"/>
<path d="M17.6445 99.1492V107.712H21.0025V98.0757" stroke="#014451" stroke-width="0.73" stroke-linecap="round" stroke-linejoin="round"/>
<path d="M21.0019 80.3781H32.6234C33.9554 80.3781 35.2329 80.9075 36.1748 81.8488C37.1166 82.7909 37.6458 84.0688 37.6458 85.4005V102.672C37.6462 104.005 37.1175 105.283 36.1757 106.227C35.2339 107.17 33.9563 107.701 32.6234 107.702H6.02238C5.36315 107.703 4.71023 107.574 4.10102 107.322C3.49175 107.071 2.9381 106.701 2.4716 106.235C2.00517 105.77 1.6351 105.216 1.38259 104.608C1.13009 103.998 1.00008 103.346 1 102.687V85.3974C1 84.0657 1.52913 82.7878 2.47098 81.8458C3.41283 80.9044 4.69032 80.375 6.02238 80.375H17.6438" stroke="#014451" stroke-width="0.73" stroke-linecap="round" stroke-linejoin="round"/>
<path d="M19.4104 96.5151C21.147 96.3784 21.1916 94.2644 19.5126 94.2814C18.257 94.2944 17.381 94.3405 16.3882 94.3836C14.7238 94.4604 14.7392 96.6757 16.1108 96.7341C17.2137 96.718 18.315 96.6442 19.4104 96.5151Z" stroke="#014451" stroke-width="0.73" stroke-linecap="round" stroke-linejoin="round"/>
<path d="M18.1159 89.4615C17.515 89.4469 17.067 89.4468 16.5022 89.4468C14.9108 89.4322 14.8524 91.6514 16.1664 91.7828C16.8278 91.8266 17.4914 91.8266 18.1527 91.7828" stroke="#014451" stroke-width="0.73" stroke-linecap="round" stroke-linejoin="round"/>
<path d="M19.8045 98.8974C21.4827 98.7145 21.4835 96.6782 19.8629 96.7366C18.6511 96.7804 17.8043 96.8549 16.8407 96.9264C15.2347 97.0455 15.2931 99.1848 16.6217 99.204C17.6872 99.1579 18.7497 99.0557 19.8045 98.8974Z" stroke="#014451" stroke-width="0.73" stroke-linecap="round" stroke-linejoin="round"/>
<path d="M18.1581 91.8276C17.5265 91.843 16.9786 91.9006 16.3593 91.9145C14.6688 91.9583 14.6373 94.2097 16.0381 94.2966C16.8833 94.348 17.7755 94.2382 19.3961 94.1506C19.638 94.1575 19.8756 94.0853 20.073 93.9454C20.2706 93.8055 20.4174 93.6058 20.4914 93.3752C20.5655 93.1447 20.5628 92.8965 20.4838 92.6675C20.4047 92.4393 20.2536 92.2418 20.0531 92.1066" stroke="#014451" stroke-width="0.73" stroke-linecap="round" stroke-linejoin="round"/>
<path d="M37.6456 90.8778C36.8134 90.98 28.6812 91.1852 24.3596 91.126C23.3814 91.1122 23.4659 89.5515 23.207 89.155C22.5154 88.0954 22.3018 88.1015 20.2286 88.2329C17.7904 88.3866 18.0148 88.4957 18.1993 92.6713C18.2446 93.6933 20.0243 93.8101 20.3601 90.5689C20.0827 93.0655 21.2215 94.7737 22.9004 95.3139" stroke="#014451" stroke-width="0.73" stroke-linecap="round" stroke-linejoin="round"/>
<path d="M37.6459 99.6087C35.5435 99.5503 26.4915 99.4918 21.002 99.3896" stroke="#014451" stroke-width="0.73" stroke-linecap="round" stroke-linejoin="round"/>
<path d="M8.16845 65.1973L8.81085 66.4967L10.2416 66.7011L9.20505 67.7085L9.45325 69.1385L8.16845 68.4669L6.89826 69.1385L7.13186 67.7085L6.10986 66.7011L7.54066 66.4967L8.16845 65.1973Z" stroke="#014451" stroke-width="0.73" stroke-linecap="round" stroke-linejoin="round"/>
<path d="M13.746 65.1973L14.3884 66.4967L15.8192 66.7011L14.7826 67.7085L15.0308 69.1385L13.746 68.4669L12.4758 69.1385L12.7094 67.7085L11.6729 66.7011L13.1036 66.4967L13.746 65.1973Z" stroke="#014451" stroke-width="0.73" stroke-linecap="round" stroke-linejoin="round"/>
<path d="M19.3232 65.1973L19.9656 66.4967L21.3964 66.7011L20.3598 67.7085L20.608 69.1385L19.3232 68.4669L18.0384 69.1385L18.2866 67.7085L17.25 66.7011L18.6808 66.4967L19.3232 65.1973Z" stroke="#014451" stroke-width="0.73" stroke-linecap="round" stroke-linejoin="round"/>
<path d="M24.8998 65.1973L25.5422 66.4967L26.973 66.7011L25.9364 67.7085L26.17 69.1385L24.8998 68.4669L23.6151 69.1385L23.8633 67.7085L22.8267 66.7011L24.2575 66.4967L24.8998 65.1973Z" stroke="#014451" stroke-width="0.73" stroke-linecap="round" stroke-linejoin="round"/>
<path d="M30.477 65.1973L31.1048 66.4967L32.5356 66.7011L31.499 67.7085L31.7472 69.1385L30.477 68.4669L29.1922 69.1385L29.4404 67.7085L28.4038 66.7011L29.8346 66.4967L30.477 65.1973Z" stroke="#014451" stroke-width="0.73" stroke-linecap="round" stroke-linejoin="round"/>
<path d="M110.164 47.4001C108.426 47.3394 108.28 45.2393 109.959 45.1809C111.215 45.1371 112.091 45.1518 113.098 45.1518C114.763 45.1518 114.849 47.3802 113.478 47.4877C112.646 47.5546 111.77 47.4562 110.164 47.4001Z" stroke="#014451" stroke-width="0.73" stroke-linecap="round" stroke-linejoin="round"/>
<path d="M110.309 49.6635C108.631 49.4798 108.63 47.4443 110.251 47.5027C111.463 47.5465 111.609 47.5334 112.556 47.6049C114.162 47.7248 114.104 49.8625 112.775 49.8825C111.949 49.8692 111.125 49.796 110.309 49.6635Z" stroke="#014451" stroke-width="0.73" stroke-linecap="round" stroke-linejoin="round"/>
<path d="M104.513 46.3197C106.937 46.627 108.645 43.4289 107.623 41.1659C107.623 41.1659 107.506 39.2533 107.097 36.3333C106.689 33.4133 105.083 33.2089 105.126 33.9097C105.17 34.6105 104.63 38.4787 104.046 39.6183C103.418 40.8439 101.506 40.8685 100.484 40.8739C97.5344 40.8885 88.0444 40.3045 88.0444 40.3045" stroke="#014451" stroke-width="0.73" stroke-linecap="round" stroke-linejoin="round"/>
<path d="M88.1313 50.5394C91.0659 50.4518 110.425 50.116 112.572 49.897" stroke="#014451" stroke-width="0.73" stroke-linecap="round" stroke-linejoin="round"/>
<path d="M110.353 42.8161C108.674 42.9598 108.278 40.965 109.886 40.7137C111.084 40.5262 111.93 40.4348 112.893 40.3195C114.499 40.1274 114.847 42.2298 113.536 42.5095C112.481 42.6662 111.419 42.7685 110.353 42.8161Z" stroke="#014451" stroke-width="0.73" stroke-linecap="round" stroke-linejoin="round"/>
<path d="M110.075 45.1515C108.385 45.1669 108.148 43.1375 109.783 43.0199C110.995 42.9323 112.78 42.8763 113.74 42.8447C115.346 42.791 115.536 44.9256 114.207 45.0785C113.405 45.1707 111.623 45.1369 110.075 45.1515Z" stroke="#014451" stroke-width="0.73" stroke-linecap="round" stroke-linejoin="round"/>
<path d="M107.374 38.5527C107.563 40.7865 107.666 40.6275 112.892 40.3201" stroke="#014451" stroke-width="0.73" stroke-linecap="round" stroke-linejoin="round"/>
<path d="M119.667 31.0918C120.999 31.0918 122.277 31.6209 123.219 32.5629C124.16 33.5047 124.69 34.7821 124.69 36.1142V49.5315C124.691 50.8643 124.161 52.1427 123.22 53.0857C122.278 54.0288 121 54.5594 119.667 54.5608H93.0664C92.4071 54.5618 91.7539 54.4329 91.1438 54.1814C90.5345 53.9299 89.9804 53.5609 89.5132 53.0952C89.046 52.6295 88.6757 52.0764 88.4221 51.4675C88.1685 50.8585 88.0379 50.2056 88.0371 49.5461V36.1172C88.0363 35.4581 88.1654 34.8053 88.4167 34.196C88.6688 33.5867 89.0376 33.033 89.5033 32.5666C89.9689 32.1001 90.5222 31.73 91.1308 31.4775C91.7401 31.225 92.3925 31.0949 93.0518 31.0949L119.667 31.0918Z" stroke="#014451" stroke-width="0.73" stroke-linecap="round" stroke-linejoin="round"/>
<path d="M62.4941 35.9685C62.8123 35.8236 63.1153 35.6476 63.3986 35.4429L62.5963 36.9905" stroke="#014451" stroke-width="0.73" stroke-linecap="round" stroke-linejoin="round"/>
<path d="M65.1954 33.2969C65.2621 34.5459 65.5539 35.7725 66.0568 36.9177C66.5378 38.0446 67.3469 39.001 68.3781 39.6624C69.5884 40.3947 73.8831 40.3333 75.5905 43.4584C77.1389 46.29 78.8747 55.518 79.6631 60.9199C79.823 62.0174 79.5993 63.1362 79.0299 64.088C78.4606 65.0398 77.5807 65.7663 76.5387 66.1452C71.0907 68.0633 65.4416 69.3559 59.7012 69.998" stroke="#014451" stroke-width="0.73" stroke-linecap="round" stroke-linejoin="round"/>
<path d="M63.4894 29.2523C62.4828 27.0331 59.3338 24.6234 58.8182 30.6539C58.6587 31.9352 58.7179 33.2345 58.9934 34.496C59.6351 36.8612 61.417 36.4816 62.4974 35.9706C62.5665 36.3068 62.6007 36.6493 62.5996 36.9926C62.6502 37.6397 62.482 38.2851 62.1219 38.8251C61.7618 39.3652 61.2308 39.7687 60.614 39.971C59.6489 40.3037 55.4656 40.6833 53.4163 45.7087C52.7424 47.3578 52.3359 49.3441 51.5767 50.9063" stroke="#014451" stroke-width="0.73" stroke-linecap="round" stroke-linejoin="round"/>
<path d="M68.0858 51.5322L69.283 57.562L57.8521 59.4308" stroke="#014451" stroke-width="0.73" stroke-linecap="round" stroke-linejoin="round"/>
<path d="M59.2683 61.0082C58.619 61.1444 57.9431 61.0673 57.3411 60.7885C56.3191 60.1315 55.5738 58.4655 54.7715 56.2625C53.6189 53.1212 53.4575 54.4521 53.3261 55.6478C53.207 56.2425 53.5843 59.7311 52.1435 58.9181C50.2938 57.2238 48.2842 55.7127 46.143 54.406C43.4074 52.9852 43.2384 53.7621 45.3254 55.6762C45.9667 56.2609 46.576 56.8798 47.1504 57.5304C47.8495 58.3158 48.4981 59.1447 49.0922 60.0124C49.9758 61.4324 51.6033 64.1142 53.5889 65.4727C55.6923 66.9144 57.9874 68.0543 60.4071 68.8592" stroke="#014451" stroke-width="0.73" stroke-linecap="round" stroke-linejoin="round"/>
<path d="M51.37 63.3582C50.494 61.869 47.8492 60.3229 46.5843 59.1703C45.7214 58.3834 44.0847 57.2492 43.1388 56.4255C42.9044 56.2219 42.9928 55.6663 44.7885 56.4547C45.1874 56.6314 46.5597 57.2431 47.1768 57.5612" stroke="#014451" stroke-width="0.73" stroke-linecap="round" stroke-linejoin="round"/>
<path d="M46.4802 59.0761C46.1644 58.99 45.8932 58.9224 45.7495 58.8901C43.8515 58.4083 43.8507 58.9785 44.1143 59.1383C45.1778 59.7838 46.9935 60.6514 47.9686 61.2845C49.4002 62.1107 50.7582 63.0583 52.0274 64.1169" stroke="#014451" stroke-width="0.73" stroke-linecap="round" stroke-linejoin="round"/>
<path d="M57.1382 60.6422C57.4102 59.1499 58.0872 59.0984 58.7734 60.1043C60.1258 62.0799 61.0786 67.4335 60.2334 69.4621C59.7523 70.6201 58.8318 69.824 58.1141 68.0021" stroke="#014451" stroke-width="0.73" stroke-linecap="round" stroke-linejoin="round"/>
<path d="M56.83 67.3873L57.7499 70.2773L44.3471 66.6135L36.9595 45.2246L50.917 48.8308L53.2968 56.306" stroke="#014451" stroke-width="0.73" stroke-linecap="round" stroke-linejoin="round"/>
<path d="M43.0913 46.8162L42.3467 44.1152L44.4637 44.6262L44.9455 47.298" stroke="#014451" stroke-width="0.73" stroke-linecap="round" stroke-linejoin="round"/>
<path d="M64.116 32.8296C63.4995 33.4188 62.7759 33.8846 61.9844 34.202" stroke="#014451" stroke-width="0.73" stroke-linecap="round" stroke-linejoin="round"/>
<path d="M56.0999 49.415C56.0999 49.415 55.8103 53.4654 57.4431 56.4076L59.0199 59.24" stroke="#014451" stroke-width="0.73" stroke-linecap="round" stroke-linejoin="round"/>
<path d="M60.5878 69.9005L49.0922 92.542C48.4866 93.7407 48.1433 95.0547 48.0855 96.3963C48.0275 97.7388 48.2563 99.0773 48.7564 100.324C52.3692 109.087 56.7824 117.499 61.9402 125.451C68.2465 124.575 73.5755 122.005 76.7291 116.53C71.2249 108.865 66.6113 101.595 63.4002 94.9809L70.9306 82.6148C74.0104 87.3544 77.5251 91.7974 81.4279 95.8861C82.7827 97.3215 84.6276 98.1952 86.5971 98.3327C88.5658 98.4711 90.5152 97.8632 92.0567 96.6307C99.5434 90.6555 106.715 84.4252 113.84 78.1887C113.26 75.5676 112.032 73.134 110.267 71.1113C108.502 69.0886 106.258 67.5417 103.739 66.6125L88.3621 81.625C84.3664 69.6623 79.795 66.3789 77.7803 65.4883" stroke="#014451" stroke-width="0.73" stroke-linecap="round" stroke-linejoin="round"/>
<path d="M68.5975 86.4394L68.3931 78.0591C69.1553 79.6236 70.0029 81.1443 70.9335 82.6143" stroke="#014451" stroke-width="0.73" stroke-linecap="round" stroke-linejoin="round"/>
<path d="M106.367 65.1677C110.747 64.7896 123.786 63.7453 128.113 65.1515" stroke="#014451" stroke-width="0.73" stroke-linecap="round" stroke-linejoin="round"/>
<path d="M104.717 67.0369L108.148 63.1387C115.127 61.9561 126.413 61.7079 130.279 63.6205C126.043 66.7165 120.597 70.0691 115.693 71.8103C114.374 72.189 113.13 72.7915 112.014 73.5915" stroke="#014451" stroke-width="0.73" stroke-linecap="round" stroke-linejoin="round"/>
<path d="M72.8449 121.114L75.9547 125.742C75.3123 132.794 72.6551 143.773 69.8073 147C67.6819 141.819 66.2772 136.371 65.6317 130.809C65.488 129.057 65.3697 127.436 64.4207 125.961L63.8828 125.116" stroke="#014451" stroke-width="0.73" stroke-linecap="round" stroke-linejoin="round"/>
<path d="M44.7847 46.3785C44.7847 46.3785 47.1207 45.7069 49.0332 48.3495" stroke="#014451" stroke-width="0.73" stroke-linecap="round" stroke-linejoin="round"/>
<path d="M58.334 40.6553C58.1686 40.7609 58.0414 40.9166 57.9711 41.0998C57.9008 41.283 57.891 41.4839 57.9433 41.673C57.9955 41.8622 58.1071 42.0296 58.2615 42.1507C58.4159 42.2718 58.6051 42.3402 58.8012 42.3458C58.9641 42.345 59.1237 42.2997 59.2626 42.2148C59.4016 42.1299 59.5146 42.0085 59.5896 41.864C59.0623 41.5921 58.6259 41.1719 58.334 40.6553Z" stroke="#014451" stroke-width="0.73" stroke-linecap="round" stroke-linejoin="round"/>
<path d="M59.5448 42.2319C59.5441 42.4409 59.6172 42.6435 59.7512 42.804C59.8851 42.9645 60.0714 43.0726 60.2771 43.1094C60.4829 43.1461 60.6951 43.1091 60.8763 43.0048C61.0574 42.9005 61.196 42.7357 61.2676 42.5393C60.7049 42.3483 60.154 42.124 59.6178 41.8677C59.5659 41.9819 59.5409 42.1065 59.5448 42.2319Z" stroke="#014451" stroke-width="0.73" stroke-linecap="round" stroke-linejoin="round"/>
<path d="M61.2246 42.8029C61.224 43.023 61.3045 43.2355 61.4506 43.4C61.5968 43.5645 61.7984 43.6694 62.017 43.6947C62.2356 43.72 62.4559 43.6639 62.6357 43.5371C62.8156 43.4102 62.9424 43.2217 62.992 43.0073C62.4085 42.8943 61.8329 42.7431 61.2692 42.5547C61.239 42.6339 61.2239 42.7181 61.2246 42.8029Z" stroke="#014451" stroke-width="0.73" stroke-linecap="round" stroke-linejoin="round"/>
<path d="M62.9332 43.1377C62.9249 43.3712 63.0093 43.5985 63.1681 43.77C63.3269 43.9415 63.5471 44.0431 63.7805 44.0527C64.014 44.0624 64.2419 43.9793 64.4142 43.8214C64.5866 43.6637 64.6895 43.4441 64.7005 43.2107C64.1121 43.1818 63.5267 43.1086 62.9493 42.9917C62.9516 43.034 62.9332 43.0939 62.9332 43.1377Z" stroke="#014451" stroke-width="0.73" stroke-linecap="round" stroke-linejoin="round"/>
<path d="M64.7134 43.2103C64.7133 43.4401 64.8036 43.6607 64.9647 43.8246C65.1259 43.9884 65.3449 44.0824 65.5748 44.0863C65.6946 44.0875 65.8129 44.0636 65.9236 44.0161C66.0334 43.9686 66.1318 43.8985 66.2133 43.8105C66.2939 43.7224 66.3562 43.6183 66.3946 43.5049C66.433 43.3914 66.4469 43.2711 66.4361 43.1519C65.8644 43.215 65.2882 43.2345 64.7134 43.2103Z" stroke="#014451" stroke-width="0.73" stroke-linecap="round" stroke-linejoin="round"/>
<path d="M67.356 43.879C67.4943 43.8786 67.6303 43.8461 67.754 43.7844C67.8777 43.7227 67.9853 43.6331 68.0691 43.5229C68.1521 43.4128 68.2089 43.2847 68.235 43.149C68.2604 43.0133 68.2543 42.8733 68.2174 42.7402C67.6533 42.9316 67.0709 43.0637 66.48 43.1344C66.5146 43.3418 66.6221 43.5302 66.782 43.6665C66.9426 43.8027 67.1454 43.878 67.356 43.879Z" stroke="#014451" stroke-width="0.73" stroke-linecap="round" stroke-linejoin="round"/>
<path d="M69.0343 43.312C69.1903 43.3121 69.3433 43.2715 69.4777 43.194C69.613 43.1165 69.7252 43.0049 69.8035 42.8704C69.8819 42.7359 69.9234 42.5831 69.9242 42.4275C69.9249 42.2719 69.885 42.1187 69.8081 41.9834C69.301 42.2966 68.7631 42.5559 68.2021 42.7572C68.2721 42.9205 68.3881 43.06 68.5356 43.1585C68.6832 43.257 68.8568 43.3103 69.0343 43.312Z" stroke="#014451" stroke-width="0.73" stroke-linecap="round" stroke-linejoin="round"/>
<path d="M70.889 40.5088C71.0949 40.5719 71.2709 40.7061 71.3861 40.8875C71.5014 41.0689 71.5483 41.2854 71.5183 41.4983C71.4891 41.7112 71.3838 41.9065 71.2232 42.049C71.0619 42.1915 70.8559 42.2721 70.6408 42.2761C70.4894 42.2887 70.3373 42.2692 70.1936 42.2188C70.0499 42.1686 69.9192 42.0886 69.8086 41.9841C70.2958 41.5991 70.6692 41.0893 70.889 40.5088Z" stroke="#014451" stroke-width="0.73" stroke-linecap="round" stroke-linejoin="round"/>
<path d="M97.9717 17.8354V25.5588" stroke="#014451" stroke-width="0.73" stroke-linecap="round" stroke-linejoin="round"/>
<path d="M101.841 21.6895H94.1172" stroke="#014451" stroke-width="0.73" stroke-linecap="round" stroke-linejoin="round"/>
<path d="M66.0422 32.6106C67.0865 34.212 68.6702 32.8734 68.6702 30.3054C68.6702 27.7504 67.0765 26.4003 66.0422 28.0001C65.6626 28.7091 65.4639 29.5011 65.4639 30.3054C65.4639 31.1097 65.6626 31.9015 66.0422 32.6106Z" stroke="#014451" stroke-width="0.73" stroke-linecap="round" stroke-linejoin="round"/>
<path d="M67.0642 27.2964H65.0064C64.1127 27.2964 63.3981 28.6473 63.4004 30.304C63.4027 31.9607 64.1158 33.3008 65.0064 33.3008H66.9343" stroke="#014451" stroke-width="0.73" stroke-linecap="round" stroke-linejoin="round"/>
<path d="M58.4364 27.4716C57.7356 27.5008 57.0786 28.8878 57.1655 30.5376C57.2538 32.1144 57.9838 33.3808 58.8153 33.443C58.5832 31.4539 58.5928 29.4439 58.8437 27.457L58.4364 27.4716Z" stroke="#014451" stroke-width="0.73" stroke-linecap="round" stroke-linejoin="round"/>
<path d="M58.6841 27.3692C58.8285 26.543 59.2709 25.7984 59.9275 25.2764C60.5839 24.7545 61.409 24.4914 62.2465 24.5368C63.0903 24.5106 63.9186 24.7684 64.5987 25.2686C65.2788 25.7689 65.7712 26.4828 65.9979 27.2962" stroke="#014451" stroke-width="0.73" stroke-linecap="round" stroke-linejoin="round"/>
<path d="M29.3244 11.2655C29.1701 11.111 28.9868 10.9886 28.7852 10.905C28.5836 10.8214 28.3674 10.7783 28.1491 10.7783C27.9308 10.7783 27.7146 10.8214 27.5129 10.905C27.3113 10.9886 27.128 11.111 26.9738 11.2655L26.5504 11.7035L26.127 11.2655C25.8153 10.9538 25.3925 10.7787 24.9517 10.7787C24.5109 10.7787 24.0881 10.9538 23.7764 11.2655C23.4647 11.5772 23.2896 12 23.2896 12.4408C23.2896 12.8816 23.4647 13.3044 23.7764 13.6161L26.5504 16.3901L29.3244 13.6161C29.4788 13.4618 29.6013 13.2786 29.6849 13.0769C29.7685 12.8753 29.8115 12.6591 29.8115 12.4408C29.8115 12.2225 29.7685 12.0063 29.6849 11.8047C29.6013 11.603 29.4788 11.4198 29.3244 11.2655Z" stroke="#014451" stroke-width="0.73" stroke-linecap="round" stroke-linejoin="round"/>
<path d="M34.5968 23.7282L40.4068 26.0257L38.1584 20.2626C39.5554 18.2706 40.2956 15.892 40.2754 13.459C40.1954 6.49104 33.9667 0.928464 26.3601 1.0007C18.7389 1.07754 12.6285 6.76844 12.6969 13.718C12.7737 21.9401 21.2524 27.6901 29.735 25.7921C31.4688 25.4094 33.1171 24.7097 34.5968 23.7282Z" stroke="#014451" stroke-width="0.73" stroke-linecap="round" stroke-linejoin="round"/>
<path d="M118.602 119.581L113.229 118.808L110.835 113.946L108.44 118.808L103.067 119.581L106.951 123.377L106.031 128.721L110.835 126.195L115.638 128.721L114.718 123.377L118.602 119.581Z" stroke="#014451" stroke-width="0.73" stroke-linecap="round" stroke-linejoin="round"/>
<path d="M68.6699 29.8516C75.4866 30.3171 82.1103 32.3186 88.044 35.7061" stroke="#014451" stroke-width="0.73" stroke-linecap="round" stroke-linejoin="round"/>
<path d="M22.0386 61.1681C24.6046 53.3767 29.2181 46.4184 35.3962 41.0218C41.5743 35.6253 49.0896 31.989 57.1553 30.4937" stroke="#014451" stroke-width="0.73" stroke-linecap="round" stroke-linejoin="round"/>
<path d="M108.674 69.5474L100.352 77.3291" stroke="#014451" stroke-width="0.73" stroke-linecap="round" stroke-linejoin="round"/>
<path d="M71.955 121.684L65.7646 112.106" stroke="#014451" stroke-width="0.73" stroke-linecap="round" stroke-linejoin="round"/>
<path d="M72.6699 69.8828C73.7941 70.7002 75.0728 71.2796 76.4282 71.5859C77.7837 71.8921 79.1876 71.9187 80.5539 71.664" stroke="#014451" stroke-width="0.73" stroke-linecap="round" stroke-linejoin="round"/>
<path d="M24.9004 114.72V116.419" stroke="#014451" stroke-width="0.73" stroke-linecap="round" stroke-linejoin="round"/>
<path d="M28.2066 118.027H26.5068" stroke="#014451" stroke-width="0.73" stroke-linecap="round" stroke-linejoin="round"/>
<path d="M24.9004 121.334V119.634" stroke="#014451" stroke-width="0.73" stroke-linecap="round" stroke-linejoin="round"/>
<path d="M21.5933 118.027H23.2938" stroke="#014451" stroke-width="0.73" stroke-linecap="round" stroke-linejoin="round"/>
<path d="M26.507 118.026C26.2959 118.026 26.0868 117.985 25.8917 117.904C25.6966 117.824 25.5193 117.705 25.3701 117.556C25.2209 117.406 25.1025 117.23 25.0219 117.034C24.9413 116.839 24.8999 116.63 24.9002 116.419C24.9006 116.63 24.8593 116.839 24.7787 117.034C24.6982 117.23 24.5799 117.407 24.4306 117.556C24.2813 117.705 24.104 117.824 23.9089 117.905C23.7138 117.986 23.5046 118.026 23.2935 118.026C23.5045 118.026 23.7136 118.067 23.9087 118.148C24.1038 118.229 24.281 118.347 24.4303 118.497C24.5796 118.646 24.6979 118.823 24.7786 119.018C24.8592 119.213 24.9005 119.422 24.9002 119.633C24.9001 119.422 24.9415 119.213 25.0221 119.018C25.1028 118.823 25.2211 118.646 25.3704 118.497C25.5196 118.348 25.6968 118.229 25.8919 118.149C26.0869 118.068 26.2959 118.026 26.507 118.026Z" stroke="#014451" stroke-width="0.73" stroke-linecap="round" stroke-linejoin="round"/>
<path d="M74.4515 123.494C73.6954 127.829 71.3594 140.698 68.8882 144.52" stroke="#014451" stroke-width="0.73" stroke-linecap="round" stroke-linejoin="round"/>
</svg>
