<svg width="202" height="142" viewBox="0 0 202 142" fill="none" xmlns="http://www.w3.org/2000/svg">
<path d="M124.919 80.1782C122.408 81.7256 114.443 82.7498 111.059 82.9382H126.322C125.92 81.9866 125.452 81.0635 124.919 80.1782Z" fill="#134173"/>
<path d="M127.421 86.4204H77.38L58.98 124.621C59.853 125.393 60.7807 126.1 61.7558 126.738L59 132.54C62.9592 133.628 67.1302 133.69 71.12 132.72L72.1347 130.353C73.1466 130.452 74.1633 130.495 75.18 130.48L82.3863 117.292L80.22 128.239C81.1936 128.719 82.1949 129.141 83.2189 129.503L82.42 132.718C86.0279 133.749 89.8521 133.749 93.46 132.718L93.7989 131.204C94.7663 131.197 95.74 131.159 96.72 131.078L104.66 98.9583L107.06 99.3183L123.76 97.9783C127.194 95.1709 128.689 91.6815 127.421 86.4204Z" fill="#134173"/>
<path d="M63.9993 54.56C63.939 55.2936 63.6663 55.9939 63.2146 56.575C62.7628 57.1562 62.1515 57.5932 61.4555 57.8327C60.7594 58.0723 60.0087 58.1039 59.295 57.9236C58.5812 57.7434 57.9354 57.3593 57.4365 56.8181C56.9375 56.2769 56.607 55.6021 56.4853 54.8761C56.3635 54.1501 56.4559 53.4044 56.7511 52.7301C57.0463 52.0556 57.5314 51.4819 58.1473 51.0788C58.7632 50.6756 59.4832 50.4606 60.2193 50.46C61.2641 50.5027 62.2493 50.9586 62.9581 51.7274C63.667 52.4963 64.0415 53.5151 63.9993 54.56Z" fill="#134173"/>
<path d="M62.5004 48.7401C61.8943 49.1875 61.153 49.4134 60.4004 49.3801C60.4741 48.6309 60.8065 47.9308 61.3404 47.4001C61.9465 46.9526 62.6878 46.7267 63.4404 46.7601C63.3667 47.5092 63.0343 48.2093 62.5004 48.7401Z" fill="#134173"/>
<path d="M106.481 44.7043C106.447 45.2298 106.341 45.7481 106.165 46.2443L108.085 44.4443C107.563 44.5976 107.024 44.685 106.481 44.7043Z" fill="#3897A0"/>
<path d="M114.12 61.6602V70.9802C114.64 70.9002 115.16 70.8201 115.68 70.7201C115.402 67.6634 114.88 64.6338 114.12 61.6602Z" fill="#3897A0"/>
<path d="M102.461 75.4804L100.021 74.5804C99.7412 74.3404 99.4612 74.0804 99.2012 73.8204C99.8433 71.0404 101.561 72.0804 102.461 75.4804Z" fill="#3897A0"/>
<path d="M83.819 41.0801V66.3601C83.8185 67.2828 83.4517 68.1677 82.7991 68.8202C82.1466 69.4727 81.2619 69.8395 80.339 69.8401H79.019C79.9419 69.8395 80.8266 69.4727 81.4791 68.8202C82.1317 68.1677 82.4985 67.2828 82.499 66.3601V41.0801C82.4985 40.1573 82.1317 39.2724 81.4791 38.62C80.8266 37.9675 79.9419 37.6006 79.019 37.6001H80.339C81.2619 37.6006 82.1466 37.9675 82.7991 38.62C83.4517 39.2724 83.8185 40.1573 83.819 41.0801Z" fill="#3897A0"/>
<path d="M71.201 82.0602H68.601C68.1839 82.0644 67.7802 81.9128 67.4688 81.636C67.1573 81.3581 66.9606 80.9749 66.9168 80.5602L65.821 69.8623H64.501L65.961 83.1823H72.301C72.3038 83.036 72.2774 82.8907 72.2234 82.7549C72.1694 82.6191 72.0888 82.4949 71.9865 82.3907C71.884 82.2865 71.7618 82.2034 71.627 82.1465C71.4921 82.0897 71.3473 82.0602 71.201 82.0602Z" fill="#3897A0"/>
<path d="M115.619 37.48C115.855 37.1962 115.982 36.8375 115.977 36.4683C115.972 36.0993 115.836 35.7441 115.592 35.4667C115.349 35.1895 115.014 35.0082 114.649 34.9556C114.283 34.903 113.911 34.9826 113.599 35.18C113.769 34.8757 113.83 34.5233 113.774 34.1796C113.719 33.8359 113.55 33.5209 113.293 33.2855C113.036 33.0499 112.709 32.9075 112.361 32.881C112.014 32.8546 111.669 32.9459 111.379 33.14C112.312 31.461 109.638 30.0263 108.642 31.64C108.027 33.462 107.257 35.2283 106.342 36.92C108.902 33.341 110.622 37.14 110.462 39.38C110.482 39.82 110.702 39.94 111.422 39.42C112.902 38.34 113.962 40.86 111.202 42.1C110.352 43.736 110.103 45.6195 110.502 47.42C110.482 47.14 110.162 41.56 116.462 40.4C116.789 40.3308 117.081 40.1523 117.292 39.894C117.502 39.6358 117.618 39.3133 117.62 38.98C117.622 38.7366 117.568 38.4961 117.459 38.278C117.352 38.0598 117.194 37.8701 116.999 37.7241C116.804 37.5781 116.578 37.4799 116.338 37.4376C116.098 37.3952 115.852 37.4097 115.619 37.48Z" fill="#3897A0"/>
<path d="M109.3 53.9202C109.3 54.1111 109.225 54.2943 109.09 54.4293C108.954 54.5643 108.771 54.6402 108.58 54.6402C108.39 54.6402 108.207 54.5643 108.071 54.4293C107.936 54.2943 107.86 54.1111 107.86 53.9202C107.86 53.7292 107.936 53.5461 108.071 53.411C108.207 53.276 108.39 53.2002 108.58 53.2002C108.771 53.2002 108.954 53.276 109.09 53.411C109.225 53.5461 109.3 53.7292 109.3 53.9202Z" fill="#3897A0"/>
<path d="M102.38 60.5799C102.38 60.7708 102.304 60.954 102.169 61.0889C102.034 61.224 101.85 61.2999 101.66 61.2999C101.469 61.2999 101.286 61.224 101.15 61.0889C101.016 60.954 100.94 60.7708 100.94 60.5799C100.94 60.3889 101.016 60.2058 101.15 60.0707C101.286 59.9356 101.469 59.8599 101.66 59.8599C101.85 59.8599 102.034 59.9356 102.169 60.0707C102.304 60.2058 102.38 60.3889 102.38 60.5799Z" fill="#3897A0"/>
<path d="M107.76 68.1204C107.76 68.3113 107.685 68.4945 107.55 68.6294C107.414 68.7645 107.231 68.8404 107.04 68.8404C106.85 68.8404 106.667 68.7645 106.531 68.6294C106.396 68.4945 106.32 68.3113 106.32 68.1204C106.32 67.9294 106.396 67.7463 106.531 67.6112C106.667 67.4762 106.85 67.4004 107.04 67.4004C107.231 67.4004 107.414 67.4762 107.55 67.6112C107.685 67.7463 107.76 67.9294 107.76 68.1204Z" fill="#3897A0"/>
<path d="M147.315 70.3804H140.115C139.86 70.3804 139.616 70.4815 139.436 70.6615C139.256 70.8415 139.155 71.0856 139.155 71.3404V81.9804C139.155 82.2351 139.256 82.4793 139.436 82.6593C139.616 82.8393 139.86 82.9404 140.115 82.9404H147.315C147.568 82.9372 147.811 82.8341 147.99 82.6551C148.17 82.4762 148.272 82.2341 148.275 81.9804V71.3362C148.274 71.0825 148.172 70.8391 147.993 70.6601C147.813 70.4809 147.568 70.3804 147.315 70.3804Z" fill="#3897A0"/>
<path d="M146.262 19.7568L136.522 22.4168C136.349 22.4638 136.19 22.5557 136.062 22.6833C135.935 22.8109 135.843 22.9699 135.796 23.1442C135.75 23.3184 135.75 23.5019 135.796 23.6761C135.843 23.8503 135.935 24.0093 136.062 24.1368L144.822 32.8168C144.95 32.9443 145.109 33.036 145.283 33.0827C145.457 33.1295 145.641 33.1295 145.815 33.0828C145.99 33.0363 146.149 32.9446 146.276 32.8173C146.403 32.6898 146.495 32.531 146.542 32.3568L149.142 22.4368L146.262 19.7568Z" fill="#3897A0"/>
<path d="M153.011 15.6879C152.836 15.5156 152.629 15.3795 152.402 15.2873C152.175 15.1951 151.932 15.1487 151.687 15.1504C151.442 15.1523 151.198 15.2025 150.973 15.2981C150.747 15.3938 150.543 15.5331 150.371 15.7079L146.311 19.8079L149.048 22.3479L153.028 18.3279C153.371 17.9735 153.563 17.4982 153.559 17.0044C153.556 16.5106 153.358 16.0378 153.011 15.6879Z" fill="#3897A0"/>
<path d="M67.1196 2.28316C67.1189 2.53621 67.0432 2.78348 66.9022 2.99369C66.761 3.20379 66.5608 3.36737 66.3267 3.46369C66.0927 3.56 65.8353 3.58474 65.5871 3.53484C65.339 3.48495 65.1112 3.36253 64.9326 3.18327C64.754 3.0039 64.6326 2.77558 64.5837 2.52727C64.5348 2.27895 64.5606 2.02169 64.6579 1.788C64.7552 1.55432 64.9196 1.35474 65.1303 1.21442C65.341 1.07421 65.5886 0.999581 65.8417 1C66.01 0.999686 66.1767 1.03274 66.3323 1.09716C66.4878 1.16169 66.629 1.25621 66.7478 1.37548C66.8666 1.49485 66.9606 1.63643 67.0244 1.79221C67.0882 1.948 67.1205 2.11485 67.1196 2.28316Z" fill="#3897A0"/>
<path d="M93.4604 132.72C89.8525 133.751 86.0283 133.751 82.4204 132.72C79.0404 133.7 72.4004 138.42 72.4004 138.42H94.7404C94.529 136.478 94.0996 134.567 93.4604 132.72Z" fill="#3897A0"/>
<path d="M71.1203 132.72C67.1306 133.69 62.9596 133.627 59.0003 132.54C55.3756 133.728 52.0757 135.741 49.3604 138.42H72.3803C72.0997 136.492 71.6787 134.586 71.1203 132.72Z" fill="#3897A0"/>
<path d="M111.02 99.0004L107.06 99.3204L104.66 98.9604L105.16 96.9404L111.02 99.0004Z" fill="#3897A0"/>
<path d="M180.281 82.9404H24.8005C24.3391 82.9404 23.8965 83.1236 23.5702 83.4499C23.2439 83.7762 23.0605 84.2194 23.0605 84.6804C23.0605 85.1415 23.2439 85.5846 23.5702 85.911C23.8965 86.2373 24.3391 86.4204 24.8005 86.4204H46.109L36.3005 140.72C36.284 140.819 36.2773 140.92 36.2805 141.02H39.8005L49.6574 86.4204H155.461L165.321 141.04H168.841C168.821 140.94 168.821 140.84 168.801 140.725L158.993 86.4246H180.281C180.742 86.4246 181.185 86.2415 181.511 85.9152C181.837 85.5889 182.021 85.1457 182.021 84.6846C182.021 84.2236 181.837 83.7804 181.511 83.4541C181.185 83.1278 180.742 82.9446 180.281 82.9446V82.9404Z" fill="#3897A0"/>
<path d="M67.1196 2.28316C67.1189 2.53621 67.0432 2.78348 66.9022 2.99369C66.761 3.20379 66.5608 3.36737 66.3267 3.46369C66.0927 3.56 65.8353 3.58474 65.5871 3.53484C65.339 3.48495 65.1112 3.36253 64.9326 3.18327C64.754 3.0039 64.6326 2.77558 64.5837 2.52727C64.5348 2.27895 64.5606 2.02169 64.6579 1.788C64.7552 1.55432 64.9196 1.35474 65.1303 1.21442C65.341 1.07421 65.5886 0.999581 65.8417 1C66.01 0.999686 66.1767 1.03274 66.3323 1.09716C66.4878 1.16169 66.629 1.25621 66.7478 1.37548C66.8666 1.49485 66.9606 1.63643 67.0244 1.79221C67.0882 1.948 67.1205 2.11485 67.1196 2.28316Z" stroke="#014451" stroke-width="0.888889"/>
<path d="M153.012 15.6879C152.837 15.5156 152.629 15.3795 152.402 15.2873C152.176 15.1951 151.933 15.1487 151.687 15.1504C151.442 15.1523 151.199 15.2025 150.974 15.2981C150.747 15.3938 150.543 15.5331 150.372 15.7079L146.312 19.8079L149.048 22.3479L153.028 18.3279C153.372 17.9735 153.563 17.4982 153.56 17.0044C153.557 16.5106 153.359 16.0378 153.012 15.6879Z" stroke="#014451" stroke-width="0.888889" stroke-linejoin="round"/>
<path d="M180.28 82.9404H24.7996C24.3381 82.9404 23.8956 83.1236 23.5693 83.4499C23.2429 83.7762 23.0596 84.2194 23.0596 84.6804C23.0596 85.1415 23.2429 85.5846 23.5693 85.911C23.8956 86.2373 24.3381 86.4204 24.7996 86.4204H46.108L36.2996 140.72C36.283 140.819 36.2763 140.92 36.2796 141.02H39.7996L49.6564 86.4204H155.46L165.32 141.04H168.84C168.82 140.94 168.82 140.84 168.8 140.725L158.992 86.4246H180.28C180.741 86.4246 181.184 86.2415 181.51 85.9152C181.836 85.5889 182.02 85.1457 182.02 84.6846C182.02 84.2236 181.836 83.7804 181.51 83.4541C181.184 83.1278 180.741 82.9446 180.28 82.9446V82.9404Z" stroke="#014451" stroke-width="0.888889" stroke-linejoin="round"/>
<path d="M97.9191 80.2202C97.0888 81.3444 95.9476 82.2013 94.6361 82.6844C93.3246 83.1676 91.9004 83.2571 90.5391 82.9402" stroke="#014451" stroke-width="0.888889" stroke-linecap="round" stroke-linejoin="round"/>
<path d="M52.6844 76.8605C52.6844 76.8605 42.9591 75.9615 41.6191 82.9405" stroke="#014451" stroke-width="0.888889" stroke-linecap="round" stroke-linejoin="round"/>
<path d="M56.1399 78.4202C55.8399 78.2602 55.5978 78.1044 55.3599 77.9602C54.2294 77.2771 53.8199 76.8202 52.8199 76.1602C51.8582 75.5223 50.9665 74.7855 50.1599 73.9602C47.9389 71.6813 48.6799 71.2802 51.1799 72.7802C51.1951 72.7823 51.2092 72.7897 51.2199 72.8002C52.8799 73.8055 54.6112 74.6886 56.3999 75.4413" stroke="#014451" stroke-width="0.888889" stroke-linecap="round" stroke-linejoin="round"/>
<path d="M55.3605 77.9603C53.1753 76.994 50.924 76.1845 48.6237 75.5393C46.6847 74.994 47.0237 74.5572 47.3437 74.4993C48.5251 74.4098 49.713 74.4561 50.8837 74.6393" stroke="#014451" stroke-width="0.888889" stroke-linecap="round" stroke-linejoin="round"/>
<path d="M55.7799 82.0601C55.3399 82.0001 54.9199 81.9727 54.5599 81.9601C51.102 81.8337 52.321 81.0643 53.5199 80.7201C54.141 80.5422 55.1599 80.3401 55.9799 80.0601" stroke="#014451" stroke-width="0.888889" stroke-linecap="round" stroke-linejoin="round"/>
<path d="M130.581 101.04L136.281 141.04" stroke="#014451" stroke-width="0.888889" stroke-linecap="round" stroke-linejoin="round"/>
<path d="M136.759 71.9998L127.399 71.3198" stroke="#014451" stroke-width="0.888889" stroke-linecap="round" stroke-linejoin="round"/>
<path d="M93.7989 131.206L93.46 132.72" stroke="#014451" stroke-width="0.888889" stroke-linecap="round" stroke-linejoin="round"/>
<path d="M82.3994 132.72L83.2184 129.504" stroke="#014451" stroke-width="0.888889" stroke-linecap="round" stroke-linejoin="round"/>
<path d="M72.1411 130.34L71.1211 132.72" stroke="#014451" stroke-width="0.888889" stroke-linecap="round" stroke-linejoin="round"/>
<path d="M58.9795 132.56L61.7553 126.738" stroke="#014451" stroke-width="0.888889" stroke-linecap="round" stroke-linejoin="round"/>
<path d="M82.3995 117.24L75.1795 130.48C69.2268 130.685 63.4243 128.587 58.9795 124.621L77.3795 86.4204" stroke="#014451" stroke-width="0.888889" stroke-linecap="round" stroke-linejoin="round"/>
<path d="M90.9795 131.125L98.3595 96.14C98.4669 95.6284 98.6745 95.1442 98.9706 94.7137C99.2666 94.2842 99.6453 93.9168 100.084 93.6337C100.523 93.3505 101.014 93.1579 101.528 93.0663C102.043 92.9747 102.57 92.9863 103.079 93.1C109.289 94.4884 120.963 95.7642 122.137 86.4663" stroke="#014451" stroke-width="0.888889" stroke-linecap="round" stroke-linejoin="round"/>
<path d="M64.9707 74.0262L87.6402 70.342C91.3802 64.6578 95.8223 51.4915 102.26 49.662C103.316 49.3927 104.277 48.8394 105.04 48.062" stroke="#014451" stroke-width="0.888889" stroke-linecap="round" stroke-linejoin="round"/>
<path d="M106.481 44.7042C107.011 44.6853 107.537 44.6076 108.05 44.4727L106.155 46.2442" stroke="#014451" stroke-width="0.888889" stroke-linecap="round" stroke-linejoin="round"/>
<path d="M110.82 48.2202C111.13 48.7891 111.645 49.2182 112.26 49.4202C115.459 50.6143 118.425 52.36 121.02 54.5781C123.982 57.296 126.599 67.255 127.74 73.8181C128.016 75.3613 127.699 76.9507 126.854 78.2707C126.009 79.5907 124.697 80.5434 123.18 80.9381C119.223 82.0371 115.16 82.7076 111.06 82.9381" stroke="#014451" stroke-width="0.888889" stroke-linecap="round" stroke-linejoin="round"/>
<path d="M117.96 70.2603C112.155 71.3803 106.27 72.035 100.36 72.2203" stroke="#014451" stroke-width="0.888889" stroke-linecap="round" stroke-linejoin="round"/>
<path d="M115.661 70.704C115.401 67.6451 114.878 64.6139 114.101 61.644V70.984" stroke="#014451" stroke-width="0.888889" stroke-linecap="round" stroke-linejoin="round"/>
<path d="M68.4209 73.46C70.243 76.2536 70.8898 79.6526 70.2209 82.92" stroke="#014451" stroke-width="0.888889" stroke-linecap="round" stroke-linejoin="round"/>
<path d="M93.1391 74.9404C91.5991 75.6204 87.6591 76.7415 85.5391 77.4204C84.5391 77.7362 86.3191 78.8804 92.3591 77.1404" stroke="#014451" stroke-width="0.888889" stroke-linecap="round" stroke-linejoin="round"/>
<path d="M93.4407 76.5C91.9807 77.42 89.8617 78.4789 87.9407 79.5C87.0407 79.9789 87.8607 81.02 93.1807 78.82" stroke="#014451" stroke-width="0.888889" stroke-linecap="round" stroke-linejoin="round"/>
<path d="M93.8603 77.96C93.0182 79 92.2888 80.0084 90.8803 81.52C90.2246 82.2242 91.4288 82.6515 95.8803 79.52C96.7014 78.9421 97.1435 79.5757 98.2203 80.48C99.6446 81.6747 100.6 83.06 101.64 82.92" stroke="#014451" stroke-width="0.888889" stroke-linecap="round" stroke-linejoin="round"/>
<path d="M96.461 73.2999C94.861 69.6157 95.901 69.4051 96.461 70.3399C97.4102 71.8725 98.5597 73.2704 99.8789 74.4988" stroke="#014451" stroke-width="0.888889" stroke-linecap="round" stroke-linejoin="round"/>
<path d="M99.2002 73.8203C99.6991 71.6519 100.856 71.8077 101.768 73.595C102.82 75.6624 103.78 82.9403 101.58 82.9403" stroke="#014451" stroke-width="0.888889" stroke-linecap="round" stroke-linejoin="round"/>
<path d="M102.387 75.4527C100.034 74.5748 96.2596 73.04 95.2407 73.04C94.8607 73.04 90.5207 74.3032 88.4207 74.88C87.0407 75.2611 86.3817 75.8979 88.6207 75.82C89.5607 75.7874 90.6007 75.66 91.5407 75.54" stroke="#014451" stroke-width="0.888889" stroke-linecap="round" stroke-linejoin="round"/>
<path d="M97.9991 59.8623C97.1318 64.0976 97.1863 68.47 98.1591 72.6823" stroke="#014451" stroke-width="0.888889" stroke-linecap="round" stroke-linejoin="round"/>
<path d="M65.9607 82.9199H55.6807L56.9607 69.8599H64.5207L65.9607 82.9199Z" stroke="#014451" stroke-width="0.888889" stroke-linecap="round" stroke-linejoin="round"/>
<path d="M63.9998 54.56C63.9395 55.2936 63.6667 55.9939 63.2151 56.575C62.7633 57.1562 62.152 57.5932 61.456 57.8327C60.7599 58.0723 60.0092 58.1039 59.2955 57.9236C58.5817 57.7434 57.9359 57.3593 57.4369 56.8181C56.938 56.2769 56.6075 55.6021 56.4858 54.8761C56.364 54.1501 56.4564 53.4044 56.7516 52.7301C57.0467 52.0556 57.5319 51.4819 58.1478 51.0788C58.7637 50.6756 59.4837 50.4606 60.2198 50.46C61.2646 50.5027 62.2498 50.9586 62.9586 51.7274C63.6675 52.4963 64.042 53.5151 63.9998 54.56Z" stroke="#014451" stroke-width="0.888889" stroke-linecap="round" stroke-linejoin="round"/>
<path d="M62.4994 48.7401C61.8933 49.1875 61.152 49.4134 60.3994 49.3801C60.4731 48.6309 60.8055 47.9308 61.3394 47.4001C61.9455 46.9526 62.6868 46.7267 63.4394 46.7601C63.3657 47.5092 63.0333 48.2093 62.4994 48.7401Z" stroke="#014451" stroke-width="0.888889" stroke-linecap="round" stroke-linejoin="round"/>
<path d="M106.34 36.9402C107.252 35.2477 108.022 33.4815 108.64 31.6602C108.83 31.3804 109.105 31.1687 109.424 31.056C109.743 30.9432 110.089 30.9355 110.414 31.0338C110.738 31.132 111.021 31.3311 111.224 31.6022C111.426 31.8731 111.537 32.2019 111.54 32.5402C111.538 32.7568 111.483 32.9696 111.38 33.1602C111.669 32.9661 112.015 32.8749 112.362 32.9012C112.709 32.9277 113.037 33.0701 113.294 33.3057C113.549 33.5412 113.72 33.8562 113.775 34.1999C113.83 34.5435 113.769 34.8959 113.6 35.2002C113.911 35.0028 114.284 34.9232 114.649 34.9758C115.015 35.0284 115.349 35.2097 115.592 35.487C115.837 35.7643 115.972 36.1196 115.978 36.4886C115.983 36.8577 115.856 37.2164 115.62 37.5002C115.812 37.4383 116.015 37.4156 116.217 37.4333C116.418 37.4512 116.614 37.5092 116.791 37.6041C116.97 37.6988 117.127 37.8285 117.255 37.9852C117.382 38.142 117.477 38.3228 117.534 38.5168C117.589 38.7108 117.606 38.9142 117.583 39.1148C117.559 39.3155 117.496 39.5093 117.396 39.6849C117.296 39.8605 117.162 40.0143 117.001 40.1372C116.841 40.2601 116.658 40.3495 116.462 40.4002C114.759 40.584 113.19 41.4146 112.081 42.7209C110.972 44.0271 110.407 45.7092 110.502 47.4202" stroke="#014451" stroke-width="0.888889" stroke-linecap="round" stroke-linejoin="round"/>
<path d="M110.819 48.2201L110.439 51.2201L107.379 48.8001L103.919 50.5401L105.039 48.0601" stroke="#014451" stroke-width="0.888889" stroke-linecap="round" stroke-linejoin="round"/>
<path d="M107.379 48.7998C104.859 55.1598 103.959 63.1398 103.919 72.0198" stroke="#014451" stroke-width="0.888889" stroke-linecap="round" stroke-linejoin="round"/>
<path d="M148.279 73.7998C149.038 73.7998 149.766 74.1009 150.301 74.6377C150.838 75.1735 151.139 75.9009 151.139 76.6598C151.139 77.4188 150.838 78.1461 150.301 78.6819C149.766 79.2188 149.038 79.5198 148.279 79.5198" stroke="#014451" stroke-width="0.888889" stroke-linecap="round" stroke-linejoin="round"/>
<path d="M174.5 47.26C174.5 47.6081 174.397 47.9485 174.203 48.2378C174.011 48.5273 173.735 48.7529 173.414 48.886C173.092 49.0193 172.738 49.0541 172.397 48.9862C172.055 48.9184 171.742 48.7507 171.496 48.5046C171.25 48.2585 171.082 47.9448 171.014 47.6034C170.947 47.262 170.981 46.9081 171.114 46.5866C171.248 46.265 171.473 45.99 171.762 45.7967C172.052 45.6033 172.392 45.5 172.74 45.5C172.972 45.4987 173.201 45.5432 173.415 45.6312C173.63 45.7191 173.824 45.8488 173.988 46.0125C174.152 46.1761 174.281 46.3707 174.369 46.5849C174.457 46.7991 174.501 47.0286 174.5 47.26Z" stroke="#014451" stroke-width="0.888889" stroke-linecap="round" stroke-linejoin="round"/>
<path d="M160.36 77.86L172.74 49.02" stroke="#014451" stroke-width="0.888889" stroke-linecap="round" stroke-linejoin="round"/>
<path d="M172.74 45.5002L154.7 25.2603" stroke="#014451" stroke-width="0.888889" stroke-linecap="round" stroke-linejoin="round"/>
<path d="M152.54 23.8804L149.48 21.9204" stroke="#014451" stroke-width="0.888889" stroke-linecap="round" stroke-linejoin="round"/>
<path d="M142.281 30.3004C141.956 30.5536 141.572 30.7198 141.165 30.7834C140.758 30.8469 140.343 30.8057 139.956 30.6635C139.569 30.5214 139.226 30.283 138.957 29.971C138.688 29.659 138.504 29.2837 138.421 28.8804C138.35 28.5399 138.355 28.1882 138.434 27.8497C138.514 27.5111 138.666 27.1941 138.881 26.9204" stroke="#014451" stroke-width="0.888889" stroke-linecap="round" stroke-linejoin="round"/>
<path d="M155 24.4401C155 24.6973 154.924 24.9486 154.781 25.1623C154.638 25.3761 154.435 25.5428 154.198 25.6412C153.96 25.7396 153.699 25.7653 153.447 25.7152C153.195 25.665 152.962 25.5412 152.781 25.3594C152.599 25.1776 152.475 24.9459 152.426 24.6937C152.375 24.4416 152.401 24.1802 152.499 23.9427C152.598 23.7051 152.764 23.502 152.978 23.3592C153.192 23.2163 153.443 23.1401 153.7 23.1401C154.043 23.1446 154.372 23.2829 154.615 23.5257C154.857 23.7686 154.996 24.0968 155 24.4401Z" stroke="#014451" stroke-width="0.888889" stroke-linecap="round" stroke-linejoin="round"/>
<path d="M161.64 79.1599C161.64 79.4167 161.564 79.6683 161.421 79.882C161.278 80.0957 161.075 80.263 160.838 80.3609C160.6 80.4588 160.339 80.4851 160.086 80.4346C159.835 80.3851 159.602 80.2609 159.421 80.0788C159.239 79.8978 159.115 79.6651 159.065 79.4135C159.015 79.1609 159.041 78.8999 159.139 78.662C159.237 78.4251 159.404 78.222 159.618 78.0788C159.831 77.9357 160.083 77.8599 160.34 77.8599C160.51 77.8599 160.68 77.8925 160.838 77.9578C160.996 78.023 161.139 78.1188 161.26 78.2399C161.381 78.3609 161.477 78.5041 161.542 78.662C161.607 78.8199 161.64 78.9893 161.64 79.1599Z" stroke="#014451" stroke-width="0.888889" stroke-linecap="round" stroke-linejoin="round"/>
<path d="M107.059 103.78L104.659 141.04" stroke="#014451" stroke-width="0.888889" stroke-linecap="round" stroke-linejoin="round"/>
<path d="M67.88 19.96H55.96V8.04004H67.88V19.96Z" stroke="#014451" stroke-width="0.888889" stroke-linecap="round" stroke-linejoin="round"/>
<path d="M61.9199 10.7604L65.3999 3.42041" stroke="#014451" stroke-width="0.888889" stroke-linecap="round" stroke-linejoin="round"/>
<path d="M27.6205 105.85H18.5205" stroke="#014451" stroke-width="0.888889" stroke-linecap="round" stroke-linejoin="round"/>
<path d="M23.0596 110.4V101.3" stroke="#014451" stroke-width="0.888889" stroke-linecap="round" stroke-linejoin="round"/>
<path d="M174.86 100.08C174.907 100.602 174.799 101.126 174.548 101.586C174.298 102.048 173.916 102.423 173.451 102.666C172.987 102.911 172.462 103.011 171.941 102.956C171.419 102.9 170.926 102.692 170.523 102.356C170.121 102.02 169.826 101.573 169.678 101.071C169.529 100.568 169.533 100.032 169.689 99.5318C169.845 99.0307 170.146 98.5875 170.553 98.2581C170.962 97.9286 171.458 97.7275 171.98 97.6802C172.327 97.6444 172.678 97.6791 173.012 97.7812C173.346 97.8833 173.656 98.0507 173.924 98.2749C174.192 98.4981 174.413 98.7728 174.575 99.0833C174.735 99.3928 174.831 99.7318 174.86 100.08Z" stroke="#014451" stroke-width="0.888889" stroke-linecap="round" stroke-linejoin="round"/>
<path d="M1 141.04H201" stroke="#014451" stroke-width="0.888889" stroke-linecap="round" stroke-linejoin="round"/>
<path d="M72.3994 138.42H94.7394" stroke="#014451" stroke-width="0.888889" stroke-linecap="round" stroke-linejoin="round"/>
<path d="M49.3398 138.42H72.3598" stroke="#014451" stroke-width="0.888889" stroke-linecap="round" stroke-linejoin="round"/>
<path d="M72.3979 138.389C72.186 136.457 71.757 134.555 71.119 132.719C67.1292 133.689 62.9582 133.626 58.999 132.539C54.2539 134.151 50.0738 137.095 46.959 141.02C56.199 141.02 62.339 141.04 69.299 141.02" stroke="#014451" stroke-width="0.888889" stroke-linecap="round" stroke-linejoin="round"/>
<path d="M93.4608 132.72C89.8529 133.751 86.0287 133.751 82.4208 132.72C77.4397 134.164 71.066 139.255 69.3008 141.02C79.8608 141.02 86.5008 140.92 94.8008 140.92C94.8739 138.127 94.4193 135.344 93.4608 132.72Z" stroke="#014451" stroke-width="0.888889" stroke-linecap="round" stroke-linejoin="round"/>
<path d="M104.659 98.9604L105.159 96.9404L111.019 99.0004" stroke="#014451" stroke-width="0.888889" stroke-linecap="round" stroke-linejoin="round"/>
<path d="M104.659 98.9604L107.059 99.3204L128.656 97.5562" stroke="#014451" stroke-width="0.888889" stroke-linecap="round" stroke-linejoin="round"/>
<path d="M131.441 97.7603L124.641 97.2603" stroke="#014451" stroke-width="0.888889" stroke-linecap="round" stroke-linejoin="round"/>
<path d="M68.6211 129.74L85.5411 101.36" stroke="#014451" stroke-width="0.888889" stroke-linecap="round" stroke-linejoin="round"/>
<path d="M105.539 71.9004C107.339 74.5604 107.799 78.2404 106.879 82.9404" stroke="#014451" stroke-width="0.888889" stroke-linecap="round" stroke-linejoin="round"/>
<path d="M103.561 103.38L107.061 103.78L128.955 101.96C129.415 101.924 129.852 101.744 130.204 101.446C130.555 101.148 130.805 100.747 130.915 100.3L140.375 54.44C140.478 53.9478 140.473 53.4391 140.359 52.9491C140.247 52.459 140.029 51.9994 139.721 51.6019C139.412 51.2044 139.022 50.8787 138.575 50.647C138.129 50.4153 137.637 50.2833 137.135 50.26L111.501 49.02" stroke="#014451" stroke-width="0.888889" stroke-linecap="round" stroke-linejoin="round"/>
<path d="M95.2595 85.8198C93.2113 86.2146 91.3273 87.2114 89.8488 88.683C88.3701 90.1546 87.3642 92.0335 86.9595 94.0798L80.2227 128.24C85.3614 130.671 91.0665 131.655 96.7227 131.082C96.7227 130.983 102.848 106.281 104.663 98.9619" stroke="#014451" stroke-width="0.888889" stroke-linecap="round" stroke-linejoin="round"/>
<path d="M79.0197 37.6001C79.9425 37.6006 80.8273 37.9675 81.4798 38.62C82.1323 39.2725 82.4991 40.1574 82.4997 41.0801V66.3801C82.4997 67.3033 82.1331 68.1886 81.4805 68.8416C80.828 69.4945 79.9428 69.8617 79.0197 69.8622H44.4397C43.516 69.8619 42.63 69.4955 41.9759 68.8433C41.3219 68.1909 40.953 67.306 40.9502 66.3822V41.0801C40.9494 40.6234 41.0386 40.171 41.2128 39.7488C41.387 39.3266 41.6427 38.9429 41.9654 38.6198C42.288 38.2965 42.6713 38.0401 43.0931 37.8652C43.5149 37.6902 43.9671 37.6001 44.4239 37.6001H79.0197Z" stroke="#014451" stroke-width="0.888889" stroke-linecap="round" stroke-linejoin="round"/>
<path d="M83.8195 41.0801V66.3601C83.819 67.2828 83.4522 68.1677 82.7996 68.8202C82.1471 69.4727 81.2624 69.8396 80.3395 69.8401H79.0195C79.9424 69.8396 80.8271 69.4727 81.4796 68.8202C82.1322 68.1677 82.499 67.2828 82.4995 66.3601V41.0801C82.499 40.1574 82.1322 39.2725 81.4796 38.62C80.8271 37.9675 79.9424 37.6006 79.0195 37.6001H80.3395C81.2624 37.6006 82.1471 37.9675 82.7996 38.62C83.4522 39.2725 83.819 40.1574 83.8195 41.0801Z" stroke="#014451" stroke-width="0.888889" stroke-linecap="round" stroke-linejoin="round"/>
<path d="M111.42 39.441C112.894 38.3547 113.947 40.8652 111.2 42.121C110.818 42.2957 109.64 46.141 110.82 48.2263C108.936 48.8463 106.66 49.2157 105.04 48.0663C105.896 47.1469 106.405 45.9581 106.479 44.7042C101.279 44.7842 106.239 36.9242 106.339 36.9242C108.881 33.3694 110.595 37.1094 110.463 39.3368C110.424 39.9947 110.885 39.8336 111.42 39.441Z" stroke="#014451" stroke-width="0.888889" stroke-linecap="round" stroke-linejoin="round"/>
<path d="M123.867 97.9146C125.196 96.9188 126.257 95.6093 126.955 94.103C127.654 92.5967 127.966 90.9398 127.867 89.283C127.795 88.3335 127.656 87.3925 127.454 86.4683" stroke="#014451" stroke-width="0.888889" stroke-linecap="round" stroke-linejoin="round"/>
<path d="M124.92 80.1782C125.463 81.0635 125.936 81.9866 126.336 82.9393" stroke="#014451" stroke-width="0.888889" stroke-linecap="round" stroke-linejoin="round"/>
<path d="M148.28 81.9802C148.28 82.2349 148.179 82.4791 147.999 82.6591C147.819 82.8391 147.575 82.9402 147.32 82.9402H140.12C139.865 82.9402 139.621 82.8391 139.441 82.6591C139.261 82.4791 139.16 82.2349 139.16 81.9802V71.336C139.16 71.0812 139.261 70.8372 139.441 70.6571C139.621 70.4771 139.865 70.376 140.12 70.376H147.316C147.442 70.376 147.566 70.4008 147.683 70.449C147.8 70.4973 147.905 70.568 147.995 70.6571C148.084 70.7463 148.155 70.8521 148.203 70.9686C148.251 71.0854 148.276 71.2097 148.276 71.336L148.28 81.9802Z" stroke="#014451" stroke-width="0.888889" stroke-linecap="round" stroke-linejoin="round"/>
<path d="M169.4 80.4404C169.479 80.4425 169.554 80.472 169.611 80.5225C169.666 80.5731 169.698 80.6415 169.7 80.7141V82.6646C169.698 82.7373 169.666 82.8057 169.611 82.8562C169.554 82.9068 169.479 82.9362 169.4 82.9383H151.3C151.221 82.9362 151.146 82.9068 151.089 82.8562C151.034 82.8057 151.002 82.7373 151 82.6646V80.7141C151.002 80.6415 151.034 80.5731 151.089 80.5225C151.146 80.472 151.221 80.4425 151.3 80.4404H169.4Z" stroke="#014451" stroke-width="0.888889" stroke-linecap="round" stroke-linejoin="round"/>
<path d="M107.06 103.78V99.3198" stroke="#014451" stroke-width="0.888889" stroke-linecap="round" stroke-linejoin="round"/>
<path d="M146.263 19.7568L136.523 22.4168C136.349 22.4638 136.19 22.5557 136.063 22.6833C135.935 22.8109 135.844 22.9699 135.796 23.1442C135.75 23.3184 135.75 23.5019 135.796 23.6761C135.844 23.8503 135.935 24.0093 136.063 24.1368L144.823 32.8168C144.95 32.9443 145.109 33.036 145.284 33.0827C145.458 33.1295 145.642 33.1295 145.815 33.0828C145.99 33.0363 146.149 32.9446 146.276 32.8173C146.404 32.6898 146.495 32.531 146.543 32.3568L149.143 22.4368L146.263 19.7568Z" stroke="#014451" stroke-width="0.888889" stroke-linejoin="round"/>
</svg>
