<svg width="194" height="144" viewBox="0 0 194 144" fill="none" xmlns="http://www.w3.org/2000/svg">
<path d="M136.544 72.4976C134.662 68.4262 131.82 62.3767 130.457 59.8811C128.299 55.9492 126.57 55.8451 124.772 54.1581C123.284 54.0144 121.845 53.5562 120.548 52.8138C120.367 52.9165 120.175 52.9973 119.976 53.0544C120.436 53.7619 119.387 54.6625 118.41 54.9152C118.916 55.2821 118.401 56.3909 117.399 56.5587C116.901 56.5587 116.324 56.6234 113.943 56.6355C113.291 58.2275 112.445 58.2386 111.803 57.1874C110.411 54.9101 110.584 47.5538 112.579 47.0332L99.1175 48.1451C97.7823 48.259 96.5232 48.8132 95.5374 49.7204C94.5515 50.6278 93.8949 51.8369 93.6707 53.1579C93.4465 54.4787 93.6675 55.8368 94.2987 57.0186C94.93 58.2004 95.936 59.139 97.1587 59.6871L106.088 63.6806L104.993 69.0377L121.72 76.95L126.54 66.5219V72.7442L128.672 76.5649L123.261 91.4566C125.939 93.3943 129.135 94.491 132.44 94.6062L137.01 80.6454C137.893 77.9689 137.726 75.0569 136.544 72.4976ZM106.975 59.5162L98.4494 59.0563L107.206 58.365L106.975 59.5162Z" fill="#134173"/>
<path d="M60.6951 74.8213L50.2477 68.599C49.9751 68.4403 49.6521 68.3921 49.3451 68.4645L32.4844 70.6882L50.3256 76.9722C50.5675 77.0561 50.7701 77.2259 50.8942 77.4493C51.0182 77.6737 51.0551 77.9355 50.9977 78.1851C50.9615 78.3185 50.8983 78.4439 50.8117 78.552C50.7252 78.6602 50.6174 78.7491 50.495 78.8148C50.3725 78.8795 50.238 78.9179 50.0999 78.929C49.9617 78.9392 49.8228 78.922 49.6918 78.8765L31.9851 71.7869L43.3512 84.653C43.5391 84.9027 43.8129 85.0735 44.1194 85.1332L56.087 87.2265C56.3702 87.272 56.6605 87.2194 56.9089 87.0759C57.1574 86.9323 57.3487 86.7069 57.4505 86.4391L61.2146 76.3C61.3139 76.0312 61.3163 75.737 61.2214 75.4671C61.1266 75.1973 60.9404 74.9688 60.6951 74.8213Z" fill="#134173"/>
<path d="M166.718 99.4022L169.983 93.5063L173.132 95.254L169.867 101.149L166.718 99.4022Z" fill="#134173"/>
<path d="M180.603 87.6878L180.469 80.9469L184.078 80.8701L184.213 87.611L180.603 87.6878Z" fill="#134173"/>
<path d="M175.994 87.784L175.84 81.0431L179.451 80.9663L179.585 87.7071L175.994 87.784Z" fill="#134173"/>
<path d="M167.524 9.60538C161.514 5.76445 153.794 7.08957 150.28 12.5629C149.052 14.483 148.455 16.7387 148.572 19.0147L143.923 22.4715L149.655 23.5267C150.755 25.9621 152.54 28.0245 154.792 29.462C160.803 33.3029 168.522 31.9778 172.036 26.5045C175.551 21.0312 173.538 13.4463 167.524 9.60538Z" fill="#134173"/>
<path d="M150.125 105.97L144.114 122.158L137.74 119.778L143.75 103.607L150.125 105.97Z" fill="#3897A0"/>
<path d="M134.549 46.1803C134.363 46.0087 134.165 45.851 133.957 45.7082C136.028 46.7321 136.091 44.4074 133.861 42.8477C130.353 39.8983 127.604 39.7871 125.785 40.3471C128.002 40.154 128.438 42.213 127.773 44.3063C127.558 44.7915 128.054 44.8117 128.581 44.7288C130.156 44.5175 129.907 46.9525 127.874 46.6493C127.773 46.7847 125.825 49.3581 125.742 49.4723C126.051 49.1227 126.445 48.8576 126.885 48.702C127.325 48.5464 127.798 48.5054 128.258 48.5829C129.956 48.9598 131.534 49.754 132.848 50.8935C133.77 51.7769 134.869 52.1418 135.306 51.7021C135.743 51.2624 135.345 50.1657 134.423 49.2823C134.268 49.1358 134.09 48.9538 133.911 48.7769C135.493 49.341 136.187 47.749 134.549 46.1803Z" fill="#3897A0"/>
<path d="M96.0098 79.68L97.1812 82.2908L106.802 79.1797L96.0098 79.68Z" fill="#3897A0"/>
<path d="M126.563 66.5249V72.7472L124.989 69.9251L126.563 66.5249Z" fill="#3897A0"/>
<path d="M113.967 56.6357C113.295 58.3065 112.277 58.3834 111.547 56.6741C112.2 56.6741 113.083 56.6549 113.967 56.6357Z" fill="#3897A0"/>
<path d="M113.985 48.3395C113.148 48.4811 112.3 48.5581 111.45 48.5699C112.103 46.7071 113.196 46.419 113.985 48.3395Z" fill="#3897A0"/>
<path d="M107.206 58.3638L106.976 59.515L98.4497 59.0551L107.206 58.3638Z" fill="#3897A0"/>
<path d="M3.90993 97.54C3.76559 97.8099 3.54453 98.0303 3.27471 98.1748C3.00487 98.3183 2.69841 98.379 2.39403 98.3487C2.08966 98.3193 1.80106 98.1991 1.56475 98.005C1.32842 97.8109 1.15498 97.5512 1.06634 97.258C0.977719 96.9659 0.977891 96.6536 1.06683 96.3605C1.15578 96.0673 1.3295 95.8086 1.56603 95.6145C1.80257 95.4205 2.09129 95.3012 2.39569 95.2709C2.70009 95.2415 3.0065 95.3022 3.27617 95.4467C3.63703 95.6408 3.90626 95.9703 4.02502 96.3625C4.14378 96.7547 4.1024 97.1782 3.90993 97.54Z" fill="#3897A0"/>
<path d="M61.117 47.3984C60.9726 47.668 60.7516 47.8888 60.4817 48.0329C60.2119 48.1769 59.9055 48.2377 59.6011 48.2075C59.2967 48.1774 59.0081 48.0576 58.7718 47.8635C58.5355 47.6693 58.362 47.4094 58.2734 47.1167C58.1847 46.824 58.1849 46.5115 58.2739 46.2188C58.3628 45.9262 58.5366 45.6666 58.7731 45.4726C59.0096 45.2787 59.2983 45.1593 59.6027 45.1294C59.9072 45.0996 60.2136 45.1608 60.4832 45.3051C60.8441 45.4994 61.1133 45.8287 61.2321 46.221C61.3509 46.6133 61.3094 47.0366 61.117 47.3984Z" fill="#3897A0"/>
<path d="M184.692 53.2749C188.264 51.4555 189.954 54.9841 193.046 54.8921C190.703 57.5808 186.766 58.5794 184.231 56.1212L184.692 53.2749Z" fill="#3897A0"/>
<path d="M160.016 23.6814C159.96 23.8341 159.845 23.9585 159.698 24.0269C159.55 24.0953 159.381 24.1023 159.229 24.0463C159.076 23.9902 158.952 23.8758 158.883 23.7281C158.814 23.5804 158.808 23.4116 158.864 23.2589C158.919 23.1061 159.034 22.9817 159.182 22.9133C159.33 22.8449 159.498 22.8379 159.651 22.894C159.804 22.95 159.928 23.0644 159.997 23.2121C160.065 23.3598 160.072 23.5286 160.016 23.6814Z" fill="#3897A0"/>
<path d="M71.218 65.123C68.7983 65.5648 66.4169 65.7376 64.6126 66.0641C60.7909 66.7554 57.4301 67.5428 57.1612 68.2726C56.2202 70.846 65.8599 70.9229 69.5088 73.3265C72.4684 75.2641 73.5378 75.5289 76.2305 73.9794C73.8318 71.5029 72.1063 68.4542 71.218 65.123Z" fill="#3897A0"/>
<path d="M84.0663 116.221C83.4753 117.832 82.6259 119.337 81.5515 120.675C80.7743 121.497 79.8226 122.133 78.7668 122.538C74.3548 124.357 68.3821 132.982 66.6295 130.546C66.1322 129.854 67.4957 126.361 69.2221 122.48C70.4522 119.716 72.8902 115.548 74.8683 111.88C77.5876 113.97 80.7246 115.45 84.0663 116.221Z" fill="#3897A0"/>
<path d="M110.49 90.3573C110.483 90.5383 110.406 90.7101 110.276 90.8364C110.146 90.9618 109.971 91.0325 109.79 91.0325C109.608 91.0325 109.433 90.9618 109.303 90.8364C109.172 90.7101 109.095 90.5383 109.088 90.3573C109.095 90.1764 109.172 90.0046 109.303 89.8782C109.433 89.7529 109.608 89.6821 109.79 89.6821C109.971 89.6821 110.146 89.7529 110.276 89.8782C110.406 90.0046 110.483 90.1764 110.49 90.3573Z" fill="#3897A0"/>
<path d="M116.981 77.8559C116.974 78.0368 116.897 78.2086 116.767 78.335C116.636 78.4603 116.462 78.5311 116.28 78.5311C116.099 78.5311 115.924 78.4603 115.793 78.335C115.663 78.2086 115.586 78.0368 115.579 77.8559C115.586 77.6749 115.663 77.5031 115.793 77.3768C115.924 77.2514 116.099 77.1807 116.28 77.1807C116.462 77.1807 116.636 77.2514 116.767 77.3768C116.897 77.5031 116.974 77.6749 116.981 77.8559Z" fill="#3897A0"/>
<path d="M99.8536 75.6889C99.8465 75.8698 99.7697 76.0416 99.6393 76.168C99.5089 76.2933 99.3341 76.3641 99.1521 76.3641C98.9712 76.3641 98.7963 76.2933 98.6659 76.168C98.5356 76.0416 98.4587 75.8698 98.4517 75.6889C98.4587 75.5079 98.5356 75.3361 98.6659 75.2098C98.7963 75.0844 98.9712 75.0137 99.1521 75.0137C99.3341 75.0137 99.5089 75.0844 99.6393 75.2098C99.7697 75.3361 99.8465 75.5079 99.8536 75.6889Z" fill="#3897A0"/>
<path d="M101.004 63.7618C100.997 63.943 100.92 64.1147 100.79 64.2405C100.66 64.3664 100.485 64.4366 100.303 64.4366C100.122 64.4366 99.947 64.3664 99.8166 64.2405C99.6862 64.1147 99.6094 63.943 99.6023 63.7618C99.6094 63.5805 99.6862 63.4089 99.8166 63.2831C99.947 63.1573 100.122 63.0869 100.303 63.0869C100.485 63.0869 100.66 63.1573 100.79 63.2831C100.92 63.4089 100.997 63.5805 101.004 63.7618Z" fill="#3897A0"/>
<path d="M90.3844 57.5572C90.3775 57.7384 90.3006 57.9101 90.1699 58.0359C90.0392 58.1618 89.8648 58.232 89.6834 58.232C89.502 58.232 89.3276 58.1618 89.1969 58.0359C89.0662 57.9101 88.9893 57.7384 88.9824 57.5572C88.9893 57.3759 89.0662 57.2043 89.1969 57.0784C89.3276 56.9527 89.502 56.8823 89.6834 56.8823C89.8648 56.8823 90.0392 56.9527 90.1699 57.0784C90.3006 57.2043 90.3775 57.3759 90.3844 57.5572Z" fill="#3897A0"/>
<path d="M75.0789 65.1036C75.0721 65.2848 74.9951 65.4565 74.8645 65.5823C74.7338 65.7082 74.5594 65.7784 74.378 65.7784C74.1965 65.7784 74.0222 65.7082 73.8915 65.5823C73.7608 65.4565 73.6839 65.2848 73.677 65.1036C73.6839 64.9223 73.7608 64.7507 73.8915 64.6249C74.0222 64.4991 74.1965 64.4287 74.378 64.4287C74.5594 64.4287 74.7338 64.4991 74.8645 64.6249C74.9951 64.7507 75.0721 64.9223 75.0789 65.1036Z" fill="#3897A0"/>
<path d="M85.6207 66.525C85.6138 66.7063 85.5369 66.8779 85.4062 67.0037C85.2755 67.1295 85.1012 67.1998 84.9197 67.1998C84.7383 67.1998 84.5639 67.1295 84.4332 67.0037C84.3025 66.8779 84.2256 66.7063 84.2188 66.525C84.2256 66.3437 84.3025 66.1721 84.4332 66.0463C84.5639 65.9204 84.7383 65.8501 84.9197 65.8501C85.1012 65.8501 85.2755 65.9204 85.4062 66.0463C85.5369 66.1721 85.6138 66.3437 85.6207 66.525Z" fill="#3897A0"/>
<path d="M91.325 96.9057C91.3182 97.0866 91.2412 97.2584 91.1106 97.3848C90.9799 97.5101 90.8055 97.5809 90.6241 97.5809C90.4426 97.5809 90.2683 97.5101 90.1376 97.3848C90.0069 97.2584 89.93 97.0866 89.9231 96.9057C89.93 96.7247 90.0069 96.5529 90.1376 96.4266C90.2683 96.3012 90.4426 96.2305 90.6241 96.2305C90.8055 96.2305 90.9799 96.3012 91.1106 96.4266C91.2412 96.5529 91.3182 96.7247 91.325 96.9057Z" fill="#3897A0"/>
<path d="M98.9871 84.4037C98.9801 84.5846 98.9033 84.7565 98.7729 84.8828C98.6425 85.0082 98.4676 85.0789 98.2857 85.0789C98.1047 85.0789 97.9299 85.0082 97.7995 84.8828C97.6691 84.7565 97.5923 84.5846 97.5852 84.4037C97.5923 84.2228 97.6691 84.051 97.7995 83.9246C97.9299 83.7993 98.1047 83.7285 98.2857 83.7285C98.4676 83.7285 98.6425 83.7993 98.7729 83.9246C98.9033 84.051 98.9801 84.2228 98.9871 84.4037Z" fill="#3897A0"/>
<path d="M78.9393 106.122C78.9324 106.303 78.8555 106.475 78.7248 106.602C78.5941 106.727 78.4198 106.798 78.2383 106.798C78.0569 106.798 77.8825 106.727 77.7518 106.602C77.6211 106.475 77.5442 106.303 77.5374 106.122C77.5442 105.942 77.6211 105.77 77.7518 105.643C77.8825 105.518 78.0569 105.447 78.2383 105.447C78.4198 105.447 78.5941 105.518 78.7248 105.643C78.8555 105.77 78.9324 105.942 78.9393 106.122Z" fill="#3897A0"/>
<path d="M184.692 53.2749C188.264 51.4555 189.954 54.9841 193.046 54.8921C190.703 57.5808 186.766 58.5794 184.231 56.1212L184.692 53.2749Z" stroke="#014451" stroke-width="0.768185" stroke-linejoin="round"/>
<path d="M79.1888 100.151L55.5488 91.3751L62.9042 71.5762L94.2826 83.2323" stroke="#014451" stroke-width="0.768185" stroke-linecap="round" stroke-linejoin="round"/>
<path d="M130.731 96.7715L144.403 101.86L137.049 121.639L90.614 104.395" stroke="#014451" stroke-width="0.768185" stroke-linecap="round" stroke-linejoin="round"/>
<path d="M115.713 91.2021L122.637 93.7715" stroke="#014451" stroke-width="0.768185" stroke-linecap="round" stroke-linejoin="round"/>
<path d="M150.125 105.97L144.114 122.158L137.74 119.778L143.75 103.607L150.125 105.97Z" stroke="#014451" stroke-width="0.768185" stroke-linecap="round" stroke-linejoin="round"/>
<path d="M60.6188 74.8024L50.2675 68.6185C49.9949 68.4598 49.6719 68.4117 49.3649 68.484L32.485 70.6926L50.3443 76.9725C50.5863 77.0564 50.7889 77.2262 50.913 77.4506C51.037 77.674 51.0739 77.9358 51.0165 78.1854C50.9803 78.3189 50.917 78.4442 50.8305 78.5523C50.744 78.6605 50.6362 78.7505 50.5137 78.8151C50.3912 78.8798 50.2568 78.9182 50.1186 78.9294C49.9804 78.9395 49.8416 78.9223 49.7106 78.8768L32.0049 71.7711L43.3518 84.6342C43.5397 84.8838 43.8134 85.0546 44.12 85.1143L56.0067 87.1884C56.2901 87.2349 56.581 87.1823 56.83 87.0398C57.0791 86.8963 57.2709 86.6719 57.3732 86.403L61.1414 76.2811C61.2403 76.0123 61.2424 75.7171 61.147 75.4473C61.0515 75.1774 60.8646 74.9489 60.6188 74.8024Z" stroke="#014451" stroke-width="0.768185" stroke-linecap="round" stroke-linejoin="round"/>
<path d="M59.2632 81.3179L83.6056 90.3572" stroke="#014451" stroke-width="0.768185" stroke-linecap="round" stroke-linejoin="round"/>
<path d="M124.221 105.431L140.795 111.596" stroke="#014451" stroke-width="0.768185" stroke-linecap="round" stroke-linejoin="round"/>
<path d="M122.204 104.683L123.049 105.01" stroke="#014451" stroke-width="0.768185" stroke-linecap="round" stroke-linejoin="round"/>
<path d="M119.458 103.665L120.917 104.202" stroke="#014451" stroke-width="0.768185" stroke-linecap="round" stroke-linejoin="round"/>
<path d="M98.2961 95.811L119.171 103.55" stroke="#014451" stroke-width="0.768185" stroke-linecap="round" stroke-linejoin="round"/>
<path d="M136.934 73.458C143.058 75.713 148.458 79.5843 152.558 84.6614C156.658 89.7385 159.307 95.8314 160.223 102.292C161.139 108.754 160.288 115.343 157.76 121.359C155.232 127.377 151.121 132.595 145.864 136.463C140.608 140.332 134.402 142.703 127.906 143.328C121.409 143.951 114.866 142.804 108.969 140.008C103.072 137.211 98.0433 132.87 94.4158 127.445C90.7885 122.02 88.6982 115.713 88.3672 109.196" stroke="#014451" stroke-width="0.768185" stroke-linecap="round" stroke-linejoin="round"/>
<path d="M105.016 69.0407L106.111 63.6836L97.182 59.69C95.9541 59.1456 94.9426 58.2075 94.3074 57.024C93.6724 55.8404 93.4499 54.479 93.6752 53.1548C93.9005 51.8307 94.5607 50.6194 95.5515 49.7124C96.5422 48.8055 97.8066 48.2547 99.1459 48.147L112.709 47.0352" stroke="#014451" stroke-width="0.768185" stroke-linecap="round" stroke-linejoin="round"/>
<path d="M120.553 52.814C121.85 53.5564 123.289 54.0147 124.777 54.1583C125.413 54.7253 126.096 55.237 126.819 55.6876C128.373 56.7486 129.627 58.1932 130.458 59.8813C131.824 62.3759 134.703 68.4071 136.545 72.4977C137.751 75.0479 137.923 77.966 137.026 80.6395L132.455 94.6013C129.144 94.4891 125.941 93.3924 123.257 91.4517L128.691 76.5691L124.989 69.9273L121.744 76.9552" stroke="#014451" stroke-width="0.768185" stroke-linecap="round" stroke-linejoin="round"/>
<path d="M106.976 59.515L98.4497 59.0551L107.206 58.3638L106.976 59.515Z" stroke="#014451" stroke-width="0.768185" stroke-linecap="round" stroke-linejoin="round"/>
<path d="M120.342 46.1116C120.942 44.6316 121.839 43.29 122.977 42.1696C126.473 38.6248 128.919 40.6605 127.773 44.272C127.571 44.7774 128.076 44.7936 128.582 44.7137C130.152 44.4661 129.907 46.9374 127.874 46.6342C126.679 48.0926 125.606 49.6478 124.667 51.2838C124.457 51.7387 124.357 52.2371 124.377 52.7381C124.397 53.239 124.536 53.7279 124.782 54.1645" stroke="#014451" stroke-width="0.768185" stroke-linecap="round" stroke-linejoin="round"/>
<path d="M120.457 48.992C120.104 48.5071 119.958 47.9028 120.048 47.3101" stroke="#014451" stroke-width="0.768185" stroke-linecap="round" stroke-linejoin="round"/>
<path d="M125.536 40.4311C128.716 39.2778 132.005 41.0012 134.456 43.2886C136.155 44.8724 135.743 46.5533 133.957 45.6699C136.158 47.2427 135.726 49.9152 133.38 48.3586C134.14 48.7386 136.11 50.8714 135.32 51.7002C134.889 52.151 133.765 51.777 132.843 50.8916C132.824 50.8724 128.203 46.8717 125.817 49.3845" stroke="#014451" stroke-width="0.768185" stroke-linecap="round" stroke-linejoin="round"/>
<path d="M96.0098 79.68L106.802 79.1797L97.1812 82.2908" stroke="#014451" stroke-width="0.768185" stroke-linecap="round" stroke-linejoin="round"/>
<path d="M126.563 66.5249V72.7472L124.989 69.9251L126.563 66.5249Z" stroke="#014451" stroke-width="0.768185" stroke-linecap="round" stroke-linejoin="round"/>
<path d="M101.58 61.6661L105.016 69.0448L121.743 76.9571L121.724 76.9955C121.59 79.0888 120.13 91.5557 111.527 93.1456C105.171 94.3201 98.526 95.7383 94.2242 96.7177L84.9867 116.421C80.2947 115.54 77.5879 113.877 74.1947 111.331L83.2209 91.1291C83.9269 89.5493 84.9564 88.1342 86.243 86.9759C87.5296 85.8185 89.0448 84.9432 90.6905 84.4075L97.1817 82.295L90.3843 67.1031L76.6913 74.4565C75.2514 72.9979 74.0081 71.3571 72.9929 69.5764C72.1173 68.0301 71.4801 66.3603 71.1028 64.6237H71.122L89.7111 53.582C90.9348 52.8487 92.3635 52.5319 93.7825 52.6794" stroke="#014451" stroke-width="0.768185" stroke-linecap="round" stroke-linejoin="round"/>
<path d="M76.2309 73.977C75.255 74.6492 74.0931 74.9979 72.9084 74.9756C71.6888 74.6249 70.5389 74.0659 69.5092 73.324C65.8583 70.9275 56.2176 70.8456 57.1616 68.2702C57.4295 67.5404 60.7913 66.754 64.613 66.0616C66.4173 65.7352 68.7986 65.5623 71.2184 65.1206C72.1067 68.4519 73.8322 71.5006 76.2309 73.977Z" stroke="#014451" stroke-width="0.768185" stroke-linecap="round" stroke-linejoin="round"/>
<path d="M119.44 51.2781C119.882 51.2013 121.149 51.0285 121.841 50.8364" stroke="#014451" stroke-width="0.768185" stroke-linecap="round" stroke-linejoin="round"/>
<path d="M116.674 49.1265C117.212 49.1649 117.731 49.1841 118.19 49.1841" stroke="#014451" stroke-width="0.768185" stroke-linecap="round" stroke-linejoin="round"/>
<path d="M120.004 53.0391L118.094 53.2746" stroke="#014451" stroke-width="0.768185" stroke-linecap="round" stroke-linejoin="round"/>
<path d="M125.449 47.8785C125.2 47.36 122.858 48.4355 122.05 48.6467C120.793 48.9946 119.496 49.1755 118.191 49.1845C121.782 45.9581 121.052 45.2859 117.634 47.3216C115.667 48.1115 113.57 48.5283 111.45 48.5507C110.652 51.1994 110.692 54.0302 111.565 56.6551C118.456 56.5227 117.047 56.5398 117.428 56.5398C118.482 56.364 119.02 55.2147 118.375 54.9115C119.367 54.68 120.474 53.7612 120.009 53.0395C120.51 52.9151 120.957 52.6343 121.288 52.2381C121.617 51.8419 121.813 51.3508 121.845 50.8361C122.828 50.6379 125.861 48.7326 125.449 47.8785Z" stroke="#014451" stroke-width="0.768185" stroke-linecap="round" stroke-linejoin="round"/>
<path d="M116.981 55.0991C116.981 55.0991 117.986 54.9495 118.37 54.9111" stroke="#014451" stroke-width="0.768185" stroke-linecap="round" stroke-linejoin="round"/>
<path d="M113.966 48.3392C113.643 47.5094 113.172 47.0252 112.705 47.0323C111.238 47.1435 110.841 51.1128 110.863 52.6926C110.884 54.2088 111.347 57.9254 112.757 57.9254C113.2 57.9011 113.627 57.42 113.947 56.6387" stroke="#014451" stroke-width="0.768185" stroke-linecap="round" stroke-linejoin="round"/>
<path d="M123.107 95.6768C122.25 98.0844 121.026 100.344 119.477 102.378C118.606 103.603 119.285 104.183 120.553 103.031C121.691 101.957 122.714 100.766 123.605 99.4793" stroke="#014451" stroke-width="0.768185" stroke-linecap="round" stroke-linejoin="round"/>
<path d="M122.825 100.535C122.221 101.899 121.527 103.22 120.745 104.49C119.9 105.739 120.759 106.215 121.936 104.99C123.238 103.474 124.424 101.861 125.488 100.169" stroke="#014451" stroke-width="0.768185" stroke-linecap="round" stroke-linejoin="round"/>
<path d="M124.342 101.889C123.983 102.918 123.57 103.927 123.107 104.913C122.454 106.258 123.358 106.643 124.355 105.278C125.328 103.83 126.176 102.3 126.89 100.708" stroke="#014451" stroke-width="0.768185" stroke-linecap="round" stroke-linejoin="round"/>
<path d="M126.198 102.129C126.049 102.829 125.864 103.522 125.641 104.203C125.154 105.571 125.872 105.739 126.753 104.356C127.634 102.974 128.385 101.495 129.134 100.055C130.088 98.2454 130.831 96.6059 131.668 94.5732" stroke="#014451" stroke-width="0.768185" stroke-linecap="round" stroke-linejoin="round"/>
<path d="M122.697 96.7888C117.975 99.0539 117.358 98.1028 120.788 95.6001C122.086 94.6055 123.132 93.3208 123.843 91.8491" stroke="#014451" stroke-width="0.768185" stroke-linecap="round" stroke-linejoin="round"/>
<path d="M33.1749 73.1126L33.0597 73.439L29.7949 72.2291L31.0048 68.9644L34.2696 70.1742L34.1574 70.4734" stroke="#014451" stroke-width="0.768185" stroke-linecap="round" stroke-linejoin="round"/>
<path d="M33.8869 71.1919L33.4644 72.3634" stroke="#014451" stroke-width="0.768185" stroke-linecap="round" stroke-linejoin="round"/>
<path d="M30.3275 72.4263L2.62329 96.6757" stroke="#014451" stroke-width="0.768185" stroke-linecap="round" stroke-linejoin="round"/>
<path d="M59.7546 46.6685L33.3188 69.8212" stroke="#014451" stroke-width="0.768185" stroke-linecap="round" stroke-linejoin="round"/>
<path d="M3.90993 97.54C3.76559 97.8099 3.54453 98.0303 3.27471 98.1748C3.00487 98.3183 2.69841 98.379 2.39403 98.3497C2.08966 98.3193 1.80106 98.1991 1.56475 98.005C1.32842 97.8109 1.15498 97.5512 1.06634 97.258C0.977719 96.9659 0.977891 96.6536 1.06683 96.3605C1.15578 96.0684 1.3295 95.8086 1.56603 95.6145C1.80257 95.4205 2.09129 95.3012 2.39569 95.2709C2.70009 95.2415 3.0065 95.3022 3.27617 95.4467C3.63703 95.6408 3.90626 95.9703 4.02502 96.3625C4.14378 96.7547 4.1024 97.1782 3.90993 97.54Z" stroke="#014451" stroke-width="0.768185" stroke-linecap="round" stroke-linejoin="round"/>
<path d="M61.117 47.3983C60.9726 47.668 60.7516 47.8888 60.4817 48.0328C60.2119 48.1768 59.9055 48.2377 59.6011 48.2074C59.2967 48.1773 59.0081 48.0577 58.7718 47.8635C58.5355 47.6693 58.362 47.4094 58.2734 47.1166C58.1847 46.8239 58.1849 46.5115 58.2739 46.2189C58.3628 45.9262 58.5366 45.6665 58.7731 45.4726C59.0096 45.2786 59.2983 45.1593 59.6027 45.1294C59.9072 45.0996 60.2136 45.1607 60.4832 45.305C60.8441 45.4994 61.1133 45.8287 61.2321 46.2209C61.3509 46.6132 61.3094 47.0365 61.117 47.3983Z" stroke="#014451" stroke-width="0.768185" stroke-linecap="round" stroke-linejoin="round"/>
<path d="M184.692 53.2747L184.231 56.117C182.045 56.0856 179.865 55.906 177.703 55.5793C171.306 54.5473 164.586 52.547 164.759 51.4695C164.931 50.392 171.959 50.669 178.336 51.6999C180.491 52.0672 182.615 52.5935 184.692 53.2747Z" stroke="#014451" stroke-width="0.768185" stroke-linecap="round" stroke-linejoin="round"/>
<path d="M179.143 51.8389L178.493 55.698" stroke="#014451" stroke-width="0.768185" stroke-linecap="round" stroke-linejoin="round"/>
<path d="M167.524 9.60538C161.514 5.76445 153.794 7.08957 150.28 12.5629C149.052 14.483 148.455 16.7387 148.572 19.0147L143.923 22.4715L149.655 23.5267C150.755 25.9621 152.54 28.0245 154.792 29.462C160.803 33.3029 168.522 31.9778 172.036 26.5045C175.551 21.0312 173.538 13.4463 167.524 9.60538Z" stroke="#014451" stroke-width="0.768185" stroke-linecap="round" stroke-linejoin="round"/>
<path d="M160.247 20.9545C160.497 20.2065 160.954 19.7416 162.302 18.7854C165.152 16.7487 164.541 14.4987 162.84 13.869C162.537 13.7572 162.214 13.7134 161.893 13.7408C161.572 13.7681 161.262 13.8661 160.983 14.0275C160.704 14.1889 160.464 14.4099 160.28 14.6746C160.096 14.9393 159.974 15.2413 159.92 15.559" stroke="#014451" stroke-width="0.768185" stroke-linecap="round" stroke-linejoin="round"/>
<path d="M160.016 23.6813C159.96 23.8341 159.845 23.9585 159.698 24.0269C159.55 24.0953 159.381 24.1023 159.229 24.0462C159.076 23.9902 158.952 23.8758 158.883 23.7281C158.814 23.5804 158.808 23.4116 158.864 23.2588C158.919 23.1061 159.034 22.9818 159.182 22.9133C159.33 22.8449 159.498 22.8379 159.651 22.8939C159.804 22.95 159.928 23.0644 159.997 23.2121C160.065 23.3598 160.072 23.5286 160.016 23.6813Z" stroke="#014451" stroke-width="0.768185" stroke-linecap="round" stroke-linejoin="round"/>
<path d="M118.076 14.2338C118.239 7.97708 116.54 7.80525 116.808 5.28439C116.884 4.63588 117.09 4.0093 117.414 3.44236C117.737 2.87542 118.173 2.37973 118.693 1.98513C119.213 1.59052 119.807 1.30508 120.441 1.14599C121.074 0.986991 121.733 0.957477 122.378 1.05936C123.704 1.23736 124.911 1.91923 125.748 2.96346C126.584 4.00768 126.986 5.33412 126.871 6.66712C126.591 9.29513 124.828 8.91407 123.702 15.002L118.076 14.2338Z" stroke="#014451" stroke-width="0.768185" stroke-linecap="round" stroke-linejoin="round"/>
<path d="M123.358 19.1886L117.519 18.382L117.827 15.5781L123.664 16.3847L123.358 19.1886Z" stroke="#014451" stroke-width="0.768185" stroke-linecap="round" stroke-linejoin="round"/>
<path d="M121.398 5.0536L120.185 4.89996C120.034 4.87712 119.879 4.885 119.73 4.92321C119.582 4.96142 119.442 5.02914 119.32 5.12233C119.199 5.21553 119.097 5.33227 119.021 5.46559C118.945 5.59901 118.896 5.74628 118.879 5.89861C118.848 6.21366 118.94 6.52862 119.138 6.77626C119.335 7.0238 119.621 7.18441 119.936 7.22373L123.412 7.68464C123.563 7.70748 123.718 7.6996 123.866 7.66139C124.015 7.62319 124.155 7.55546 124.276 7.46227C124.398 7.36908 124.499 7.25233 124.575 7.11891C124.651 6.98559 124.699 6.83832 124.717 6.686C124.748 6.37094 124.656 6.05598 124.458 5.80845C124.261 5.56081 123.975 5.40019 123.66 5.36087L123.104 5.30326C122.953 5.28042 122.798 5.2883 122.649 5.32651C122.501 5.36471 122.361 5.43244 122.239 5.52563C122.118 5.61883 122.016 5.73557 121.94 5.86889C121.864 6.00231 121.816 6.14958 121.798 6.3019L120.896 14.6175" stroke="#014451" stroke-width="0.768185" stroke-linecap="round" stroke-linejoin="round"/>
<path d="M164.241 89.1089L178.913 97.2325L174.611 104.99L158.826 96.2722" stroke="#014451" stroke-width="0.768185" stroke-linecap="round" stroke-linejoin="round"/>
<path d="M170.77 101.648L174.035 95.7534L177.184 97.501L173.92 103.396L170.77 101.648Z" stroke="#014451" stroke-width="0.768185" stroke-linecap="round" stroke-linejoin="round"/>
<path d="M166.718 99.4022L169.983 93.5063L173.132 95.254L169.868 101.149L166.718 99.4022Z" stroke="#014451" stroke-width="0.768185" stroke-linecap="round" stroke-linejoin="round"/>
<path d="M162.667 97.1746L165.931 91.2788L169.08 93.0264L165.835 98.9031L162.667 97.1746Z" stroke="#014451" stroke-width="0.768185" stroke-linecap="round" stroke-linejoin="round"/>
<path d="M162.111 89.147L165.048 90.7794L161.785 96.6752L158.635 94.9276L161.823 89.1662" stroke="#014451" stroke-width="0.768185" stroke-linecap="round" stroke-linejoin="round"/>
<path d="M156.098 89.9347L156.463 89.2817" stroke="#014451" stroke-width="0.768185" stroke-linecap="round" stroke-linejoin="round"/>
<path d="M160.631 89.1855L158 93.9483" stroke="#014451" stroke-width="0.768185" stroke-linecap="round" stroke-linejoin="round"/>
<path d="M91.7854 21.2041L92.2271 23.7775" stroke="#014451" stroke-width="0.768185" stroke-linecap="round" stroke-linejoin="round"/>
<path d="M90.2493 26.6006L87.6951 27.0423" stroke="#014451" stroke-width="0.768185" stroke-linecap="round" stroke-linejoin="round"/>
<path d="M97.6236 25.2944L95.0693 25.7553" stroke="#014451" stroke-width="0.768185" stroke-linecap="round" stroke-linejoin="round"/>
<path d="M93.5339 31.1328L93.073 28.5786" stroke="#014451" stroke-width="0.768185" stroke-linecap="round" stroke-linejoin="round"/>
<path d="M93.0725 28.5785C92.9601 27.9424 92.5999 27.3769 92.0711 27.0062C91.5421 26.6353 90.8877 26.4893 90.2515 26.6004C90.8879 26.488 91.4538 26.1275 91.8246 25.5981C92.1956 25.0689 92.3412 24.4139 92.2295 23.7773C92.3417 24.4136 92.7019 24.9794 93.2307 25.3504C93.7596 25.7215 94.4141 25.8674 95.0506 25.7564C94.4143 25.8688 93.8487 26.2292 93.4778 26.7583C93.1069 27.2874 92.9611 27.942 93.0725 28.5785Z" stroke="#014451" stroke-width="0.768185" stroke-linecap="round" stroke-linejoin="round"/>
<path d="M84.0663 116.221C83.4753 117.832 82.6259 119.337 81.5515 120.675C80.7743 121.497 79.8227 122.133 78.7668 122.538C74.3548 124.357 68.3821 132.982 66.6295 130.546C66.1322 129.854 67.4957 126.361 69.2221 122.48C70.4522 119.716 72.8902 115.548 74.8683 111.88C77.5876 113.97 80.7246 115.45 84.0663 116.221Z" stroke="#014451" stroke-width="0.768185" stroke-linecap="round" stroke-linejoin="round"/>
<path d="M148.666 80.5627L185.421 79.7764L185.614 88.6479L155.733 89.2817" stroke="#014451" stroke-width="0.768185" stroke-linecap="round" stroke-linejoin="round"/>
<path d="M180.603 87.6873L180.469 80.9464L184.078 80.8696L184.213 87.6105L180.603 87.6873Z" stroke="#014451" stroke-width="0.768185" stroke-linecap="round" stroke-linejoin="round"/>
<path d="M175.994 87.7835L175.84 81.0426L179.451 80.9658L179.585 87.7067L175.994 87.7835Z" stroke="#014451" stroke-width="0.768185" stroke-linecap="round" stroke-linejoin="round"/>
<path d="M171.366 87.8797L171.213 81.1388L174.823 81.062L174.977 87.8028L171.366 87.8797Z" stroke="#014451" stroke-width="0.768185" stroke-linecap="round" stroke-linejoin="round"/>
<path d="M166.738 87.9757L166.584 81.2541L170.194 81.1772L170.348 87.8989L166.738 87.9757Z" stroke="#014451" stroke-width="0.768185" stroke-linecap="round" stroke-linejoin="round"/>
<path d="M162.111 88.0911L161.976 81.3503L165.566 81.2734L165.72 87.9951L162.111 88.0911Z" stroke="#014451" stroke-width="0.768185" stroke-linecap="round" stroke-linejoin="round"/>
<path d="M117.423 56.5396C114.64 61.3778 112.625 66.6188 111.45 72.0751" stroke="#014451" stroke-width="0.768185" stroke-linecap="round" stroke-linejoin="round"/>
<path d="M68.3563 100.15L65.3604 106.738" stroke="#014451" stroke-width="0.768185" stroke-linecap="round" stroke-linejoin="round"/>
<path d="M70.1421 104.932L63.5559 101.936" stroke="#014451" stroke-width="0.768185" stroke-linecap="round" stroke-linejoin="round"/>
<path d="M90.3855 67.1034L91.748 66.3716" stroke="#014451" stroke-width="0.768185" stroke-linecap="round" stroke-linejoin="round"/>
<path d="M112.756 57.9224L107.206 58.3641L106.111 63.6828" stroke="#014451" stroke-width="0.768185" stroke-linecap="round" stroke-linejoin="round"/>
</svg>
