<svg width="154" height="144" viewBox="0 0 154 144" fill="none" xmlns="http://www.w3.org/2000/svg">
<path d="M63.831 51.5674C61.4914 53.5246 54.2434 54.9008 47.4389 72.0728L37.4232 63.0663C32.8001 65.4123 29.2181 69.3979 27.377 74.2441L42.4387 87.7784C44.1834 89.3405 46.4765 90.1469 48.815 90.0205C51.1534 89.895 53.3465 88.8463 54.913 87.1055L61.1542 80.1577L58.6746 96.6013L48.5213 107.917C51.0689 112.39 54.9955 115.919 59.7144 117.977L70.4641 106.019C72.0554 104.249 73.1801 102.11 73.7364 99.7956C76.0759 89.9771 75.2808 72.6538 76.7946 57.7297C70.7273 56.5982 68.4795 55.222 63.831 51.5674Z" fill="#134173"/>
<path d="M146.696 52.2555L129.264 70.6507L136.175 40.2214L153.607 21.8262L146.696 52.2555Z" fill="#3897A0"/>
<path d="M91.4315 45.5127C91.2021 45.3598 90.8046 45.4974 90.2847 45.8644L91.4919 46.8583C91.6915 46.1549 91.6914 45.6656 91.4315 45.5127Z" fill="#3897A0"/>
<path d="M80.636 54.916C80.3141 55.7417 80.3568 56.4355 80.6054 56.598C80.8541 56.7606 81.5712 56.598 82.0541 55.9711L80.636 54.916Z" fill="#3897A0"/>
<path d="M87.596 46.1851C87.3667 46.0321 86.9691 46.1698 86.4492 46.5368L87.6564 47.5307C87.8536 46.8426 87.8375 46.3533 87.596 46.1851Z" fill="#3897A0"/>
<path d="M51.8279 104.154L48.4478 107.915C50.9953 112.388 54.9219 115.918 59.6408 117.975L63.1731 114.046C58.5285 111.893 54.5932 108.462 51.8279 104.154Z" fill="#3897A0"/>
<path d="M71.2769 48.6929L76.9346 57.4853L78.4331 54.7634L71.2769 48.6929Z" fill="#3897A0"/>
<path d="M77.0737 26.5215L77.8536 28.2035L78.2817 27.0567L77.0737 26.5215Z" fill="#3897A0"/>
<path d="M73.0208 66.9507L61.1396 80.1622L59.9316 88.2665L73.0208 66.9507Z" fill="#3897A0"/>
<path d="M44.151 117.763C43.157 118.834 42.1325 119.904 41.0774 121.005C40.2364 125.975 40.634 137.382 42.2396 142.688C46.505 135.593 48.0502 131.099 50.207 123.788C47.8834 122.111 45.8395 120.078 44.151 117.763Z" fill="#3897A0"/>
<path d="M27.3168 59.1215C26.5828 58.3875 25.7418 57.4853 24.6255 56.2773C15.9692 57.5006 6.4436 60.3907 2.40674 62.302C8.56391 64.6304 15.1594 65.5702 21.7218 65.0544L22.0582 65.3603C23.5016 63.0384 25.2727 60.937 27.3168 59.1215Z" fill="#3897A0"/>
<path d="M40.7263 65.9567L37.4266 62.979C32.807 65.3295 29.2263 69.3135 27.3804 74.1568L30.7291 77.1692C33.0459 72.6365 36.4883 68.776 40.7263 65.9567Z" fill="#3897A0"/>
<path d="M83.8003 16.5666C83.8655 16.1961 83.7963 15.8146 83.6055 15.4902C83.4156 15.1659 83.1154 14.9199 82.7605 14.796C82.9891 14.5847 83.1508 14.3113 83.2265 14.0092C83.3021 13.7071 83.2876 13.3896 83.1846 13.0956C83.0824 12.8017 82.8957 12.5441 82.6494 12.3545C82.4024 12.1649 82.1054 12.0515 81.7947 12.0283C81.9211 11.7588 81.971 11.4594 81.9372 11.1635C81.9042 10.8676 81.7891 10.5867 81.6056 10.3522C81.4221 10.1176 81.1775 9.93858 80.8982 9.83501C80.6189 9.73135 80.3163 9.7072 80.0242 9.76523C80.062 9.4685 80.0153 9.16711 79.8898 8.89549C79.7642 8.62387 79.5655 8.39289 79.3152 8.2288C79.0649 8.0647 78.7735 7.97416 78.475 7.96732C78.1756 7.96047 77.881 8.03774 77.6235 8.19024C77.5688 7.88547 77.4278 7.60282 77.2167 7.37627C77.0056 7.14972 76.7335 6.98893 76.4334 6.91303C76.1332 6.83714 75.8175 6.84954 75.524 6.94861C75.2307 7.04768 74.9721 7.22924 74.7793 7.47156C74.6335 7.17966 74.4058 6.93653 74.124 6.77187C73.8422 6.60721 73.5186 6.52818 73.1927 6.54436C72.8667 6.56061 72.5526 6.67135 72.2885 6.86322C72.0244 7.055 71.822 7.31954 71.7058 7.62447C71.5211 7.42971 71.2902 7.28453 71.0346 7.20236C70.779 7.12027 70.5068 7.10369 70.2431 7.15439C69.9795 7.20509 69.7328 7.32123 69.5259 7.49233C69.3189 7.66335 69.1583 7.8837 69.0589 8.1331C69.0852 7.75075 69.0016 7.36887 68.8183 7.03239C68.6349 6.69582 68.3592 6.41873 68.0236 6.23355C67.688 6.04844 67.3067 5.96297 66.9241 5.9872C66.5417 6.0115 66.1741 6.14454 65.8646 6.3706C65.6952 5.97955 65.4104 5.64951 65.0483 5.42465C64.6862 5.19987 64.2641 5.09098 63.8385 5.11255C63.4127 5.1342 63.0038 5.28525 62.6664 5.54561C62.3289 5.80596 62.079 6.16313 61.9501 6.56939C61.6001 6.35773 61.1937 6.25833 60.7855 6.28465C60.3773 6.31097 59.987 6.46171 59.6671 6.7165C59.3471 6.97138 59.113 7.31817 58.9961 7.71018C58.8792 8.10212 58.8853 8.52053 59.0134 8.90893C58.604 8.95528 58.2188 9.12671 57.9103 9.39993C57.6018 9.67308 57.3851 10.0347 57.2895 10.4355C57.1939 10.8363 57.2243 11.2568 57.3764 11.6398C57.5285 12.0228 57.7949 12.3495 58.1394 12.5756C57.8168 12.8368 57.5832 13.1916 57.4709 13.5912C57.3586 13.9908 57.3731 14.4154 57.5124 14.8064C57.6517 15.1974 57.9089 15.5355 58.2485 15.7742C58.5881 16.0128 58.9935 16.14 59.4086 16.1384C59.3253 16.5371 59.3657 16.9517 59.5244 17.3268C59.6832 17.7019 59.9526 18.0195 60.2967 18.2373C60.6409 18.4552 61.0433 18.5627 61.4502 18.5455C61.8571 18.5284 62.2492 18.3875 62.5738 18.1415C62.7024 18.4714 62.9187 18.7598 63.1992 18.9757C63.4798 19.1916 63.8139 19.3267 64.1657 19.3664C64.1011 19.5948 64.088 19.8347 64.1276 20.0686C64.167 20.3027 64.258 20.5249 64.394 20.7194C64.5299 20.9139 64.7074 21.0757 64.9136 21.1932C65.1198 21.3107 65.3496 21.3808 65.5862 21.3985C65.4584 21.669 65.4089 21.9697 65.4433 22.2668C65.4778 22.5639 65.5947 22.8454 65.781 23.0794C65.9672 23.3134 66.2153 23.4905 66.497 23.5907C66.7789 23.6909 67.0831 23.7102 67.3752 23.6463C67.3401 23.9436 67.3891 24.2449 67.5166 24.5157C67.644 24.7866 67.8449 25.0163 68.0963 25.1787C68.3477 25.3412 68.6397 25.4298 68.939 25.4347C69.2384 25.4395 69.533 25.3603 69.7896 25.206C69.8442 25.5111 69.986 25.7939 70.1979 26.0201C70.4097 26.2463 70.6826 26.4063 70.9834 26.4807C71.2843 26.5551 71.6003 26.5407 71.8932 26.4394C72.186 26.338 72.4433 26.1539 72.6338 25.9094C72.8266 26.186 73.0766 26.4177 73.3668 26.5892C73.657 26.7607 73.9806 26.8679 74.3158 26.9033C74.828 25.978 75.1747 24.9703 75.3403 23.9256C75.5104 22.8619 75.3116 21.772 74.7769 20.8368C72.4986 20.0875 73.5231 17.4116 75.0675 18.4514C75.8014 18.956 76.0799 18.9238 76.1378 18.4361C76.1421 18.2952 76.1844 18.1581 76.2604 18.0393C76.3364 17.9205 76.4431 17.8246 76.5692 17.7617C76.7051 18.0485 76.9228 18.2887 77.1949 18.452C77.4666 18.6155 77.7812 18.6948 78.0983 18.6801C78.4154 18.6654 78.7212 18.5573 78.9764 18.3694C79.2323 18.1815 79.427 17.9222 79.5357 17.6241C79.6838 17.7805 79.8616 17.9057 80.0588 17.9921C80.256 18.0786 80.4684 18.1246 80.6833 18.1275C80.899 18.1303 81.1123 18.09 81.3119 18.0087C81.5115 17.9275 81.6925 17.8071 81.8446 17.6546C82.2229 18.5459 82.5102 19.4732 82.7009 20.4223C82.9303 20.293 83.1251 20.1093 83.2667 19.8872C83.4092 19.6652 83.4945 19.4117 83.5154 19.149C83.5363 18.8862 83.4929 18.6223 83.3882 18.3805C83.2836 18.1386 83.1211 17.9261 82.915 17.7617C83.1452 17.6449 83.3448 17.4761 83.4985 17.2687C83.6522 17.0613 83.756 16.8209 83.8003 16.5666Z" fill="#3897A0"/>
<path d="M117.197 12.193C117.094 11.573 116.81 10.9975 116.38 10.5392C115.949 10.0809 115.393 9.76031 114.782 9.6181C114.169 9.47589 113.529 9.5183 112.941 9.74011C112.353 9.96191 111.844 10.353 111.478 10.8642C111.113 11.3752 110.907 11.9832 110.886 12.6113C110.866 13.2394 111.033 13.8593 111.365 14.3927C111.698 14.9261 112.181 15.349 112.753 15.608C113.326 15.8669 113.962 15.9503 114.582 15.8475C115.413 15.7086 116.155 15.246 116.645 14.5608C117.135 13.8757 117.334 13.0242 117.197 12.193Z" fill="#3897A0"/>
<path d="M22.2692 83.481L15.0977 85.7891L18.0609 103.283L22.2692 83.481Z" fill="#3897A0"/>
<path d="M121.861 53.2341L117.747 57.0111C119.19 57.3165 120.592 57.7939 121.922 58.4331C122.485 58.673 123.003 59.0094 123.451 59.4271C124.078 60.1457 120.715 59.1212 119.062 58.9377H119.047C119.381 59.1137 119.685 59.3406 119.949 59.6105C120.492 60.231 116.343 58.8267 115.974 59.0906C117.564 59.8093 120.026 61.1702 120.622 62.2294C121.326 63.4985 117.717 60.9747 115.377 60.8982C116.861 61.5863 118.481 62.5505 119.062 63.6208C119.858 65.0695 116.983 62.4136 113.558 62.3058H113.542C116.815 64.2937 118.344 65.9274 113.695 63.9114C112.843 63.5301 111.934 63.2924 111.004 63.208L101.661 71.7517L129.246 70.6813L133.298 52.8213L121.861 53.2341Z" fill="#3897A0"/>
<path d="M146.697 52.2555L129.266 70.6507L136.177 40.2214L153.609 21.8262L146.697 52.2555Z" stroke="#014451" stroke-width="0.763043" stroke-linejoin="round"/>
<path d="M121.861 53.2346L117.748 57.0115C119.191 57.317 120.593 57.7944 121.922 58.4336C122.486 58.6735 123.003 59.0099 123.451 59.4275C124.078 60.1462 120.715 59.1217 119.063 58.9382H119.048C119.382 59.1141 119.686 59.3411 119.95 59.611C120.492 60.2315 116.344 58.8272 115.974 59.0911C117.564 59.8098 120.026 61.1707 120.623 62.2298C121.326 63.499 117.717 60.9752 115.378 60.8987C116.861 61.5868 118.482 62.5509 119.063 63.6213C119.858 65.07 116.983 62.4141 113.558 62.3063H113.543C116.815 64.2941 118.344 65.9279 113.696 63.9119C112.843 63.5306 111.934 63.2929 111.004 63.2085L101.662 71.7522L129.247 70.6818L133.299 52.8218L121.861 53.2346Z" stroke="#014451" stroke-width="0.763043" stroke-linejoin="round"/>
<path d="M83.8013 16.5666C83.8665 16.1961 83.7972 15.8146 83.6065 15.4902C83.4166 15.1659 83.1164 14.9199 82.7615 14.796C82.99 14.5847 83.1518 14.3113 83.2275 14.0092C83.3031 13.7071 83.2886 13.3896 83.1856 13.0956C83.0834 12.8017 82.8967 12.5441 82.6504 12.3545C82.4033 12.1649 82.1064 12.0515 81.7957 12.0283C81.9221 11.7588 81.972 11.4594 81.9382 11.1635C81.9052 10.8676 81.7901 10.5867 81.6066 10.3522C81.4231 10.1176 81.1784 9.93858 80.8992 9.83501C80.6199 9.73135 80.3173 9.7072 80.0252 9.76523C80.063 9.4685 80.0163 9.16711 79.8908 8.89549C79.7652 8.62387 79.5664 8.39289 79.3161 8.2288C79.0659 8.0647 78.7745 7.97416 78.4759 7.96732C78.1766 7.96047 77.882 8.03774 77.6245 8.19024C77.5697 7.88547 77.4287 7.60282 77.2176 7.37627C77.0065 7.14972 76.7345 6.98893 76.4343 6.91303C76.1341 6.83714 75.8184 6.84954 75.525 6.94861C75.2317 7.04768 74.9731 7.22924 74.7803 7.47156C74.6345 7.17966 74.4067 6.93653 74.125 6.77187C73.8432 6.60721 73.5196 6.52818 73.1937 6.54436C72.8677 6.56061 72.5535 6.67135 72.2895 6.86322C72.0254 7.055 71.823 7.31954 71.7068 7.62447C71.522 7.42971 71.2912 7.28453 71.0356 7.20236C70.78 7.12027 70.5078 7.10369 70.2441 7.15439C69.9804 7.20509 69.7338 7.32123 69.5269 7.49233C69.3199 7.66335 69.1593 7.8837 69.0598 8.1331C69.0862 7.75075 69.0026 7.36887 68.8193 7.03239C68.6359 6.69582 68.3601 6.41873 68.0246 6.23355C67.689 6.04844 67.3076 5.96297 66.9251 5.9872C66.5427 6.0115 66.175 6.14454 65.8656 6.3706C65.6962 5.97955 65.4114 5.64951 65.0493 5.42465C64.6872 5.19987 64.2651 5.09098 63.8394 5.11255C63.4137 5.1342 63.0048 5.28525 62.6673 5.54561C62.3299 5.80596 62.08 6.16313 61.9511 6.56939C61.6011 6.35773 61.1946 6.25833 60.7865 6.28465C60.3783 6.31097 59.9879 6.46171 59.668 6.7165C59.3481 6.97138 59.1139 7.31817 58.9971 7.71018C58.8802 8.10212 58.8863 8.52053 59.0144 8.90893C58.605 8.95528 58.2198 9.12671 57.9112 9.39993C57.6028 9.67308 57.386 10.0347 57.2905 10.4355C57.1949 10.8363 57.2252 11.2568 57.3773 11.6398C57.5294 12.0228 57.7959 12.3495 58.1404 12.5756C57.8178 12.8368 57.5842 13.1916 57.4719 13.5912C57.3596 13.9908 57.374 14.4154 57.5134 14.8064C57.6527 15.1974 57.9099 15.5355 58.2495 15.7742C58.5891 16.0128 58.9945 16.14 59.4095 16.1384C59.3262 16.5371 59.3666 16.9517 59.5254 17.3268C59.6841 17.7019 59.9536 18.0195 60.2977 18.2373C60.6418 18.4552 61.0443 18.5627 61.4512 18.5455C61.8581 18.5284 62.2501 18.3875 62.5748 18.1415C62.7034 18.4714 62.9196 18.7598 63.2002 18.9757C63.4808 19.1916 63.8149 19.3267 64.1667 19.3664C64.1021 19.5948 64.089 19.8347 64.1285 20.0686C64.168 20.3027 64.259 20.5249 64.395 20.7194C64.5309 20.9139 64.7084 21.0757 64.9146 21.1932C65.1208 21.3107 65.3505 21.3808 65.5871 21.3985C65.4593 21.669 65.4098 21.9697 65.4443 22.2668C65.4787 22.5639 65.5957 22.8454 65.782 23.0794C65.9682 23.3134 66.2163 23.4905 66.498 23.5907C66.7799 23.6909 67.0841 23.7102 67.3762 23.6463C67.3411 23.9436 67.39 24.2449 67.5175 24.5157C67.645 24.7866 67.8459 25.0163 68.0973 25.1787C68.3487 25.3412 68.6407 25.4298 68.94 25.4347C69.2394 25.4395 69.534 25.3603 69.7906 25.206C69.8452 25.5111 69.987 25.7939 70.1989 26.0201C70.4107 26.2463 70.6836 26.4063 70.9844 26.4807C71.2853 26.5551 71.6013 26.5407 71.8942 26.4394C72.187 26.338 72.4442 26.1539 72.6347 25.9094C72.8276 26.186 73.0775 26.4177 73.3677 26.5892C73.658 26.7607 73.9816 26.8679 74.3168 26.9033C74.829 25.978 75.1757 24.9703 75.3413 23.9256C75.5114 22.8619 75.3126 21.772 74.7779 20.8368C72.4995 20.0875 73.524 17.4116 75.0684 18.4514C75.8024 18.956 76.0809 18.9238 76.1388 18.4361C76.1431 18.2952 76.1854 18.1581 76.2614 18.0393C76.3374 17.9205 76.4441 17.8246 76.5702 17.7617C76.7061 18.0485 76.9238 18.2887 77.1959 18.452C77.4675 18.6155 77.7822 18.6948 78.0993 18.6801C78.4164 18.6654 78.7222 18.5573 78.9773 18.3694C79.2333 18.1815 79.428 17.9222 79.5367 17.6241C79.6847 17.7805 79.8626 17.9057 80.0598 17.9921C80.257 18.0786 80.4694 18.1246 80.6843 18.1275C80.9 18.1303 81.1133 18.09 81.3128 18.0087C81.5124 17.9275 81.6935 17.8071 81.8456 17.6546C82.2239 18.5459 82.5112 19.4732 82.7019 20.4223C82.9313 20.293 83.126 20.1093 83.2677 19.8872C83.4101 19.6652 83.4954 19.4117 83.5164 19.149C83.5373 18.8862 83.4938 18.6223 83.3892 18.3805C83.2846 18.1386 83.122 17.9261 82.916 17.7617C83.1462 17.6449 83.3458 17.4761 83.4995 17.2687C83.6532 17.0613 83.757 16.8209 83.8013 16.5666Z" stroke="#014451" stroke-width="0.763043" stroke-linejoin="round"/>
<path d="M82.4102 26.0316L128.054 18.3555" stroke="#014451" stroke-width="0.763043" stroke-linecap="round" stroke-linejoin="round"/>
<path d="M7.51416 38.6005L74.0305 27.438" stroke="#014451" stroke-width="0.763043" stroke-linecap="round" stroke-linejoin="round"/>
<path d="M77.7617 33.2188L91.4473 45.5128" stroke="#014451" stroke-width="0.763043" stroke-linecap="round" stroke-linejoin="round"/>
<path d="M91.5086 46.8579C91.6921 46.1698 91.6929 45.6789 91.4475 45.5123C91.2189 45.3578 90.8036 45.4946 90.2853 45.864C89.5087 46.4772 88.8061 47.1795 88.1929 47.9565" stroke="#014451" stroke-width="0.763043" stroke-linecap="round" stroke-linejoin="round"/>
<path d="M34.3185 64.9781C29.1501 60.8648 28.7219 60.7425 24.6239 56.2622C15.9692 57.4855 6.4436 60.3755 2.40674 62.2869C8.5685 64.6151 15.168 65.5549 21.7347 65.0393L28.7533 71.3545" stroke="#014451" stroke-width="0.763043" stroke-linecap="round" stroke-linejoin="round"/>
<path d="M73.1899 33.249L87.6095 46.1853" stroke="#014451" stroke-width="0.763043" stroke-linecap="round" stroke-linejoin="round"/>
<path d="M80.6059 56.5984L71.2783 48.6929L76.9272 57.4828" stroke="#014451" stroke-width="0.763043" stroke-linecap="round" stroke-linejoin="round"/>
<path d="M113.895 58.3228C114.458 58.4451 119.617 60.2478 120.7 62.1761C121.424 63.4598 117.764 60.907 115.394 60.8305" stroke="#014451" stroke-width="0.763043" stroke-linecap="round" stroke-linejoin="round"/>
<path d="M113.39 60.0078C114.827 60.5277 118.234 61.9667 119.124 63.5859C119.929 65.0555 117.031 62.3626 113.558 62.2556" stroke="#014451" stroke-width="0.763043" stroke-linecap="round" stroke-linejoin="round"/>
<path d="M112.992 61.9354C116.631 64.0609 118.637 66.0286 113.695 63.8927C111.142 62.7893 92.529 62.226 92.529 62.226C90.8953 62.057 89.3356 61.4604 88.0061 60.4965L80.6357 54.8999" stroke="#014451" stroke-width="0.763043" stroke-linecap="round" stroke-linejoin="round"/>
<path d="M86.4468 46.5371L93.9394 53.1887C93.9394 53.1887 112.717 56.7057 114.154 57.1161C115.592 57.5266 119.034 58.399 120.041 59.5474C120.577 60.1583 117.627 59.104 115.836 59.0122" stroke="#014451" stroke-width="0.763043" stroke-linecap="round" stroke-linejoin="round"/>
<path d="M87.6708 47.5311C87.8543 46.843 87.8551 46.3521 87.6097 46.1855C87.3811 46.031 86.9658 46.1686 86.4475 46.5372C84.3317 48.043 81.1874 52.7108 80.5299 55.2684C80.3689 55.8962 80.3979 56.462 80.6063 56.5988C80.8478 56.7597 81.5391 56.5682 82.055 55.9871" stroke="#014451" stroke-width="0.763043" stroke-linecap="round" stroke-linejoin="round"/>
<path d="M57.2407 61.5831C60.9325 61.7385 64.564 60.6091 67.5164 58.3872" stroke="#014451" stroke-width="0.763043" stroke-linecap="round" stroke-linejoin="round"/>
<path d="M76.7988 57.7149L78.435 54.7637" stroke="#014451" stroke-width="0.763043" stroke-linecap="round" stroke-linejoin="round"/>
<path d="M77.5171 31.7646C76.5078 33.2325 74.6576 32.5903 72.104 30.1284" stroke="#014451" stroke-width="0.763043" stroke-linecap="round" stroke-linejoin="round"/>
<path d="M61.1382 80.1791L73.0218 66.9507L59.9326 88.2665" stroke="#014451" stroke-width="0.763043" stroke-linecap="round" stroke-linejoin="round"/>
<path d="M42.4387 87.762C43.3018 88.5371 44.3092 89.135 45.4033 89.5205C46.4974 89.906 47.6568 90.0726 48.8153 90.0098C49.9738 89.9479 51.1085 89.6573 52.1548 89.1567C53.2011 88.6554 54.1383 87.9528 54.913 87.0892L61.1341 80.1793L58.6746 96.5971L48.5213 107.913C51.0689 112.386 54.9955 115.915 59.7144 117.972L70.4641 106C72.0554 104.23 73.1801 102.091 73.7364 99.776C76.0767 89.9575 75.2808 72.619 76.7946 57.7102C70.7087 56.5786 68.461 55.2024 63.8277 51.5479C60.8339 53.7361 54.1517 55.3602 47.4365 72.0581L37.4232 63.0516C32.8037 65.4021 29.2229 69.3861 27.377 74.2294L42.4387 87.762Z" stroke="#014451" stroke-width="0.763043" stroke-linecap="round" stroke-linejoin="round"/>
<path d="M78.2602 27.0322C77.8554 26.8812 77.4602 26.7054 77.0771 26.5059L77.8538 28.1959" stroke="#014451" stroke-width="0.763043" stroke-linecap="round" stroke-linejoin="round"/>
<path d="M78.8939 38.3715C77.7672 35.1201 76.832 30.1489 78.2573 27.0319C84.047 29.1558 83.5569 21.6495 81.8604 17.6826M63.8281 51.5371C64.4788 49.4924 64.9194 47.3867 65.1432 45.2525C65.5327 41.9691 66.4856 38.7774 67.9599 35.8179C69.4005 32.791 72.7082 30 74.3983 26.7808C74.9048 25.8964 75.2264 24.9185 75.3439 23.9061C75.5145 22.8424 75.3156 21.7524 74.7806 20.8173C72.5022 20.068 73.5315 17.3856 75.0711 18.4319C75.8075 18.9333 76.0956 18.9059 76.1415 18.4166C76.1829 18.1593 76.2345 17.9145 76.2954 17.6826" stroke="#014451" stroke-width="0.763043" stroke-linecap="round" stroke-linejoin="round"/>
<path d="M51.9043 104.154C54.67 108.463 58.6061 111.894 63.2519 114.047" stroke="#014451" stroke-width="0.763043" stroke-linecap="round" stroke-linejoin="round"/>
<path d="M30.7109 77.1801C33.2798 72.5123 36.491 68.6782 40.7113 66.0176" stroke="#014451" stroke-width="0.763043" stroke-linecap="round" stroke-linejoin="round"/>
<path d="M50.3453 110.684C47.1149 114.627 44.2249 117.722 41.0789 121.005C40.2379 125.975 40.6355 137.382 42.241 142.688C46.5065 135.593 48.0517 131.082 50.2085 123.775L56.7531 116.497" stroke="#014451" stroke-width="0.763043" stroke-linecap="round" stroke-linejoin="round"/>
<path d="M22.0713 65.3446C23.5148 63.0268 25.2865 60.9305 27.3314 59.1211" stroke="#014451" stroke-width="0.763043" stroke-linecap="round" stroke-linejoin="round"/>
<path d="M119.125 58.8769C120.791 59.0451 124.183 60.0841 123.559 59.3662C123.106 58.944 122.584 58.6026 122.015 58.357C119.858 57.3027 117.794 56.9655 115.501 56.3386L97.7148 52.0265L90.293 45.8569" stroke="#014451" stroke-width="0.763043" stroke-linecap="round" stroke-linejoin="round"/>
<path d="M62.2411 60.9873L48.525 81.141L35.2676 70.636" stroke="#014451" stroke-width="0.763043" stroke-linecap="round" stroke-linejoin="round"/>
<path d="M99.7346 15.0983C99.8376 15.7182 99.7539 16.3547 99.4947 16.9274C99.2364 17.4999 98.8131 17.9828 98.2795 18.3151C97.7467 18.6473 97.1262 18.8139 96.4985 18.7938C95.8699 18.7736 95.2623 18.5678 94.7513 18.2021C94.2402 17.8365 93.8491 17.3274 93.627 16.7394C93.4056 16.1515 93.363 15.511 93.5054 14.8989C93.6471 14.2868 93.9682 13.7306 94.4261 13.3007C94.8849 12.8708 95.4603 12.5864 96.08 12.4835C96.9113 12.3461 97.7636 12.5443 98.4485 13.0346C99.1334 13.5248 99.5961 14.2671 99.7346 15.0983Z" stroke="#014451" stroke-width="0.763043" stroke-linecap="round" stroke-linejoin="round"/>
<path d="M108.389 13.6613C108.492 14.2812 108.409 14.9177 108.15 15.4904C107.891 16.0629 107.468 16.5458 106.934 16.8781C106.401 17.2103 105.781 17.3769 105.153 17.3568C104.525 17.3366 103.917 17.1307 103.406 16.7651C102.895 16.3995 102.504 15.8904 102.282 15.3024C102.06 14.7145 102.018 14.074 102.16 13.4619C102.302 12.8498 102.623 12.2936 103.081 11.8637C103.54 11.4338 104.115 11.1494 104.735 11.0465C105.566 10.9091 106.418 11.1072 107.103 11.5976C107.788 12.0878 108.251 12.8301 108.389 13.6613Z" stroke="#014451" stroke-width="0.763043" stroke-linecap="round" stroke-linejoin="round"/>
<path d="M117.196 12.1927C117.299 12.8126 117.216 13.4491 116.957 14.0217C116.698 14.5943 116.275 15.0772 115.741 15.4094C115.209 15.7417 114.588 15.9082 113.96 15.8881C113.332 15.868 112.724 15.6621 112.213 15.2964C111.702 14.9307 111.311 14.4218 111.089 13.8338C110.868 13.2459 110.825 12.6054 110.967 11.9932C111.109 11.3811 111.43 10.825 111.888 10.3951C112.347 9.96515 112.922 9.68074 113.542 9.57789C114.373 9.44018 115.226 9.63832 115.91 10.1286C116.596 10.619 117.059 11.3614 117.196 12.1927Z" stroke="#014451" stroke-width="0.763043" stroke-linecap="round" stroke-linejoin="round"/>
<path d="M26.1845 1L20.3433 9.22662" stroke="#014451" stroke-width="0.763043" stroke-linecap="round" stroke-linejoin="round"/>
<path d="M27.3769 8.03359L19.1655 2.19238" stroke="#014451" stroke-width="0.763043" stroke-linecap="round" stroke-linejoin="round"/>
<path d="M2.98784 89.6735L2.80435 89.7347L8.44677 94.7349L1 102.916L4.99098 106.478L12.4378 98.2824L18.0641 103.283L22.2699 83.4814L2.98784 89.6735Z" stroke="#014451" stroke-width="0.763043" stroke-linecap="round" stroke-linejoin="round"/>
<path d="M101.463 100.958L89.6274 97.288L99.582 90.3765" stroke="#014451" stroke-width="0.763043" stroke-linecap="round" stroke-linejoin="round"/>
<path d="M111.188 99.3985L121.066 92.0893L109.308 88.8018" stroke="#014451" stroke-width="0.763043" stroke-linecap="round" stroke-linejoin="round"/>
<path d="M107.487 84.4434L103.16 105.515" stroke="#014451" stroke-width="0.763043" stroke-linecap="round" stroke-linejoin="round"/>
<path d="M11.7544 64.6953L19.6869 113.604C19.9703 115.273 20.5797 116.868 21.4802 118.3C22.3808 119.733 23.5547 120.974 24.935 121.952C26.3153 122.93 27.8749 123.627 29.5247 124.003C31.1745 124.378 32.882 124.425 34.5498 124.14L40.9096 123.07" stroke="#014451" stroke-width="0.763043" stroke-linecap="round" stroke-linejoin="round"/>
<path d="M135.471 64.1621L140.195 93.2824C140.48 94.95 140.433 96.6577 140.058 98.3076C139.683 99.9574 138.986 101.517 138.008 102.897C137.029 104.278 135.788 105.452 134.356 106.352C132.923 107.253 131.328 107.862 129.66 108.145L52.6494 121.096" stroke="#014451" stroke-width="0.763043" stroke-linecap="round" stroke-linejoin="round"/>
<path d="M57.5335 13.4775L17.4846 20.206C15.8166 20.4895 14.2207 21.0989 12.7883 21.9994C11.356 22.8998 10.1151 24.0738 9.13667 25.4542C8.15828 26.8345 7.46141 28.3941 7.08605 30.0439C6.71069 31.6936 6.66409 33.4012 6.94899 35.0689L10.8719 59.2561" stroke="#014451" stroke-width="0.763043" stroke-linecap="round" stroke-linejoin="round"/>
<path d="M80.04 9.69581L112.595 4.22634C114.262 3.94144 115.97 3.98804 117.62 4.36339C119.27 4.73875 120.829 5.43562 122.21 6.41401C123.59 7.39248 124.764 8.63331 125.665 10.0657C126.565 11.4981 127.174 13.0939 127.458 14.7619L133.495 51.9777" stroke="#014451" stroke-width="0.763043" stroke-linecap="round" stroke-linejoin="round"/>
<path d="M44.1519 117.763C45.8361 120.077 47.8805 122.106 50.2071 123.773" stroke="#014451" stroke-width="0.763043" stroke-linecap="round" stroke-linejoin="round"/>
</svg>
