<svg width="32" height="32" viewBox="0 0 32 32" fill="none" xmlns="http://www.w3.org/2000/svg">
<g clip-path="url(#clip0_664_23192)">
<path d="M16 0.799805C7.60645 0.799805 0.800049 7.60621 0.800049 15.9998C0.800049 24.3934 7.60645 31.1998 16 31.1998C24.3936 31.1998 31.2 24.3934 31.2 15.9998C31.2 7.60621 24.3936 0.799805 16 0.799805ZM17.8657 24.5246C17.8657 25.1166 17.3825 25.5998 16.7873 25.5998H15.2544C14.6592 25.5998 14.176 25.1166 14.176 24.5246V23.1006C14.176 22.5054 14.6592 22.0222 15.2544 22.0222H16.7873C17.3825 22.0222 17.8657 22.5054 17.8657 23.1006V24.5246ZM22.0992 14.3486C21.7728 15.0622 21.3952 15.6254 20.9792 16.0158C20.5568 16.4126 19.6704 17.1102 18.3136 18.1022C17.9328 18.3774 17.6897 18.6462 17.5873 18.9086C17.5136 19.0942 17.4625 19.4334 17.4368 19.9262C17.4144 20.3166 17.0881 20.6206 16.6944 20.6206H15.3697C14.96 20.6206 14.6273 20.2878 14.6273 19.8782V18.6878C14.6273 18.0414 14.7552 17.5262 15.0176 17.155C15.28 16.787 15.856 16.2558 16.7425 15.571C18.0992 14.531 18.7712 13.4238 18.7712 12.2622C18.7712 11.3886 18.5089 10.691 17.9776 10.1726C17.4528 9.6574 16.7617 9.40141 15.9104 9.40141C14.1281 9.40141 13.0049 10.5214 12.5536 12.7678C12.4736 13.1614 12.0928 13.4174 11.6992 13.347L10.0225 13.0494C9.61284 12.9758 9.34726 12.5854 9.41765 12.1758C9.70886 10.4958 10.4257 9.1518 11.5712 8.1374C12.8833 6.9758 14.4544 6.3998 16.2849 6.3998C18.1057 6.3998 19.616 6.9374 20.8065 8.019C21.9233 9.0334 22.5633 10.4414 22.592 11.9486C22.6081 12.7902 22.4449 13.5934 22.0992 14.3486Z" fill="#134173"/>
</g>
<defs>
<clipPath id="clip0_664_23192">
<rect width="32" height="32" fill="white"/>
</clipPath>
</defs>
</svg>
