<svg width="32" height="32" viewBox="0 0 32 32" fill="none" xmlns="http://www.w3.org/2000/svg">
<g clip-path="url(#clip0_652_18843)">
<path d="M16.0723 0.000167888C7.23581 -0.039883 0.0399906 7.09099 0.000166001 15.9275C-0.0396586 24.7641 7.09121 31.9599 15.9275 31.9997C24.7638 32.0395 31.9599 24.9087 31.9997 16.0723C31.9997 16.0484 31.9999 16.0242 31.9999 16.0002C31.9644 7.20662 24.8657 0.0755179 16.0723 0.000167888ZM15.7669 4.02562C18.8811 3.77197 21.6114 6.09085 21.865 9.20509C22.1187 12.3193 19.7998 15.0496 16.6856 15.3032C16.5317 15.3146 16.3801 15.3213 16.233 15.3213H16.1244C13.0009 15.2589 10.5193 12.6762 10.5818 9.55242C10.6397 6.65292 12.8812 4.26684 15.7714 4.02789L15.7669 4.02562ZM16.0723 27.3072H15.9909C15.9117 27.3072 15.8325 27.3072 15.7533 27.3072H15.4342H15.3053C12.184 27.1214 9.28044 25.6461 7.29056 23.2342C6.97943 22.8568 6.9344 22.326 7.17743 21.9015C8.99216 18.6806 12.3958 16.6815 16.0927 16.6654H16.2104C19.7944 16.724 23.0901 18.641 24.913 21.7272C25.1616 22.159 25.1175 22.6993 24.8021 23.0849C22.6787 25.738 19.4706 27.2898 16.0723 27.3072Z" fill="#134173"/>
</g>
<defs>
<clipPath id="clip0_652_18843">
<rect width="32" height="32" fill="white"/>
</clipPath>
</defs>
</svg>
