<svg width="59" height="58" viewBox="0 0 59 58" fill="none" xmlns="http://www.w3.org/2000/svg">
<path opacity="0.2" d="M51.1367 12.6875H7.86328C6.7997 12.6875 5.9375 13.5497 5.9375 14.6133V43.3867C5.9375 44.4503 6.7997 45.3125 7.86328 45.3125H51.1367C52.2003 45.3125 53.0625 44.4503 53.0625 43.3867V14.6133C53.0625 13.5497 52.2003 12.6875 51.1367 12.6875Z" fill="#32475C" fill-opacity="0.6"/>
<path fill-rule="evenodd" clip-rule="evenodd" d="M7.1875 14.6133C7.1875 14.2401 7.49006 13.9375 7.86328 13.9375H51.1367C51.5099 13.9375 51.8125 14.2401 51.8125 14.6133V43.3867C51.8125 43.7599 51.5099 44.0625 51.1367 44.0625H7.86328C7.49006 44.0625 7.1875 43.7599 7.1875 43.3867V14.6133ZM7.86328 11.4375C6.10935 11.4375 4.6875 12.8593 4.6875 14.6133V43.3867C4.6875 45.1407 6.10935 46.5625 7.86328 46.5625H51.1367C52.8907 46.5625 54.3125 45.1407 54.3125 43.3867V14.6133C54.3125 12.8593 52.8907 11.4375 51.1367 11.4375H7.86328ZM13.1875 20.75C12.6352 20.75 12.1875 21.1977 12.1875 21.75C12.1875 22.3023 12.6352 22.75 13.1875 22.75H45.8125C46.3648 22.75 46.8125 22.3023 46.8125 21.75C46.8125 21.1977 46.3648 20.75 45.8125 20.75H13.1875ZM13.1875 28C12.6352 28 12.1875 28.4477 12.1875 29C12.1875 29.5523 12.6352 30 13.1875 30H45.8125C46.3648 30 46.8125 29.5523 46.8125 29C46.8125 28.4477 46.3648 28 45.8125 28H13.1875ZM12.1875 36.25C12.1875 35.6977 12.6352 35.25 13.1875 35.25H15C15.5523 35.25 16 35.6977 16 36.25C16 36.8023 15.5523 37.25 15 37.25H13.1875C12.6352 37.25 12.1875 36.8023 12.1875 36.25ZM22.25 35.25C21.6977 35.25 21.25 35.6977 21.25 36.25C21.25 36.8023 21.6977 37.25 22.25 37.25H36.75C37.3023 37.25 37.75 36.8023 37.75 36.25C37.75 35.6977 37.3023 35.25 36.75 35.25H22.25ZM43 36.25C43 35.6977 43.4477 35.25 44 35.25H45.8125C46.3648 35.25 46.8125 35.6977 46.8125 36.25C46.8125 36.8023 46.3648 37.25 45.8125 37.25H44C43.4477 37.25 43 36.8023 43 36.25Z" fill="#32475C" fill-opacity="0.6"/>
</svg>
