<svg width="32" height="32" viewBox="0 0 32 32" fill="none" xmlns="http://www.w3.org/2000/svg">
<g clip-path="url(#clip0_664_23187)">
<path d="M16 0C7.16375 0 0 7.16375 0 16C0 24.8363 7.16375 32 16 32C24.8363 32 32 24.8363 32 16C32 7.16375 24.8363 0 16 0ZM7.375 8.6825C7.375 8.0614 7.62173 7.46573 8.06092 7.02654C8.50011 6.58736 9.09577 6.34062 9.71688 6.34062C10.3379 6.34079 10.9334 6.5876 11.3724 7.02677C11.8115 7.46593 12.0581 8.0615 12.0581 8.6825C12.0581 9.30344 11.8115 9.89894 11.3724 10.338C10.9333 10.7771 10.3378 11.0238 9.71688 11.0238C9.40936 11.0238 9.10485 10.9633 8.82073 10.8457C8.5366 10.7281 8.27843 10.5556 8.06096 10.3382C7.84349 10.1208 7.67097 9.8627 7.55328 9.5786C7.43558 9.29451 7.375 8.99001 7.375 8.6825ZM13.1506 17.1125H9.5C9.29162 17.1067 9.09372 17.0198 8.94839 16.8704C8.80305 16.7209 8.72174 16.5207 8.72174 16.3122C8.72174 16.1037 8.80305 15.9035 8.94839 15.754C9.09372 15.6046 9.29162 15.5177 9.5 15.5119H13.1625C13.005 16.0332 13.0009 16.5889 13.1506 17.1125ZM12.0581 23.3175C12.0581 23.9385 11.8115 24.5341 11.3724 24.9732C10.9334 25.4124 10.3379 25.6592 9.71688 25.6594C9.09577 25.6594 8.50011 25.4126 8.06092 24.9735C7.62173 24.5343 7.375 23.9386 7.375 23.3175C7.375 23.01 7.43558 22.7055 7.55328 22.4214C7.67097 22.1373 7.84349 21.8792 8.06096 21.6618C8.27843 21.4444 8.5366 21.2719 8.82073 21.1543C9.10485 21.0367 9.40936 20.9762 9.71688 20.9762C10.3378 20.9762 10.9333 21.2229 11.3724 21.662C11.8115 22.1011 12.0581 22.6966 12.0581 23.3175ZM23.825 24.0981H12.45C12.5988 23.5752 12.5945 23.0205 12.4375 22.5H23.825C24.0372 22.5 24.2407 22.5843 24.3907 22.7343C24.5407 22.8843 24.625 23.0878 24.625 23.3C24.625 23.5122 24.5407 23.7157 24.3907 23.8657C24.2407 24.0157 24.0372 24.1 23.825 24.1V24.0981ZM13.5413 16.3319C13.5413 15.7108 13.788 15.1151 14.2272 14.6759C14.6664 14.2367 15.262 13.99 15.8831 13.99C16.5041 13.9902 17.0996 14.237 17.5387 14.6761C17.9777 15.1153 18.2244 15.7109 18.2244 16.3319C18.2244 16.9528 17.9777 17.5483 17.5386 17.9874C17.0996 18.4265 16.5041 18.6731 15.8831 18.6731C15.5756 18.6732 15.2711 18.6127 14.987 18.4951C14.7029 18.3775 14.4447 18.205 14.2272 17.9876C14.0097 17.7702 13.8372 17.5121 13.7195 17.228C13.6018 16.9439 13.5413 16.6394 13.5413 16.3319ZM23.825 17.1125H18.615C18.7648 16.5889 18.7606 16.0332 18.6031 15.5119H23.825C24.0334 15.5177 24.2313 15.6046 24.3766 15.754C24.5219 15.9035 24.6033 16.1037 24.6033 16.3122C24.6033 16.5207 24.5219 16.7209 24.3766 16.8704C24.2313 17.0198 24.0334 17.1067 23.825 17.1125ZM23.825 9.46313H12.45C12.5996 8.93972 12.5957 8.38437 12.4388 7.86312H23.825C24.0372 7.86312 24.2407 7.94741 24.3907 8.09744C24.5407 8.24747 24.625 8.45095 24.625 8.66313C24.625 8.8753 24.5407 9.07878 24.3907 9.22881C24.2407 9.37884 24.0372 9.46313 23.825 9.46313Z" fill="#134173"/>
</g>
<defs>
<clipPath id="clip0_664_23187">
<rect width="32" height="32" fill="white"/>
</clipPath>
</defs>
</svg>
