<svg width="1440" height="240" viewBox="0 0 1440 240" fill="none" xmlns="http://www.w3.org/2000/svg">
<path opacity="0.2" fill-rule="evenodd" clip-rule="evenodd" d="M423.94 81C501.812 81 564.94 17.8721 564.94 -60C564.94 -137.872 501.812 -201 423.94 -201C346.068 -201 282.94 -137.872 282.94 -60C282.94 17.8721 346.068 81 423.94 81ZM423.94 57C488.557 57 540.94 4.61731 540.94 -60C540.94 -124.617 488.557 -177 423.94 -177C359.323 -177 306.94 -124.617 306.94 -60C306.94 4.61731 359.323 57 423.94 57Z" fill="#FF3C3C"/>
<path opacity="0.2" fill-rule="evenodd" clip-rule="evenodd" d="M1033.94 461C1111.81 461 1174.94 397.872 1174.94 320C1174.94 242.128 1111.81 179 1033.94 179C956.068 179 892.94 242.128 892.94 320C892.94 397.872 956.068 461 1033.94 461ZM1033.94 437C1098.56 437 1150.94 384.617 1150.94 320C1150.94 255.383 1098.56 203 1033.94 203C969.323 203 916.94 255.383 916.94 320C916.94 384.617 969.323 437 1033.94 437Z" fill="#FF3C3C"/>
<g opacity="0.2">
<rect x="-23.4407" y="131.184" width="23.3191" height="274" transform="rotate(-30 -23.4407 131.184)" fill="#F2C94C"/>
<rect x="-63.7546" y="174.971" width="23.3191" height="274" transform="rotate(-55 -63.7546 174.971)" fill="#F2C94C"/>
<rect x="-81.7865" y="231.693" width="23.3191" height="274" transform="rotate(-80 -81.7865 231.693)" fill="#F2C94C"/>
<rect x="-74.1572" y="290.721" width="23.3191" height="274" transform="rotate(-105 -74.1572 290.721)" fill="white"/>
<rect x="-42.2966" y="340.994" width="23.3191" height="274" transform="rotate(-130 -42.2966 340.994)" fill="#F2C94C"/>
<rect x="7.82544" y="373.092" width="23.3191" height="274" transform="rotate(-155 7.82544 373.092)" fill="#067D88"/>
<rect x="66.8165" y="381.001" width="23.3191" height="274" transform="rotate(180 66.8165 381.001)" fill="white"/>
</g>
<g opacity="0.2">
<path d="M1312.95 382.954L1314.01 382.633L1315.06 382.305L1316.1 381.97L1317.13 381.623L1318.15 381.264L1319.16 380.89L1320.15 380.5L1321.13 380.092L1322.09 379.664L1323.03 379.215L1323.95 378.743L1324.85 378.248L1325.73 377.728L1326.58 377.182L1327.41 376.61L1328.22 376.01L1329.01 375.384L1329.77 374.729L1330.5 374.047L1331.21 373.337L1331.9 372.6L1332.56 371.836L1333.2 371.045L1333.81 370.228L1334.41 369.387L1334.98 368.522L1335.53 367.635L1336.07 366.727L1336.59 365.799L1337.09 364.852L1337.57 363.89L1338.05 362.913L1338.51 361.924L1338.96 360.924L1339.41 359.915L1339.85 358.9L1340.29 357.881L1340.72 356.859L1341.16 355.838L1341.59 354.818L1342.03 353.804L1342.48 352.795L1342.93 351.795L1343.4 350.806L1343.87 349.83L1344.36 348.868L1344.86 347.923L1345.38 346.995L1345.91 346.087L1346.47 345.201L1347.04 344.337L1347.64 343.496L1348.25 342.681L1348.89 341.891L1349.56 341.128L1350.24 340.391L1350.95 339.682L1351.69 339.001L1352.45 338.347L1353.23 337.722L1354.04 337.123L1354.88 336.552L1355.73 336.007L1356.61 335.488L1357.51 334.994L1358.43 334.523L1359.37 334.074L1360.33 333.647L1361.31 333.24L1362.31 332.85L1363.31 332.477L1364.33 332.118L1365.37 331.772L1366.41 331.436L1367.46 331.109L1368.51 330.789L1369.57 330.472L1370.63 330.158L1371.69 329.844L1372.75 329.528L1373.8 329.207L1374.85 328.88L1375.89 328.544L1376.92 328.197L1377.94 327.838L1378.95 327.464L1379.94 327.074L1380.92 326.666L1381.88 326.238L1382.82 325.789L1383.74 325.317L1384.64 324.822L1385.52 324.302L1386.37 323.756L1387.21 323.184L1388.01 322.585L1388.8 321.958L1389.56 321.303L1390.29 320.621L1391 319.911L1391.69 319.174L1392.35 318.41L1392.99 317.619L1393.61 316.802L1394.2 315.961L1394.77 315.096L1395.33 314.209L1395.86 313.301L1396.38 312.373L1396.88 311.427L1397.37 310.464L1397.84 309.487L1398.3 308.498L1398.76 307.498L1399.2 306.489L1399.64 305.474L1400.08 304.455L1400.51 303.433L1400.95 302.412L1401.39 301.392L1401.83 300.378L1402.27 299.369L1402.73 298.37L1403.19 297.38L1403.66 296.404L1404.15 295.442L1404.65 294.497L1405.17 293.569L1405.71 292.662L1406.26 291.775L1406.83 290.911L1407.43 290.071L1408.05 289.255L1408.69 288.465L1409.35 287.702L1410.04 286.965L1410.75 286.256L1411.48 285.575L1412.24 284.922L1413.03 284.296L1413.84 283.697L1414.67 283.126L1415.52 282.581L1416.4 282.062L1417.3 281.568L1418.23 281.097L1419.17 280.648L1420.13 280.221L1421.1 279.814L1422.1 279.424L1423.11 279.051L1424.13 278.692L1425.16 278.346L1426.2 278.01L1427.25 277.683L1428.3 277.363L1429.36 277.046L1430.42 276.732L1431.48 276.418L1432.54 276.102L1433.59 275.781L1434.64 275.454L1435.68 275.118L1436.71 274.771L1437.74 274.412L1438.74 274.038L1439.74 273.648L1440.71 273.24L1441.67 272.812L1442.61 272.363L1443.53 271.891L1444.43 271.396L1445.31 270.876L1446.17 270.33L1447 269.758L1447.81 269.159L1448.59 268.532L1449.35 267.877L1450.08 267.195L1450.8 266.485L1451.48 265.748L1452.14 264.984L1452.78 264.193L1453.4 263.377L1453.99 262.535L1454.57 261.67L1455.12 260.783L1455.65 259.875L1456.17 258.947L1456.67 258.001L1457.16 257.038L1457.63 256.061L1458.1 255.072L1458.55 254.072L1459 253.063L1459.44 252.048L1459.87 251.029L1460.31 250.007L1460.74 248.986L1461.18 247.967L1461.62 246.952L1462.06 245.943L1462.52 244.944L1462.98 243.955L1463.46 242.978L1463.94 242.016L1464.45 241.071L1464.96 240.143L1465.5 239.236L1466.05 238.349L1466.63 237.485L1467.22 236.645L1467.84 235.829L1468.48 235.039L1469.14 234.276L1469.83 233.539L1470.54 232.83L1471.27 232.149L1472.03 231.496L1472.82 230.87L1473.63 230.272L1474.46 229.7L1475.32 229.155L1476.2 228.636L1477.1 228.142L1478.02 227.671L1478.96 227.223L1479.92 226.795L1480.9 226.388L1481.89 225.998L1482.9 225.625L1483.92 225.266L1484.95 224.92L1485.99 224.584L1487.04 224.257L1488.1 223.937L1489.15 223.62L1490.21 223.306L1491.27 222.992L1492.33 222.676L1493.39 222.355L1494.43 222.028L1495.48 221.692L1496.51 221.345L1497.53 220.986L1498.53 220.612L1499.53 220.222L1500.5 219.814L1501.46 219.386L1502.41 218.937L1503.33 218.465L1504.23 217.97L1505.1 217.45L1505.96 216.904L1506.79 216.332L1507.6 215.733L1508.38 215.106L1509.14 214.452L1509.88 213.769L1510.59 213.059L1511.27 212.322L1511.94 211.558L1512.57 210.767L1513.19 209.951L1513.78 209.109L1514.36 208.245L1514.91 207.357L1515.45 206.449L1515.96 205.521L1516.46 204.575L1516.95 203.612L1517.42 202.635L1517.89 201.646L1518.34 200.646L1518.79 199.637L1519.23 198.622L1519.66 197.603L1520.1 196.581L1520.53 195.56L1520.97 194.541L1521.41 193.526L1521.86 192.517L1522.31 191.518L1522.77 190.529L1523.25 189.552L1523.74 188.59L1524.24 187.645L1524.76 186.717L1525.29 185.81L1525.85 184.923L1526.42 184.059L1527.01 183.219L1527.63 182.403L1528.27 181.613L1528.93 180.85L1529.62 180.113L1530.33 179.404L1531.07 178.723L1531.83 178.07L1532.61 177.444L1533.42 176.846L1534.25 176.274L1535.11 175.729L1535.99 175.21L1536.89 174.716L1537.81 174.245L1538.75 173.797L1539.71 173.369L1540.69 172.962L1541.68 172.572L1542.69 172.199L1543.71 171.84L1544.74 171.494L1545.78 171.158L1546.83 170.831L1547.89 170.511L1548.95 170.194L1550.01 169.88L1551.07 169.566L1552.12 169.25L1553.18 168.929L1554.23 168.602L1555.27 168.266L1556.3 167.919L1557.32 167.56L1558.33 167.186L1559.32 166.796L1560.3 166.388L1561.26 165.96L1562.2 165.511L1563.12 165.039L1564.02 164.544L1564.9 164.024L1565.75 163.478L1566.58 162.906L1567.39 162.307L1568.18 161.68L1568.93 161.026L1569.67 160.343L1570.38 159.634L1571.07 158.896L1571.73 158.132L1572.37 157.341L1572.98 156.525L1573.58 155.683L1574.15 154.819L1574.7 153.931L1575.24 153.023L1575.75 152.095L1576.26 151.149L1576.74 150.186L1577.22 149.209L1577.68 148.22L1578.13 147.22L1578.58 146.211L1579.02 145.196L1579.46 144.177L1579.89 143.155L1580.33 142.134L1580.76 141.115L1581.2 140.1L1581.65 139.091L1582.1 138.092L1582.57 137.103L1583.04 136.126L1583.53 135.164L1584.03 134.219L1584.55 133.291L1585.08 132.384L1585.64 131.497L1586.21 130.633L1586.81 129.793L1587.42 128.977L1588.06 128.187L1588.73 127.424L1589.41 126.687L1590.12 125.978L1590.86 125.297L1591.62 124.644L1592.4 124.018L1593.21 123.42L1594.04 122.848L1594.9 122.303L1595.78 121.784L1596.68 121.29L1597.6 120.819L1598.54 120.371L1599.5 119.943L1600.48 119.536L1601.47 119.146L1602.48 118.773L1603.5 118.414L1604.54 118.068L1605.58 117.732L1606.63 117.405L1607.68 117.085L1608.74 116.769L1609.8 116.454L1610.86 116.14" stroke="#E3EEC1" stroke-width="5" stroke-miterlimit="10" stroke-linecap="round" stroke-linejoin="round"/>
<path d="M1299 367.176L1300.06 366.856L1301.11 366.528L1302.15 366.192L1303.18 365.846L1304.2 365.487L1305.21 365.113L1306.2 364.723L1307.18 364.314L1308.14 363.887L1309.08 363.437L1310 362.966L1310.9 362.471L1311.78 361.951L1312.63 361.405L1313.46 360.833L1314.27 360.233L1315.05 359.607L1315.81 358.952L1316.55 358.27L1317.26 357.56L1317.94 356.823L1318.61 356.059L1319.25 355.268L1319.86 354.451L1320.46 353.61L1321.03 352.745L1321.58 351.858L1322.12 350.95L1322.63 350.021L1323.14 349.075L1323.62 348.113L1324.1 347.136L1324.56 346.147L1325.01 345.147L1325.46 344.138L1325.9 343.123L1326.34 342.104L1326.77 341.082L1327.21 340.061L1327.64 339.041L1328.08 338.026L1328.53 337.018L1328.98 336.018L1329.45 335.029L1329.92 334.053L1330.41 333.091L1330.91 332.146L1331.43 331.218L1331.96 330.31L1332.52 329.424L1333.09 328.56L1333.69 327.719L1334.3 326.904L1334.94 326.114L1335.6 325.35L1336.29 324.614L1337 323.905L1337.74 323.224L1338.5 322.57L1339.28 321.945L1340.09 321.346L1340.92 320.775L1341.78 320.23L1342.66 319.711L1343.56 319.216L1344.48 318.746L1345.42 318.297L1346.38 317.87L1347.36 317.463L1348.35 317.073L1349.36 316.7L1350.38 316.341L1351.41 315.995L1352.46 315.659L1353.5 315.332L1354.56 315.011L1355.62 314.695L1356.68 314.381L1357.74 314.067L1358.8 313.751L1359.85 313.43L1360.9 313.102L1361.94 312.767L1362.97 312.42L1363.99 312.061L1365 311.687L1365.99 311.297L1366.97 310.889L1367.93 310.461L1368.87 310.012L1369.79 309.54L1370.69 309.045L1371.57 308.525L1372.42 307.979L1373.26 307.407L1374.06 306.807L1374.85 306.181L1375.61 305.526L1376.34 304.844L1377.05 304.134L1377.74 303.397L1378.4 302.633L1379.04 301.842L1379.65 301.025L1380.25 300.184L1380.82 299.319L1381.37 298.432L1381.91 297.524L1382.43 296.596L1382.93 295.649L1383.41 294.687L1383.89 293.71L1384.35 292.721L1384.81 291.721L1385.25 290.712L1385.69 289.697L1386.13 288.678L1386.56 287.656L1387 286.635L1387.43 285.615L1387.87 284.601L1388.32 283.592L1388.77 282.592L1389.24 281.603L1389.71 280.627L1390.2 279.665L1390.7 278.72L1391.22 277.792L1391.75 276.884L1392.31 275.998L1392.88 275.134L1393.48 274.293L1394.09 273.478L1394.73 272.688L1395.4 271.925L1396.08 271.188L1396.79 270.479L1397.53 269.798L1398.29 269.144L1399.07 268.519L1399.88 267.92L1400.72 267.349L1401.57 266.804L1402.45 266.285L1403.35 265.791L1404.27 265.32L1405.22 264.871L1406.18 264.444L1407.15 264.037L1408.15 263.647L1409.15 263.274L1410.17 262.915L1411.21 262.569L1412.25 262.233L1413.3 261.906L1414.35 261.586L1415.41 261.269L1416.47 260.955L1417.53 260.641L1418.59 260.325L1419.64 260.004L1420.69 259.677L1421.73 259.341L1422.76 258.994L1423.78 258.635L1424.79 258.261L1425.78 257.871L1426.76 257.463L1427.72 257.035L1428.66 256.586L1429.58 256.114L1430.48 255.619L1431.36 255.099L1432.22 254.553L1433.05 253.981L1433.86 253.381L1434.64 252.755L1435.4 252.1L1436.13 251.418L1436.84 250.708L1437.53 249.971L1438.19 249.207L1438.83 248.416L1439.45 247.599L1440.04 246.758L1440.61 245.893L1441.17 245.006L1441.7 244.098L1442.22 243.17L1442.72 242.224L1443.21 241.261L1443.68 240.284L1444.14 239.295L1444.6 238.295L1445.04 237.286L1445.48 236.271L1445.92 235.252L1446.36 234.23L1446.79 233.209L1447.23 232.189L1447.67 231.175L1448.11 230.166L1448.57 229.166L1449.03 228.177L1449.5 227.201L1449.99 226.239L1450.49 225.294L1451.01 224.366L1451.55 223.459L1452.1 222.572L1452.68 221.708L1453.27 220.867L1453.89 220.052L1454.53 219.262L1455.19 218.499L1455.88 217.762L1456.59 217.053L1457.32 216.372L1458.08 215.718L1458.87 215.093L1459.68 214.494L1460.51 213.923L1461.36 213.378L1462.24 212.859L1463.14 212.365L1464.07 211.894L1465.01 211.445L1465.97 211.018L1466.95 210.611L1467.94 210.221L1468.95 209.848L1469.97 209.489L1471 209.143L1472.04 208.807L1473.09 208.48L1474.14 208.16L1475.2 207.843L1476.26 207.529L1477.32 207.215L1478.38 206.899L1479.43 206.578L1480.48 206.251L1481.52 205.915L1482.56 205.568L1483.58 205.209L1484.58 204.835L1485.58 204.445L1486.55 204.037L1487.51 203.609L1488.45 203.16L1489.37 202.688L1490.27 202.193L1491.15 201.673L1492.01 201.127L1492.84 200.555L1493.65 199.956L1494.43 199.329L1495.19 198.674L1495.93 197.992L1496.64 197.282L1497.32 196.545L1497.98 195.781L1498.62 194.99L1499.24 194.173L1499.83 193.332L1500.41 192.467L1500.96 191.58L1501.49 190.672L1502.01 189.744L1502.51 188.798L1503 187.835L1503.47 186.858L1503.94 185.869L1504.39 184.869L1504.84 183.86L1505.28 182.845L1505.71 181.826L1506.15 180.804L1506.58 179.783L1507.02 178.763L1507.46 177.749L1507.91 176.74L1508.36 175.741L1508.82 174.751L1509.3 173.775L1509.78 172.813L1510.29 171.868L1510.8 170.94L1511.34 170.033L1511.89 169.146L1512.47 168.282L1513.06 167.442L1513.68 166.626L1514.32 165.836L1514.98 165.073L1515.67 164.336L1516.38 163.627L1517.11 162.946L1517.87 162.293L1518.66 161.667L1519.47 161.068L1520.3 160.497L1521.16 159.952L1522.04 159.433L1522.94 158.939L1523.86 158.468L1524.8 158.019L1525.76 157.592L1526.74 157.185L1527.73 156.795L1528.74 156.422L1529.76 156.063L1530.79 155.717L1531.83 155.381L1532.88 155.054L1533.94 154.734L1534.99 154.417L1536.05 154.103L1537.11 153.789L1538.17 153.473L1539.23 153.152L1540.28 152.825L1541.32 152.489L1542.35 152.142L1543.37 151.783L1544.38 151.409L1545.37 151.019L1546.35 150.611L1547.3 150.183L1548.25 149.734L1549.17 149.262L1550.07 148.767L1550.94 148.247L1551.8 147.701L1552.63 147.129L1553.44 146.53L1554.22 145.903L1554.98 145.249L1555.72 144.566L1556.43 143.856L1557.11 143.119L1557.78 142.355L1558.41 141.564L1559.03 140.748L1559.62 139.906L1560.2 139.041L1560.75 138.154L1561.29 137.246L1561.8 136.318L1562.3 135.372L1562.79 134.409L1563.27 133.432L1563.73 132.443L1564.18 131.443L1564.63 130.434L1565.07 129.419L1565.51 128.4L1565.94 127.378L1566.37 126.357L1566.81 125.338L1567.25 124.323L1567.7 123.314L1568.15 122.315L1568.62 121.326L1569.09 120.349L1569.58 119.387L1570.08 118.442L1570.6 117.514L1571.13 116.607L1571.69 115.72L1572.26 114.856L1572.85 114.016L1573.47 113.2L1574.11 112.41L1574.77 111.647L1575.46 110.91L1576.17 110.201L1576.91 109.52L1577.67 108.867L1578.45 108.241L1579.26 107.643L1580.09 107.071L1580.95 106.526L1581.83 106.007L1582.73 105.513L1583.65 105.042L1584.59 104.594L1585.55 104.166L1586.53 103.759L1587.52 103.369L1588.53 102.996L1589.55 102.637L1590.58 102.291L1591.62 101.955L1592.67 101.628L1593.73 101.308L1594.79 100.991L1595.85 100.677L1596.91 100.363" stroke="#E3EEC1" stroke-width="5" stroke-miterlimit="10" stroke-linecap="round" stroke-linejoin="round"/>
<path d="M1285.05 351.399L1286.11 351.079L1287.15 350.751L1288.2 350.415L1289.23 350.069L1290.25 349.71L1291.25 349.336L1292.25 348.946L1293.22 348.537L1294.18 348.109L1295.12 347.66L1296.05 347.189L1296.95 346.694L1297.82 346.173L1298.68 345.628L1299.51 345.056L1300.32 344.456L1301.1 343.83L1301.86 343.175L1302.6 342.493L1303.31 341.783L1303.99 341.046L1304.65 340.281L1305.29 339.491L1305.91 338.674L1306.5 337.833L1307.08 336.968L1307.63 336.081L1308.16 335.172L1308.68 334.244L1309.18 333.298L1309.67 332.336L1310.14 331.359L1310.61 330.37L1311.06 329.37L1311.51 328.361L1311.95 327.346L1312.38 326.326L1312.82 325.305L1313.25 324.283L1313.69 323.264L1314.13 322.249L1314.58 321.241L1315.03 320.241L1315.49 319.252L1315.97 318.276L1316.46 317.314L1316.96 316.368L1317.48 315.441L1318.01 314.533L1318.56 313.647L1319.14 312.783L1319.73 311.942L1320.35 311.127L1320.99 310.337L1321.65 309.573L1322.34 308.837L1323.05 308.128L1323.79 307.447L1324.55 306.793L1325.33 306.168L1326.14 305.569L1326.97 304.998L1327.83 304.453L1328.71 303.934L1329.61 303.439L1330.53 302.969L1331.47 302.52L1332.43 302.093L1333.41 301.685L1334.4 301.296L1335.41 300.923L1336.43 300.564L1337.46 300.218L1338.5 299.882L1339.55 299.555L1340.61 299.234L1341.67 298.918L1342.73 298.604L1343.79 298.29L1344.84 297.973L1345.9 297.653L1346.95 297.325L1347.99 296.989L1349.02 296.643L1350.04 296.284L1351.05 295.91L1352.04 295.52L1353.02 295.111L1353.98 294.684L1354.92 294.234L1355.84 293.763L1356.74 293.268L1357.62 292.748L1358.47 292.202L1359.3 291.63L1360.11 291.03L1360.9 290.404L1361.65 289.749L1362.39 289.067L1363.1 288.357L1363.79 287.62L1364.45 286.855L1365.09 286.065L1365.7 285.248L1366.3 284.407L1366.87 283.542L1367.42 282.655L1367.96 281.746L1368.47 280.818L1368.98 279.872L1369.46 278.91L1369.94 277.933L1370.4 276.944L1370.85 275.944L1371.3 274.935L1371.74 273.92L1372.18 272.901L1372.61 271.879L1373.05 270.858L1373.48 269.838L1373.92 268.823L1374.37 267.815L1374.82 266.815L1375.29 265.826L1375.76 264.85L1376.25 263.888L1376.75 262.943L1377.27 262.015L1377.8 261.107L1378.36 260.221L1378.93 259.357L1379.53 258.516L1380.14 257.701L1380.78 256.911L1381.44 256.147L1382.13 255.411L1382.84 254.702L1383.58 254.021L1384.34 253.367L1385.12 252.742L1385.93 252.143L1386.76 251.572L1387.62 251.027L1388.5 250.508L1389.4 250.013L1390.32 249.543L1391.26 249.094L1392.22 248.667L1393.2 248.259L1394.19 247.87L1395.2 247.497L1396.22 247.138L1397.25 246.792L1398.3 246.456L1399.34 246.129L1400.4 245.808L1401.46 245.492L1402.52 245.178L1403.58 244.864L1404.64 244.547L1405.69 244.227L1406.74 243.899L1407.78 243.563L1408.81 243.217L1409.83 242.858L1410.84 242.484L1411.83 242.094L1412.81 241.685L1413.77 241.258L1414.71 240.809L1415.63 240.337L1416.53 239.842L1417.41 239.322L1418.26 238.776L1419.1 238.204L1419.9 237.604L1420.69 236.978L1421.45 236.323L1422.18 235.641L1422.89 234.931L1423.58 234.194L1424.24 233.43L1424.88 232.639L1425.49 231.822L1426.09 230.981L1426.66 230.116L1427.21 229.229L1427.75 228.321L1428.27 227.392L1428.77 226.446L1429.25 225.484L1429.73 224.507L1430.19 223.518L1430.65 222.518L1431.09 221.509L1431.53 220.494L1431.97 219.475L1432.4 218.453L1432.84 217.432L1433.27 216.412L1433.71 215.397L1434.16 214.389L1434.62 213.389L1435.08 212.4L1435.55 211.424L1436.04 210.462L1436.54 209.517L1437.06 208.589L1437.6 207.681L1438.15 206.795L1438.72 205.931L1439.32 205.09L1439.93 204.275L1440.57 203.485L1441.24 202.721L1441.92 201.985L1442.63 201.276L1443.37 200.595L1444.13 199.941L1444.92 199.316L1445.72 198.717L1446.56 198.146L1447.41 197.601L1448.29 197.082L1449.19 196.587L1450.11 196.117L1451.06 195.668L1452.02 195.241L1452.99 194.834L1453.99 194.444L1454.99 194.071L1456.02 193.712L1457.05 193.366L1458.09 193.03L1459.14 192.703L1460.19 192.382L1461.25 192.066L1462.31 191.752L1463.37 191.438L1464.43 191.122L1465.48 190.801L1466.53 190.473L1467.57 190.138L1468.6 189.791L1469.62 189.432L1470.63 189.058L1471.62 188.668L1472.6 188.26L1473.56 187.832L1474.5 187.383L1475.42 186.911L1476.32 186.416L1477.2 185.896L1478.06 185.35L1478.89 184.778L1479.7 184.178L1480.48 183.552L1481.24 182.897L1481.97 182.215L1482.68 181.505L1483.37 180.768L1484.03 180.004L1484.67 179.213L1485.29 178.396L1485.88 177.555L1486.45 176.69L1487.01 175.803L1487.54 174.895L1488.06 173.967L1488.56 173.02L1489.05 172.058L1489.52 171.081L1489.98 170.092L1490.44 169.092L1490.88 168.083L1491.32 167.068L1491.76 166.049L1492.2 165.027L1492.63 164.006L1493.07 162.986L1493.51 161.972L1493.95 160.963L1494.41 159.963L1494.87 158.974L1495.35 157.998L1495.83 157.036L1496.33 156.091L1496.85 155.163L1497.39 154.255L1497.94 153.369L1498.52 152.505L1499.11 151.664L1499.73 150.849L1500.37 150.059L1501.03 149.296L1501.72 148.559L1502.43 147.85L1503.16 147.169L1503.92 146.515L1504.71 145.89L1505.52 145.291L1506.35 144.72L1507.21 144.175L1508.08 143.656L1508.98 143.162L1509.91 142.691L1510.85 142.242L1511.81 141.815L1512.79 141.408L1513.78 141.018L1514.79 140.645L1515.81 140.286L1516.84 139.94L1517.88 139.604L1518.93 139.277L1519.98 138.957L1521.04 138.64L1522.1 138.326L1523.16 138.012L1524.22 137.696L1525.27 137.375L1526.32 137.048L1527.36 136.712L1528.4 136.365L1529.42 136.006L1530.42 135.632L1531.42 135.242L1532.39 134.834L1533.35 134.406L1534.29 133.957L1535.21 133.485L1536.11 132.99L1536.99 132.47L1537.85 131.924L1538.68 131.352L1539.49 130.752L1540.27 130.126L1541.03 129.471L1541.77 128.789L1542.48 128.079L1543.16 127.342L1543.82 126.578L1544.46 125.787L1545.08 124.97L1545.67 124.129L1546.25 123.264L1546.8 122.377L1547.33 121.469L1547.85 120.541L1548.35 119.595L1548.84 118.632L1549.31 117.655L1549.78 116.666L1550.23 115.666L1550.68 114.657L1551.12 113.642L1551.55 112.623L1551.99 111.601L1552.42 110.58L1552.86 109.56L1553.3 108.546L1553.75 107.537L1554.2 106.537L1554.66 105.548L1555.14 104.572L1555.63 103.61L1556.13 102.665L1556.64 101.737L1557.18 100.83L1557.73 99.9429L1558.31 99.0789L1558.9 98.2385L1559.52 97.4229L1560.16 96.633L1560.82 95.8696L1561.51 95.1332L1562.22 94.4242L1562.96 93.743L1563.72 93.0895L1564.5 92.4637L1565.31 91.8654L1566.14 91.2941L1567 90.7493L1567.88 90.23L1568.78 89.7356L1569.7 89.2648L1570.64 88.8164L1571.6 88.3892L1572.58 87.9816L1573.57 87.5921L1574.58 87.2188L1575.6 86.86L1576.63 86.5138L1577.67 86.1782L1578.72 85.8512L1579.78 85.5306L1580.83 85.2143L1581.89 84.9002L1582.95 84.586" stroke="#E3EEC1" stroke-width="5" stroke-miterlimit="10" stroke-linecap="round" stroke-linejoin="round"/>
<path d="M1271.1 335.622L1272.15 335.301L1273.2 334.974L1274.24 334.638L1275.27 334.292L1276.3 333.932L1277.3 333.559L1278.3 333.169L1279.27 332.76L1280.23 332.332L1281.17 331.883L1282.09 331.412L1282.99 330.916L1283.87 330.396L1284.73 329.851L1285.56 329.278L1286.37 328.679L1287.15 328.052L1287.91 327.398L1288.65 326.716L1289.36 326.006L1290.04 325.269L1290.7 324.504L1291.34 323.714L1291.96 322.897L1292.55 322.056L1293.13 321.191L1293.68 320.304L1294.21 319.395L1294.73 318.467L1295.23 317.521L1295.72 316.559L1296.19 315.582L1296.66 314.592L1297.11 313.592L1297.56 312.584L1298 311.569L1298.43 310.549L1298.87 309.528L1299.3 308.506L1299.74 307.487L1300.18 306.472L1300.62 305.464L1301.08 304.464L1301.54 303.475L1302.02 302.499L1302.5 301.537L1303.01 300.591L1303.52 299.664L1304.06 298.756L1304.61 297.87L1305.19 297.006L1305.78 296.165L1306.4 295.35L1307.04 294.56L1307.7 293.796L1308.39 293.06L1309.1 292.351L1309.83 291.67L1310.59 291.016L1311.38 290.39L1312.19 289.792L1313.02 289.221L1313.88 288.676L1314.76 288.157L1315.66 287.662L1316.58 287.191L1317.52 286.743L1318.48 286.316L1319.46 285.908L1320.45 285.519L1321.46 285.145L1322.48 284.787L1323.51 284.44L1324.55 284.105L1325.6 283.778L1326.66 283.457L1327.71 283.141L1328.77 282.827L1329.83 282.513L1330.89 282.196L1331.95 281.876L1332.99 281.548L1334.04 281.212L1335.07 280.866L1336.09 280.507L1337.09 280.133L1338.09 279.743L1339.06 279.334L1340.02 278.906L1340.97 278.457L1341.89 277.986L1342.79 277.49L1343.66 276.97L1344.52 276.425L1345.35 275.852L1346.16 275.253L1346.94 274.627L1347.7 273.972L1348.44 273.29L1349.15 272.58L1349.83 271.843L1350.5 271.078L1351.13 270.288L1351.75 269.471L1352.34 268.63L1352.92 267.765L1353.47 266.878L1354.01 265.969L1354.52 265.041L1355.02 264.095L1355.51 263.133L1355.99 262.156L1356.45 261.167L1356.9 260.166L1357.35 259.158L1357.79 258.143L1358.22 257.123L1358.66 256.102L1359.09 255.08L1359.53 254.061L1359.97 253.046L1360.42 252.038L1360.87 251.038L1361.33 250.049L1361.81 249.073L1362.3 248.111L1362.8 247.165L1363.32 246.238L1363.85 245.33L1364.41 244.444L1364.98 243.58L1365.57 242.739L1366.19 241.924L1366.83 241.134L1367.49 240.37L1368.18 239.634L1368.89 238.925L1369.63 238.244L1370.39 237.59L1371.17 236.964L1371.98 236.366L1372.81 235.795L1373.67 235.25L1374.55 234.731L1375.45 234.236L1376.37 233.766L1377.31 233.317L1378.27 232.89L1379.25 232.482L1380.24 232.093L1381.25 231.72L1382.27 231.361L1383.3 231.015L1384.34 230.679L1385.39 230.352L1386.45 230.031L1387.51 229.715L1388.57 229.401L1389.63 229.087L1390.68 228.77L1391.74 228.45L1392.79 228.122L1393.83 227.786L1394.86 227.44L1395.88 227.081L1396.89 226.707L1397.88 226.317L1398.86 225.908L1399.82 225.48L1400.76 225.031L1401.68 224.56L1402.58 224.065L1403.46 223.544L1404.31 222.999L1405.14 222.427L1405.95 221.827L1406.74 221.201L1407.49 220.546L1408.23 219.864L1408.94 219.154L1409.63 218.417L1410.29 217.652L1410.93 216.862L1411.54 216.045L1412.14 215.204L1412.71 214.339L1413.26 213.452L1413.8 212.543L1414.32 211.615L1414.82 210.669L1415.3 209.707L1415.78 208.73L1416.24 207.741L1416.69 206.741L1417.14 205.732L1417.58 204.717L1418.02 203.698L1418.45 202.676L1418.89 201.655L1419.32 200.635L1419.76 199.62L1420.21 198.612L1420.66 197.612L1421.13 196.623L1421.6 195.647L1422.09 194.685L1422.59 193.739L1423.11 192.812L1423.64 191.904L1424.2 191.018L1424.77 190.154L1425.37 189.313L1425.98 188.498L1426.62 187.708L1427.29 186.944L1427.97 186.208L1428.68 185.499L1429.42 184.818L1430.18 184.164L1430.96 183.539L1431.77 182.94L1432.61 182.369L1433.46 181.824L1434.34 181.305L1435.24 180.81L1436.16 180.34L1437.1 179.891L1438.06 179.464L1439.04 179.056L1440.04 178.667L1441.04 178.294L1442.06 177.935L1443.1 177.589L1444.14 177.253L1445.19 176.926L1446.24 176.605L1447.3 176.289L1448.36 175.975L1449.42 175.661L1450.48 175.344L1451.53 175.024L1452.58 174.696L1453.62 174.36L1454.65 174.014L1455.67 173.655L1456.68 173.281L1457.67 172.891L1458.65 172.482L1459.61 172.055L1460.55 171.605L1461.47 171.134L1462.37 170.639L1463.25 170.119L1464.1 169.573L1464.94 169.001L1465.74 168.401L1466.53 167.775L1467.29 167.12L1468.02 166.438L1468.73 165.728L1469.42 164.991L1470.08 164.226L1470.72 163.436L1471.33 162.619L1471.93 161.778L1472.5 160.913L1473.06 160.026L1473.59 159.117L1474.11 158.189L1474.61 157.243L1475.1 156.281L1475.57 155.304L1476.03 154.315L1476.49 153.315L1476.93 152.306L1477.37 151.291L1477.81 150.272L1478.24 149.25L1478.68 148.229L1479.12 147.209L1479.56 146.194L1480 145.186L1480.46 144.186L1480.92 143.197L1481.39 142.221L1481.88 141.259L1482.38 140.314L1482.9 139.386L1483.44 138.478L1483.99 137.592L1484.56 136.728L1485.16 135.887L1485.78 135.072L1486.41 134.282L1487.08 133.518L1487.76 132.782L1488.48 132.073L1489.21 131.392L1489.97 130.738L1490.76 130.113L1491.56 129.514L1492.4 128.943L1493.25 128.398L1494.13 127.879L1495.03 127.384L1495.95 126.914L1496.9 126.465L1497.86 126.038L1498.83 125.63L1499.83 125.241L1500.84 124.868L1501.86 124.509L1502.89 124.163L1503.93 123.827L1504.98 123.5L1506.03 123.179L1507.09 122.863L1508.15 122.549L1509.21 122.235L1510.27 121.918L1511.32 121.598L1512.37 121.27L1513.41 120.934L1514.44 120.588L1515.46 120.229L1516.47 119.855L1517.46 119.465L1518.44 119.056L1519.4 118.629L1520.34 118.18L1521.26 117.708L1522.16 117.213L1523.04 116.693L1523.9 116.147L1524.73 115.575L1525.54 114.975L1526.32 114.349L1527.08 113.694L1527.81 113.012L1528.52 112.302L1529.21 111.565L1529.87 110.801L1530.51 110.01L1531.13 109.193L1531.72 108.352L1532.29 107.487L1532.85 106.6L1533.38 105.692L1533.9 104.763L1534.4 103.817L1534.89 102.855L1535.36 101.878L1535.83 100.889L1536.28 99.8887L1536.72 98.88L1537.17 97.865L1537.6 96.8456L1538.04 95.8241L1538.47 94.8026L1538.91 93.7834L1539.35 92.7685L1539.79 91.7601L1540.25 90.7604L1540.71 89.7713L1541.19 88.7949L1541.67 87.8331L1542.18 86.8876L1542.69 85.9602L1543.23 85.0524L1543.78 84.1658L1544.36 83.3018L1544.95 82.4614L1545.57 81.6458L1546.21 80.8559L1546.87 80.0925L1547.56 79.3561L1548.27 78.6471L1549 77.9659L1549.76 77.3124L1550.55 76.6866L1551.36 76.0883L1552.19 75.517L1553.05 74.9722L1553.92 74.4529L1554.83 73.9585L1555.75 73.4877L1556.69 73.0393L1557.65 72.6121L1558.63 72.2045L1559.62 71.815L1560.63 71.4417L1561.65 71.0829L1562.68 70.7367L1563.72 70.4011L1564.77 70.0741L1565.82 69.7535L1566.88 69.4372L1567.94 69.1231L1569 68.8089" stroke="#E3EEC1" stroke-width="5" stroke-miterlimit="10" stroke-linecap="round" stroke-linejoin="round"/>
<path d="M1257.15 319.845L1258.2 319.524L1259.25 319.197L1260.29 318.861L1261.32 318.515L1262.34 318.155L1263.35 317.782L1264.34 317.391L1265.32 316.983L1266.28 316.555L1267.22 316.106L1268.14 315.635L1269.04 315.139L1269.92 314.619L1270.78 314.074L1271.61 313.501L1272.42 312.902L1273.2 312.275L1273.96 311.621L1274.69 310.939L1275.4 310.229L1276.09 309.492L1276.75 308.727L1277.39 307.936L1278.01 307.12L1278.6 306.279L1279.17 305.414L1279.73 304.527L1280.26 303.618L1280.78 302.69L1281.28 301.744L1281.77 300.782L1282.24 299.805L1282.7 298.815L1283.16 297.815L1283.6 296.807L1284.04 295.792L1284.48 294.772L1284.91 293.751L1285.35 292.729L1285.79 291.71L1286.23 290.695L1286.67 289.687L1287.13 288.687L1287.59 287.698L1288.06 286.722L1288.55 285.76L1289.05 284.814L1289.57 283.887L1290.11 282.979L1290.66 282.093L1291.23 281.228L1291.83 280.388L1292.45 279.572L1293.09 278.783L1293.75 278.019L1294.44 277.283L1295.15 276.574L1295.88 275.893L1296.64 275.239L1297.43 274.613L1298.24 274.015L1299.07 273.444L1299.92 272.899L1300.8 272.38L1301.7 271.885L1302.63 271.414L1303.57 270.966L1304.53 270.539L1305.5 270.131L1306.5 269.742L1307.51 269.368L1308.53 269.01L1309.56 268.663L1310.6 268.328L1311.65 268.001L1312.7 267.68L1313.76 267.364L1314.82 267.05L1315.88 266.736L1316.94 266.419L1317.99 266.098L1319.04 265.771L1320.08 265.435L1321.12 265.089L1322.14 264.729L1323.14 264.356L1324.14 263.965L1325.11 263.557L1326.07 263.129L1327.01 262.68L1327.93 262.209L1328.83 261.713L1329.71 261.193L1330.57 260.648L1331.4 260.075L1332.21 259.476L1332.99 258.849L1333.75 258.195L1334.49 257.513L1335.2 256.803L1335.88 256.066L1336.54 255.301L1337.18 254.51L1337.8 253.694L1338.39 252.853L1338.97 251.988L1339.52 251.101L1340.05 250.192L1340.57 249.264L1341.07 248.318L1341.56 247.356L1342.03 246.379L1342.5 245.389L1342.95 244.389L1343.4 243.381L1343.84 242.366L1344.27 241.346L1344.71 240.325L1345.14 239.303L1345.58 238.284L1346.02 237.269L1346.47 236.261L1346.92 235.261L1347.38 234.272L1347.86 233.296L1348.34 232.334L1348.85 231.388L1349.36 230.461L1349.9 229.553L1350.45 228.667L1351.03 227.802L1351.62 226.962L1352.24 226.147L1352.88 225.357L1353.54 224.593L1354.23 223.857L1354.94 223.148L1355.67 222.467L1356.43 221.813L1357.22 221.187L1358.03 220.589L1358.86 220.018L1359.72 219.473L1360.6 218.954L1361.5 218.459L1362.42 217.988L1363.36 217.54L1364.32 217.113L1365.3 216.705L1366.29 216.316L1367.3 215.942L1368.32 215.584L1369.35 215.237L1370.39 214.902L1371.44 214.575L1372.5 214.254L1373.55 213.938L1374.61 213.624L1375.67 213.31L1376.73 212.993L1377.79 212.672L1378.84 212.345L1379.88 212.009L1380.91 211.663L1381.93 211.303L1382.94 210.93L1383.93 210.54L1384.91 210.131L1385.86 209.703L1386.81 209.254L1387.73 208.783L1388.63 208.287L1389.5 207.767L1390.36 207.222L1391.19 206.649L1392 206.05L1392.78 205.423L1393.54 204.769L1394.28 204.087L1394.99 203.377L1395.67 202.64L1396.34 201.875L1396.97 201.085L1397.59 200.268L1398.18 199.427L1398.76 198.562L1399.31 197.675L1399.85 196.766L1400.36 195.838L1400.86 194.892L1401.35 193.93L1401.83 192.953L1402.29 191.964L1402.74 190.963L1403.19 189.955L1403.63 188.94L1404.07 187.92L1404.5 186.899L1404.93 185.877L1405.37 184.858L1405.81 183.843L1406.26 182.835L1406.71 181.835L1407.17 180.846L1407.65 179.87L1408.14 178.908L1408.64 177.962L1409.16 177.035L1409.69 176.127L1410.25 175.241L1410.82 174.377L1411.41 173.536L1412.03 172.721L1412.67 171.931L1413.33 171.167L1414.02 170.431L1414.73 169.722L1415.47 169.041L1416.23 168.387L1417.01 167.761L1417.82 167.163L1418.65 166.592L1419.51 166.047L1420.39 165.528L1421.29 165.033L1422.21 164.562L1423.15 164.114L1424.11 163.687L1425.09 163.279L1426.08 162.89L1427.09 162.516L1428.11 162.158L1429.14 161.812L1430.18 161.476L1431.23 161.149L1432.29 160.828L1433.35 160.512L1434.41 160.198L1435.47 159.884L1436.52 159.567L1437.58 159.247L1438.63 158.919L1439.67 158.583L1440.7 158.237L1441.72 157.878L1442.73 157.504L1443.72 157.114L1444.7 156.705L1445.66 156.277L1446.6 155.828L1447.52 155.357L1448.42 154.861L1449.3 154.341L1450.15 153.796L1450.98 153.223L1451.79 152.624L1452.58 151.998L1453.34 151.343L1454.07 150.661L1454.78 149.951L1455.47 149.214L1456.13 148.449L1456.77 147.659L1457.38 146.842L1457.98 146.001L1458.55 145.136L1459.1 144.249L1459.64 143.34L1460.16 142.412L1460.66 141.466L1461.14 140.504L1461.62 139.527L1462.08 138.538L1462.53 137.538L1462.98 136.529L1463.42 135.514L1463.86 134.494L1464.29 133.473L1464.73 132.451L1465.16 131.432L1465.6 130.417L1466.05 129.409L1466.5 128.409L1466.97 127.42L1467.44 126.444L1467.93 125.482L1468.43 124.536L1468.95 123.609L1469.48 122.701L1470.04 121.815L1470.61 120.951L1471.21 120.11L1471.82 119.295L1472.46 118.505L1473.13 117.741L1473.81 117.005L1474.52 116.296L1475.26 115.615L1476.02 114.961L1476.8 114.335L1477.61 113.737L1478.45 113.166L1479.3 112.621L1480.18 112.102L1481.08 111.607L1482 111.137L1482.94 110.688L1483.9 110.261L1484.88 109.853L1485.88 109.464L1486.88 109.091L1487.9 108.732L1488.94 108.386L1489.98 108.05L1491.03 107.723L1492.08 107.402L1493.14 107.086L1494.2 106.772L1495.26 106.458L1496.32 106.141L1497.37 105.821L1498.42 105.493L1499.46 105.157L1500.49 104.811L1501.51 104.452L1502.52 104.078L1503.51 103.688L1504.49 103.279L1505.45 102.851L1506.39 102.402L1507.31 101.931L1508.21 101.436L1509.09 100.915L1509.94 100.37L1510.78 99.7975L1511.58 99.1983L1512.37 98.5716L1513.13 97.9172L1513.86 97.235L1514.57 96.5251L1515.26 95.7878L1515.92 95.0234L1516.56 94.2327L1517.18 93.4162L1517.77 92.575L1518.34 91.7102L1518.9 90.8229L1519.43 89.9144L1519.95 88.9864L1520.45 88.0403L1520.94 87.0779L1521.41 86.1011L1521.87 85.1116L1522.33 84.1116L1522.77 83.1029L1523.21 82.0879L1523.65 81.0685L1524.08 80.047L1524.52 79.0255L1524.96 78.0063L1525.4 76.9914L1525.84 75.983L1526.3 74.9833L1526.76 73.9942L1527.23 73.0178L1527.72 72.056L1528.22 71.1105L1528.74 70.1831L1529.28 69.2753L1529.83 68.3887L1530.4 67.5247L1531 66.6843L1531.62 65.8687L1532.26 65.0788L1532.92 64.3154L1533.6 63.579L1534.32 62.87L1535.05 62.1888L1535.81 61.5353L1536.6 60.9095L1537.41 60.3112L1538.24 59.7399L1539.09 59.1951L1539.97 58.6758L1540.87 58.1814L1541.8 57.7106L1542.74 57.2622L1543.7 56.835L1544.67 56.4274L1545.67 56.0379L1546.68 55.6646L1547.7 55.3058L1548.73 54.9596L1549.77 54.624L1550.82 54.297L1551.87 53.9764L1552.93 53.6601L1553.99 53.346L1555.05 53.0318" stroke="#E3EEC1" stroke-width="5" stroke-miterlimit="10" stroke-linecap="round" stroke-linejoin="round"/>
<path d="M1243.2 304.068L1244.25 303.747L1245.3 303.42L1246.34 303.084L1247.37 302.737L1248.39 302.378L1249.4 302.004L1250.39 301.614L1251.37 301.206L1252.33 300.778L1253.27 300.329L1254.19 299.858L1255.09 299.362L1255.97 298.842L1256.82 298.296L1257.66 297.724L1258.46 297.125L1259.25 296.498L1260.01 295.844L1260.74 295.162L1261.45 294.452L1262.14 293.714L1262.8 292.95L1263.44 292.159L1264.05 291.343L1264.65 290.502L1265.22 289.637L1265.77 288.75L1266.31 287.841L1266.83 286.913L1267.33 285.967L1267.82 285.005L1268.29 284.028L1268.75 283.038L1269.21 282.038L1269.65 281.03L1270.09 280.015L1270.53 278.995L1270.96 277.974L1271.4 276.952L1271.83 275.933L1272.28 274.918L1272.72 273.91L1273.18 272.91L1273.64 271.921L1274.11 270.944L1274.6 269.983L1275.1 269.037L1275.62 268.11L1276.16 267.202L1276.71 266.315L1277.28 265.451L1277.88 264.611L1278.49 263.795L1279.13 263.006L1279.8 262.242L1280.48 261.506L1281.19 260.797L1281.93 260.115L1282.69 259.462L1283.48 258.836L1284.28 258.238L1285.12 257.667L1285.97 257.122L1286.85 256.603L1287.75 256.108L1288.67 255.637L1289.62 255.189L1290.58 254.762L1291.55 254.354L1292.55 253.965L1293.55 253.591L1294.58 253.232L1295.61 252.886L1296.65 252.551L1297.7 252.224L1298.75 251.903L1299.81 251.587L1300.87 251.273L1301.93 250.959L1302.99 250.642L1304.04 250.321L1305.09 249.994L1306.13 249.658L1307.16 249.312L1308.18 248.952L1309.19 248.579L1310.18 248.188L1311.16 247.78L1312.12 247.352L1313.06 246.903L1313.98 246.432L1314.88 245.936L1315.76 245.416L1316.62 244.87L1317.45 244.298L1318.26 243.699L1319.04 243.072L1319.8 242.418L1320.53 241.736L1321.24 241.026L1321.93 240.289L1322.59 239.524L1323.23 238.733L1323.85 237.917L1324.44 237.076L1325.01 236.211L1325.57 235.324L1326.1 234.415L1326.62 233.487L1327.12 232.541L1327.61 231.579L1328.08 230.602L1328.54 229.612L1329 228.612L1329.44 227.604L1329.88 226.589L1330.32 225.569L1330.76 224.548L1331.19 223.526L1331.63 222.507L1332.07 221.492L1332.51 220.484L1332.97 219.484L1333.43 218.495L1333.91 217.519L1334.39 216.557L1334.89 215.611L1335.41 214.684L1335.95 213.776L1336.5 212.889L1337.08 212.025L1337.67 211.185L1338.29 210.369L1338.93 209.58L1339.59 208.816L1340.28 208.08L1340.99 207.371L1341.72 206.689L1342.48 206.036L1343.27 205.41L1344.08 204.812L1344.91 204.241L1345.77 203.696L1346.64 203.177L1347.54 202.682L1348.47 202.211L1349.41 201.763L1350.37 201.336L1351.35 200.928L1352.34 200.539L1353.35 200.165L1354.37 199.807L1355.4 199.46L1356.44 199.125L1357.49 198.798L1358.54 198.477L1359.6 198.161L1360.66 197.847L1361.72 197.533L1362.78 197.216L1363.84 196.895L1364.88 196.568L1365.92 196.232L1366.96 195.886L1367.98 195.526L1368.98 195.153L1369.98 194.762L1370.95 194.354L1371.91 193.926L1372.85 193.477L1373.77 193.006L1374.67 192.51L1375.55 191.99L1376.41 191.445L1377.24 190.872L1378.05 190.273L1378.83 189.646L1379.59 188.992L1380.33 188.31L1381.04 187.6L1381.72 186.863L1382.38 186.098L1383.02 185.307L1383.64 184.491L1384.23 183.65L1384.81 182.785L1385.36 181.898L1385.89 180.989L1386.41 180.061L1386.91 179.115L1387.4 178.153L1387.87 177.176L1388.34 176.186L1388.79 175.186L1389.24 174.178L1389.68 173.163L1390.11 172.143L1390.55 171.122L1390.98 170.1L1391.42 169.081L1391.86 168.066L1392.31 167.058L1392.76 166.058L1393.22 165.069L1393.7 164.093L1394.19 163.131L1394.69 162.185L1395.2 161.258L1395.74 160.35L1396.29 159.464L1396.87 158.599L1397.46 157.759L1398.08 156.944L1398.72 156.154L1399.38 155.39L1400.07 154.654L1400.78 153.945L1401.52 153.264L1402.28 152.61L1403.06 151.984L1403.87 151.386L1404.7 150.815L1405.56 150.27L1406.44 149.751L1407.34 149.256L1408.26 148.785L1409.2 148.337L1410.16 147.91L1411.14 147.502L1412.13 147.113L1413.14 146.739L1414.16 146.381L1415.19 146.034L1416.23 145.699L1417.28 145.372L1418.34 145.051L1419.39 144.735L1420.45 144.421L1421.51 144.107L1422.57 143.79L1423.63 143.469L1424.68 143.142L1425.72 142.806L1426.75 142.46L1427.77 142.1L1428.78 141.727L1429.77 141.336L1430.75 140.928L1431.71 140.5L1432.65 140.051L1433.57 139.58L1434.47 139.084L1435.35 138.564L1436.2 138.019L1437.03 137.446L1437.84 136.847L1438.62 136.22L1439.38 135.566L1440.12 134.884L1440.83 134.174L1441.51 133.437L1442.18 132.672L1442.82 131.882L1443.43 131.065L1444.03 130.224L1444.6 129.359L1445.15 128.472L1445.69 127.563L1446.2 126.635L1446.71 125.689L1447.19 124.727L1447.67 123.75L1448.13 122.76L1448.58 121.76L1449.03 120.752L1449.47 119.737L1449.91 118.717L1450.34 117.696L1450.77 116.674L1451.21 115.655L1451.65 114.64L1452.1 113.632L1452.55 112.632L1453.02 111.643L1453.49 110.667L1453.98 109.705L1454.48 108.759L1455 107.832L1455.53 106.924L1456.09 106.038L1456.66 105.174L1457.26 104.333L1457.87 103.518L1458.51 102.728L1459.17 101.964L1459.86 101.228L1460.57 100.519L1461.31 99.8376L1462.07 99.1841L1462.85 98.5584L1463.66 97.9601L1464.49 97.3888L1465.35 96.8439L1466.23 96.3247L1467.13 95.8302L1468.05 95.3594L1468.99 94.9111L1469.95 94.4839L1470.93 94.0763L1471.92 93.6867L1472.93 93.3134L1473.95 92.9547L1474.98 92.6085L1476.03 92.2729L1477.07 91.9458L1478.13 91.6252L1479.19 91.309L1480.25 90.9948L1481.31 90.6807L1482.37 90.3643L1483.42 90.0435L1484.47 89.7162L1485.51 89.3803L1486.54 89.0337L1487.56 88.6745L1488.57 88.3007L1489.56 87.9105L1490.54 87.5023L1491.5 87.0744L1492.44 86.6253L1493.36 86.1537L1494.26 85.6585L1495.14 85.1384L1495.99 84.5926L1496.82 84.0204L1497.63 83.4212L1498.42 82.7945L1499.18 82.1401L1499.91 81.4579L1500.62 80.748L1501.31 80.0107L1501.97 79.2463L1502.61 78.4556L1503.22 77.6391L1503.82 76.7979L1504.39 75.9331L1504.94 75.0458L1505.48 74.1373L1506 73.2093L1506.5 72.2632L1506.98 71.3008L1507.46 70.324L1507.92 69.3345L1508.38 68.3345L1508.82 67.3258L1509.26 66.3108L1509.7 65.2914L1510.13 64.2699L1510.57 63.2484L1511 62.2292L1511.44 61.2143L1511.89 60.2059L1512.34 59.2062L1512.81 58.2171L1513.28 57.2407L1513.77 56.2789L1514.27 55.3334L1514.79 54.406L1515.32 53.4982L1515.88 52.6116L1516.45 51.7476L1517.05 50.9072L1517.66 50.0916L1518.3 49.3017L1518.97 48.5383L1519.65 47.8019L1520.36 47.0929L1521.1 46.4117L1521.86 45.7582L1522.64 45.1324L1523.45 44.5341L1524.29 43.9628L1525.14 43.418L1526.02 42.8987L1526.92 42.4043L1527.84 41.9335L1528.78 41.4852L1529.75 41.0579L1530.72 40.6503L1531.72 40.2608L1532.72 39.8875L1533.74 39.5287L1534.78 39.1825L1535.82 38.8469L1536.87 38.5199L1537.92 38.1993L1538.98 37.883L1540.04 37.5689L1541.1 37.2547" stroke="#E3EEC1" stroke-width="5" stroke-miterlimit="10" stroke-linecap="round" stroke-linejoin="round"/>
<path d="M1229.24 288.291L1230.3 287.97L1231.35 287.643L1232.39 287.307L1233.42 286.96L1234.44 286.601L1235.45 286.227L1236.44 285.837L1237.42 285.429L1238.38 285.001L1239.32 284.552L1240.24 284.08L1241.14 283.585L1242.02 283.065L1242.87 282.519L1243.7 281.947L1244.51 281.348L1245.3 280.721L1246.06 280.067L1246.79 279.385L1247.5 278.675L1248.19 277.937L1248.85 277.173L1249.49 276.382L1250.1 275.566L1250.7 274.725L1251.27 273.86L1251.82 272.972L1252.36 272.064L1252.88 271.136L1253.38 270.19L1253.86 269.228L1254.34 268.251L1254.8 267.261L1255.25 266.261L1255.7 265.253L1256.14 264.237L1256.58 263.218L1257.01 262.197L1257.45 261.175L1257.88 260.156L1258.32 259.141L1258.77 258.133L1259.22 257.133L1259.69 256.144L1260.16 255.167L1260.65 254.206L1261.15 253.26L1261.67 252.333L1262.2 251.425L1262.76 250.538L1263.33 249.674L1263.93 248.834L1264.54 248.018L1265.18 247.228L1265.85 246.465L1266.53 245.729L1267.24 245.02L1267.98 244.338L1268.74 243.685L1269.52 243.059L1270.33 242.461L1271.17 241.89L1272.02 241.345L1272.9 240.825L1273.8 240.331L1274.72 239.86L1275.66 239.412L1276.62 238.985L1277.6 238.577L1278.6 238.187L1279.6 237.814L1280.62 237.455L1281.66 237.109L1282.7 236.774L1283.75 236.447L1284.8 236.126L1285.86 235.81L1286.92 235.496L1287.98 235.181L1289.04 234.865L1290.09 234.544L1291.14 234.217L1292.18 233.881L1293.21 233.534L1294.23 233.175L1295.24 232.801L1296.23 232.411L1297.21 232.003L1298.17 231.575L1299.11 231.126L1300.03 230.654L1300.93 230.159L1301.81 229.639L1302.66 229.093L1303.5 228.521L1304.3 227.922L1305.09 227.295L1305.85 226.641L1306.58 225.959L1307.29 225.249L1307.98 224.511L1308.64 223.747L1309.28 222.956L1309.89 222.14L1310.49 221.299L1311.06 220.434L1311.62 219.547L1312.15 218.638L1312.67 217.71L1313.17 216.764L1313.66 215.802L1314.13 214.825L1314.59 213.835L1315.05 212.835L1315.49 211.827L1315.93 210.812L1316.37 209.792L1316.8 208.771L1317.24 207.749L1317.68 206.73L1318.12 205.715L1318.56 204.707L1319.02 203.707L1319.48 202.718L1319.95 201.741L1320.44 200.78L1320.94 199.834L1321.46 198.907L1322 197.999L1322.55 197.112L1323.12 196.248L1323.72 195.408L1324.34 194.592L1324.98 193.802L1325.64 193.039L1326.32 192.303L1327.04 191.594L1327.77 190.912L1328.53 190.259L1329.32 189.633L1330.12 189.035L1330.96 188.464L1331.81 187.919L1332.69 187.399L1333.59 186.905L1334.51 186.434L1335.46 185.986L1336.42 185.559L1337.39 185.151L1338.39 184.761L1339.4 184.388L1340.42 184.029L1341.45 183.683L1342.49 183.348L1343.54 183.021L1344.59 182.7L1345.65 182.384L1346.71 182.07L1347.77 181.755L1348.83 181.439L1349.88 181.118L1350.93 180.791L1351.97 180.455L1353 180.109L1354.02 179.749L1355.03 179.375L1356.02 178.985L1357 178.577L1357.96 178.149L1358.9 177.7L1359.82 177.229L1360.72 176.733L1361.6 176.213L1362.46 175.667L1363.29 175.095L1364.1 174.496L1364.88 173.869L1365.64 173.215L1366.37 172.533L1367.08 171.823L1367.77 171.085L1368.43 170.321L1369.07 169.53L1369.69 168.714L1370.28 167.873L1370.85 167.008L1371.41 166.121L1371.94 165.212L1372.46 164.284L1372.96 163.338L1373.45 162.376L1373.92 161.399L1374.39 160.409L1374.84 159.409L1375.28 158.401L1375.73 157.386L1376.16 156.366L1376.6 155.345L1377.03 154.323L1377.47 153.304L1377.91 152.289L1378.35 151.281L1378.81 150.281L1379.27 149.292L1379.75 148.316L1380.23 147.354L1380.74 146.408L1381.25 145.481L1381.79 144.573L1382.34 143.686L1382.92 142.822L1383.51 141.982L1384.13 141.166L1384.77 140.377L1385.43 139.613L1386.12 138.877L1386.83 138.168L1387.56 137.486L1388.32 136.833L1389.11 136.207L1389.92 135.609L1390.75 135.038L1391.61 134.493L1392.48 133.974L1393.39 133.479L1394.31 133.008L1395.25 132.56L1396.21 132.133L1397.19 131.725L1398.18 131.336L1399.19 130.962L1400.21 130.604L1401.24 130.257L1402.28 129.922L1403.33 129.595L1404.38 129.274L1405.44 128.958L1406.5 128.644L1407.56 128.33L1408.62 128.013L1409.68 127.692L1410.72 127.365L1411.77 127.029L1412.8 126.683L1413.82 126.323L1414.82 125.95L1415.82 125.559L1416.79 125.151L1417.75 124.723L1418.69 124.274L1419.62 123.803L1420.52 123.307L1421.39 122.787L1422.25 122.241L1423.08 121.669L1423.89 121.07L1424.67 120.443L1425.43 119.789L1426.17 119.107L1426.88 118.397L1427.56 117.66L1428.22 116.895L1428.86 116.104L1429.48 115.288L1430.07 114.447L1430.65 113.582L1431.2 112.695L1431.73 111.786L1432.25 110.858L1432.75 109.912L1433.24 108.95L1433.71 107.973L1434.18 106.983L1434.63 105.983L1435.08 104.975L1435.52 103.96L1435.95 102.94L1436.39 101.919L1436.82 100.897L1437.26 99.878L1437.7 98.8631L1438.15 97.8548L1438.6 96.855L1439.06 95.866L1439.54 94.8896L1440.03 93.9277L1440.53 92.9822L1441.05 92.0548L1441.58 91.1471L1442.13 90.2605L1442.71 89.3964L1443.3 88.556L1443.92 87.7405L1444.56 86.9506L1445.22 86.1871L1445.91 85.4507L1446.62 84.7417L1447.36 84.0605L1448.12 83.407L1448.9 82.7813L1449.71 82.183L1450.54 81.6117L1451.4 81.0668L1452.28 80.5476L1453.18 80.0531L1454.1 79.5823L1455.04 79.134L1456 78.7068L1456.98 78.2992L1457.97 77.9096L1458.98 77.5363L1460 77.1776L1461.03 76.8314L1462.07 76.4958L1463.12 76.1687L1464.18 75.8481L1465.24 75.5319L1466.3 75.2177L1467.36 74.9036L1468.41 74.5872L1469.47 74.2664L1470.52 73.9391L1471.56 73.6032L1472.59 73.2566L1473.61 72.8974L1474.62 72.5236L1475.61 72.1334L1476.59 71.7252L1477.55 71.2973L1478.49 70.8482L1479.41 70.3766L1480.31 69.8814L1481.19 69.3613L1482.04 68.8155L1482.87 68.2433L1483.68 67.6441L1484.47 67.0174L1485.22 66.363L1485.96 65.6808L1486.67 64.9709L1487.36 64.2336L1488.02 63.4692L1488.66 62.6785L1489.27 61.862L1489.87 61.0208L1490.44 60.156L1490.99 59.2687L1491.53 58.3602L1492.04 57.4322L1492.55 56.4861L1493.03 55.5237L1493.51 54.5469L1493.97 53.5574L1494.42 52.5574L1494.87 51.5487L1495.31 50.5337L1495.75 49.5143L1496.18 48.4928L1496.62 47.4713L1497.05 46.4521L1497.49 45.4372L1497.94 44.4288L1498.39 43.4291L1498.86 42.44L1499.33 41.4636L1499.82 40.5018L1500.32 39.5563L1500.84 38.6289L1501.37 37.7211L1501.93 36.8345L1502.5 35.9705L1503.1 35.1301L1503.71 34.3145L1504.35 33.5246L1505.01 32.7612L1505.7 32.0248L1506.41 31.3158L1507.15 30.6346L1507.91 29.9811L1508.69 29.3553L1509.5 28.757L1510.33 28.1857L1511.19 27.6409L1512.07 27.1216L1512.97 26.6272L1513.89 26.1564L1514.83 25.7081L1515.79 25.2808L1516.77 24.8732L1517.76 24.4837L1518.77 24.1104L1519.79 23.7516L1520.82 23.4054L1521.87 23.0698L1522.91 22.7428L1523.97 22.4222L1525.03 22.1059L1526.09 21.7918L1527.15 21.4776" stroke="#E3EEC1" stroke-width="5" stroke-miterlimit="10" stroke-linecap="round" stroke-linejoin="round"/>
<path d="M1326.91 398.731L1327.96 398.41L1329.01 398.083L1330.05 397.747L1331.08 397.4L1332.1 397.041L1333.11 396.667L1334.1 396.277L1335.08 395.869L1336.04 395.441L1336.98 394.992L1337.9 394.52L1338.8 394.025L1339.68 393.505L1340.53 392.959L1341.37 392.387L1342.17 391.788L1342.96 391.161L1343.72 390.506L1344.45 389.824L1345.16 389.114L1345.85 388.377L1346.51 387.613L1347.15 386.822L1347.76 386.006L1348.36 385.164L1348.93 384.299L1349.49 383.412L1350.02 382.504L1350.54 381.576L1351.04 380.63L1351.53 379.667L1352 378.69L1352.46 377.701L1352.92 376.701L1353.36 375.692L1353.8 374.677L1354.24 373.658L1354.67 372.636L1355.11 371.615L1355.55 370.596L1355.99 369.581L1356.43 368.572L1356.89 367.573L1357.35 366.584L1357.82 365.607L1358.31 364.645L1358.81 363.7L1359.33 362.772L1359.87 361.865L1360.42 360.978L1360.99 360.114L1361.59 359.274L1362.21 358.458L1362.85 357.668L1363.51 356.905L1364.19 356.168L1364.91 355.459L1365.64 354.778L1366.4 354.125L1367.19 353.499L1367.99 352.901L1368.83 352.329L1369.68 351.784L1370.56 351.265L1371.46 350.771L1372.38 350.3L1373.33 349.852L1374.29 349.424L1375.26 349.017L1376.26 348.627L1377.27 348.254L1378.29 347.895L1379.32 347.549L1380.36 347.213L1381.41 346.886L1382.46 346.566L1383.52 346.249L1384.58 345.935L1385.64 345.621L1386.7 345.305L1387.75 344.984L1388.8 344.657L1389.84 344.321L1390.87 343.974L1391.89 343.615L1392.9 343.241L1393.89 342.851L1394.87 342.443L1395.83 342.015L1396.77 341.566L1397.69 341.094L1398.59 340.599L1399.47 340.079L1400.33 339.533L1401.16 338.961L1401.97 338.362L1402.75 337.735L1403.51 337.081L1404.24 336.398L1404.95 335.688L1405.64 334.951L1406.3 334.187L1406.94 333.396L1407.56 332.58L1408.15 331.738L1408.72 330.874L1409.28 329.986L1409.81 329.078L1410.33 328.15L1410.83 327.204L1411.32 326.241L1411.79 325.264L1412.26 324.275L1412.71 323.275L1413.15 322.266L1413.6 321.251L1414.03 320.232L1414.47 319.21L1414.9 318.189L1415.34 317.17L1415.78 316.155L1416.22 315.146L1416.68 314.147L1417.14 313.158L1417.62 312.181L1418.1 311.219L1418.61 310.274L1419.12 309.346L1419.66 308.439L1420.21 307.552L1420.79 306.688L1421.38 305.848L1422 305.032L1422.64 304.242L1423.3 303.479L1423.99 302.742L1424.7 302.033L1425.43 301.352L1426.19 300.699L1426.98 300.073L1427.79 299.475L1428.62 298.903L1429.48 298.358L1430.35 297.839L1431.26 297.345L1432.18 296.874L1433.12 296.426L1434.08 295.998L1435.06 295.591L1436.05 295.201L1437.06 294.828L1438.08 294.469L1439.11 294.123L1440.15 293.787L1441.2 293.46L1442.25 293.14L1443.31 292.823L1444.37 292.509L1445.43 292.195L1446.49 291.879L1447.55 291.558L1448.59 291.231L1449.64 290.895L1450.67 290.548L1451.69 290.189L1452.69 289.815L1453.69 289.425L1454.66 289.017L1455.62 288.589L1456.56 288.14L1457.49 287.668L1458.39 287.173L1459.26 286.653L1460.12 286.107L1460.95 285.535L1461.76 284.936L1462.54 284.309L1463.3 283.655L1464.04 282.972L1464.75 282.263L1465.43 281.525L1466.09 280.761L1466.73 279.97L1467.35 279.154L1467.94 278.312L1468.52 277.448L1469.07 276.56L1469.6 275.652L1470.12 274.724L1470.62 273.778L1471.11 272.815L1471.58 271.838L1472.05 270.849L1472.5 269.849L1472.95 268.84L1473.39 267.825L1473.82 266.806L1474.26 265.784L1474.69 264.763L1475.13 263.744L1475.57 262.729L1476.02 261.72L1476.47 260.721L1476.93 259.732L1477.41 258.755L1477.9 257.793L1478.4 256.848L1478.92 255.92L1479.45 255.013L1480 254.126L1480.58 253.262L1481.17 252.422L1481.79 251.606L1482.43 250.816L1483.09 250.053L1483.78 249.316L1484.49 248.607L1485.23 247.926L1485.99 247.273L1486.77 246.647L1487.58 246.049L1488.41 245.477L1489.27 244.932L1490.15 244.413L1491.05 243.919L1491.97 243.448L1492.91 243L1493.87 242.572L1494.85 242.165L1495.84 241.775L1496.85 241.402L1497.87 241.043L1498.9 240.697L1499.94 240.361L1500.99 240.034L1502.05 239.714L1503.11 239.398L1504.17 239.083L1505.23 238.769L1506.28 238.453L1507.34 238.132L1508.39 237.805L1509.43 237.469L1510.46 237.122L1511.48 236.763L1512.49 236.389L1513.48 235.999L1514.46 235.591L1515.42 235.163L1516.36 234.714L1517.28 234.242L1518.18 233.747L1519.06 233.227L1519.91 232.681L1520.74 232.109L1521.55 231.51L1522.34 230.883L1523.09 230.229L1523.83 229.546L1524.54 228.837L1525.23 228.099L1525.89 227.335L1526.53 226.544L1527.14 225.728L1527.74 224.886L1528.31 224.022L1528.86 223.134L1529.4 222.226L1529.91 221.298L1530.42 220.352L1530.9 219.389L1531.38 218.413L1531.84 217.423L1532.29 216.423L1532.74 215.414L1533.18 214.399L1533.62 213.38L1534.05 212.358L1534.49 211.337L1534.92 210.318L1535.36 209.303L1535.81 208.294L1536.26 207.295L1536.73 206.306L1537.2 205.329L1537.69 204.367L1538.19 203.422L1538.71 202.494L1539.24 201.587L1539.8 200.7L1540.37 199.836L1540.97 198.996L1541.58 198.18L1542.22 197.39L1542.88 196.627L1543.57 195.89L1544.28 195.181L1545.02 194.5L1545.78 193.847L1546.56 193.221L1547.37 192.623L1548.2 192.051L1549.06 191.506L1549.94 190.987L1550.84 190.493L1551.76 190.022L1552.7 189.574L1553.66 189.146L1554.64 188.739L1555.63 188.349L1556.64 187.976L1557.66 187.617L1558.69 187.271L1559.74 186.935L1560.78 186.608L1561.84 186.288L1562.9 185.972L1563.96 185.657L1565.02 185.343L1566.08 185.027L1567.13 184.706L1568.18 184.379L1569.22 184.043L1570.25 183.696L1571.27 183.337L1572.28 182.963L1573.27 182.573L1574.25 182.165L1575.21 181.737L1576.15 181.288L1577.07 180.816L1577.97 180.321L1578.85 179.801L1579.7 179.255L1580.54 178.683L1581.34 178.084L1582.13 177.457L1582.89 176.803L1583.62 176.121L1584.33 175.411L1585.02 174.673L1585.68 173.909L1586.32 173.118L1586.93 172.302L1587.53 171.461L1588.1 170.596L1588.65 169.708L1589.19 168.8L1589.71 167.872L1590.21 166.926L1590.7 165.963L1591.17 164.987L1591.63 163.997L1592.09 162.997L1592.53 161.988L1592.97 160.973L1593.41 159.954L1593.84 158.932L1594.28 157.911L1594.71 156.892L1595.16 155.877L1595.6 154.869L1596.06 153.869L1596.52 152.88L1596.99 151.903L1597.48 150.941L1597.98 149.996L1598.5 149.069L1599.04 148.161L1599.59 147.274L1600.16 146.41L1600.76 145.57L1601.37 144.754L1602.01 143.964L1602.68 143.201L1603.36 142.464L1604.07 141.756L1604.81 141.074L1605.57 140.421L1606.36 139.795L1607.16 139.197L1608 138.625L1608.85 138.081L1609.73 137.561L1610.63 137.067L1611.55 136.596L1612.5 136.148L1613.46 135.721L1614.43 135.313L1615.43 134.923L1616.43 134.55L1617.46 134.191L1618.49 133.845L1619.53 133.51L1620.58 133.182L1621.63 132.862L1622.69 132.546L1623.75 132.231L1624.81 131.917" stroke="#E3EEC1" stroke-width="5" stroke-miterlimit="10" stroke-linecap="round" stroke-linejoin="round"/>
<path d="M1342.8 419.593L1343.85 419.272L1344.9 418.945L1345.94 418.609L1346.97 418.262L1347.99 417.903L1349 417.529L1350 417.139L1350.97 416.731L1351.93 416.303L1352.87 415.854L1353.79 415.382L1354.69 414.887L1355.57 414.367L1356.43 413.821L1357.26 413.249L1358.07 412.65L1358.85 412.023L1359.61 411.369L1360.34 410.686L1361.05 409.977L1361.74 409.239L1362.4 408.475L1363.04 407.684L1363.66 406.868L1364.25 406.027L1364.82 405.162L1365.38 404.274L1365.91 403.366L1366.43 402.438L1366.93 401.492L1367.42 400.529L1367.89 399.553L1368.36 398.563L1368.81 397.563L1369.26 396.554L1369.7 395.539L1370.13 394.52L1370.57 393.498L1371 392.477L1371.44 391.458L1371.88 390.443L1372.32 389.434L1372.78 388.435L1373.24 387.446L1373.72 386.469L1374.2 385.507L1374.71 384.562L1375.22 383.635L1375.76 382.727L1376.31 381.84L1376.89 380.976L1377.48 380.136L1378.1 379.32L1378.74 378.53L1379.4 377.767L1380.09 377.03L1380.8 376.321L1381.53 375.64L1382.29 374.987L1383.08 374.361L1383.89 373.763L1384.72 373.191L1385.58 372.647L1386.46 372.127L1387.36 371.633L1388.28 371.162L1389.22 370.714L1390.18 370.286L1391.16 369.879L1392.15 369.489L1393.16 369.116L1394.18 368.757L1395.21 368.411L1396.25 368.075L1397.3 367.748L1398.35 367.428L1399.41 367.112L1400.47 366.797L1401.53 366.483L1402.59 366.167L1403.65 365.846L1404.69 365.519L1405.74 365.183L1406.77 364.836L1407.79 364.477L1408.79 364.103L1409.79 363.713L1410.76 363.305L1411.72 362.877L1412.66 362.428L1413.59 361.956L1414.49 361.461L1415.36 360.941L1416.22 360.395L1417.05 359.823L1417.86 359.224L1418.64 358.597L1419.4 357.943L1420.14 357.261L1420.85 356.551L1421.53 355.813L1422.2 355.049L1422.83 354.258L1423.45 353.442L1424.04 352.601L1424.62 351.736L1425.17 350.848L1425.71 349.94L1426.22 349.012L1426.72 348.066L1427.21 347.103L1427.68 346.127L1428.15 345.137L1428.6 344.137L1429.05 343.128L1429.49 342.113L1429.92 341.094L1430.36 340.073L1430.79 339.051L1431.23 338.032L1431.67 337.017L1432.12 336.009L1432.57 335.009L1433.03 334.02L1433.51 333.043L1434 332.081L1434.5 331.136L1435.02 330.209L1435.55 329.301L1436.11 328.414L1436.68 327.55L1437.27 326.71L1437.89 325.894L1438.53 325.104L1439.19 324.341L1439.88 323.604L1440.59 322.896L1441.33 322.214L1442.09 321.561L1442.87 320.935L1443.68 320.337L1444.51 319.765L1445.37 319.221L1446.25 318.701L1447.15 318.207L1448.07 317.736L1449.01 317.288L1449.97 316.861L1450.95 316.453L1451.94 316.063L1452.95 315.69L1453.97 315.331L1455 314.985L1456.04 314.65L1457.09 314.323L1458.15 314.002L1459.21 313.686L1460.27 313.372L1461.33 313.057L1462.38 312.741L1463.44 312.42L1464.49 312.093L1465.53 311.757L1466.56 311.41L1467.58 311.051L1468.59 310.677L1469.58 310.287L1470.56 309.879L1471.52 309.451L1472.46 309.002L1473.38 308.53L1474.28 308.035L1475.16 307.515L1476.01 306.969L1476.84 306.397L1477.65 305.798L1478.44 305.171L1479.19 304.517L1479.93 303.835L1480.64 303.125L1481.33 302.387L1481.99 301.623L1482.63 300.832L1483.24 300.016L1483.84 299.175L1484.41 298.31L1484.96 297.422L1485.5 296.514L1486.01 295.586L1486.52 294.64L1487 293.678L1487.48 292.701L1487.94 291.711L1488.39 290.711L1488.84 289.703L1489.28 288.687L1489.72 287.668L1490.15 286.647L1490.59 285.625L1491.02 284.606L1491.46 283.591L1491.91 282.583L1492.36 281.583L1492.83 280.594L1493.3 279.617L1493.79 278.656L1494.29 277.71L1494.81 276.783L1495.34 275.875L1495.9 274.988L1496.47 274.124L1497.07 273.284L1497.68 272.468L1498.32 271.678L1498.99 270.915L1499.67 270.179L1500.38 269.47L1501.12 268.788L1501.88 268.135L1502.66 267.509L1503.47 266.911L1504.3 266.34L1505.16 265.795L1506.04 265.275L1506.94 264.781L1507.86 264.31L1508.8 263.862L1509.76 263.435L1510.74 263.027L1511.73 262.637L1512.74 262.264L1513.76 261.905L1514.8 261.559L1515.84 261.224L1516.89 260.897L1517.94 260.576L1519 260.26L1520.06 259.946L1521.12 259.631L1522.18 259.315L1523.23 258.994L1524.28 258.667L1525.32 258.331L1526.35 257.984L1527.37 257.625L1528.38 257.251L1529.37 256.861L1530.35 256.453L1531.31 256.025L1532.25 255.576L1533.17 255.104L1534.07 254.609L1534.95 254.089L1535.8 253.543L1536.64 252.971L1537.44 252.372L1538.23 251.745L1538.99 251.091L1539.72 250.409L1540.43 249.699L1541.12 248.961L1541.78 248.197L1542.42 247.406L1543.03 246.59L1543.63 245.749L1544.2 244.884L1544.76 243.996L1545.29 243.088L1545.81 242.16L1546.31 241.214L1546.8 240.252L1547.27 239.275L1547.73 238.285L1548.19 237.285L1548.63 236.277L1549.07 235.262L1549.51 234.242L1549.94 233.221L1550.38 232.199L1550.81 231.18L1551.26 230.165L1551.7 229.157L1552.16 228.157L1552.62 227.168L1553.09 226.191L1553.58 225.23L1554.08 224.284L1554.6 223.357L1555.14 222.449L1555.69 221.562L1556.26 220.698L1556.86 219.858L1557.48 219.042L1558.11 218.252L1558.78 217.489L1559.46 216.753L1560.18 216.044L1560.91 215.362L1561.67 214.709L1562.46 214.083L1563.26 213.485L1564.1 212.914L1564.95 212.369L1565.83 211.849L1566.73 211.355L1567.65 210.884L1568.6 210.436L1569.56 210.009L1570.53 209.601L1571.53 209.211L1572.53 208.838L1573.56 208.479L1574.59 208.133L1575.63 207.798L1576.68 207.471L1577.73 207.15L1578.79 206.834L1579.85 206.52L1580.91 206.205L1581.97 205.889L1583.02 205.568L1584.07 205.241L1585.11 204.905L1586.14 204.558L1587.16 204.199L1588.17 203.825L1589.16 203.435L1590.14 203.027L1591.1 202.599L1592.04 202.15L1592.96 201.679L1593.86 201.183L1594.74 200.663L1595.6 200.117L1596.43 199.545L1597.24 198.946L1598.02 198.319L1598.78 197.665L1599.51 196.983L1600.22 196.273L1600.91 195.535L1601.57 194.771L1602.21 193.98L1602.83 193.164L1603.42 192.323L1603.99 191.458L1604.55 190.571L1605.08 189.662L1605.6 188.734L1606.1 187.788L1606.59 186.826L1607.06 185.849L1607.52 184.859L1607.98 183.859L1608.42 182.851L1608.86 181.836L1609.3 180.816L1609.74 179.795L1610.17 178.773L1610.61 177.754L1611.05 176.739L1611.49 175.731L1611.95 174.731L1612.41 173.742L1612.89 172.765L1613.37 171.804L1613.87 170.858L1614.39 169.931L1614.93 169.023L1615.48 168.136L1616.06 167.272L1616.65 166.432L1617.27 165.616L1617.91 164.827L1618.57 164.063L1619.26 163.327L1619.97 162.618L1620.7 161.936L1621.46 161.283L1622.25 160.657L1623.06 160.059L1623.89 159.488L1624.75 158.943L1625.62 158.424L1626.53 157.929L1627.45 157.458L1628.39 157.01L1629.35 156.583L1630.33 156.175L1631.32 155.786L1632.33 155.412L1633.35 155.053L1634.38 154.707L1635.42 154.372L1636.47 154.045L1637.52 153.724L1638.58 153.408L1639.64 153.094L1640.7 152.78" stroke="#E3EEC1" stroke-width="5" stroke-miterlimit="10" stroke-linecap="round" stroke-linejoin="round"/>
</g>
</svg>
