<svg width="32" height="32" viewBox="0 0 32 32" fill="none" xmlns="http://www.w3.org/2000/svg">
<g clip-path="url(#clip0_664_23098)">
<path fill-rule="evenodd" clip-rule="evenodd" d="M16 0C24.8366 0 32 7.16344 32 16C32 24.8366 24.8366 32 16 32C7.16344 32 0 24.8366 0 16C0 7.16344 7.16344 0 16 0ZM17.2878 23.3143V21.2535C17.2878 18.7331 15.2764 16.6823 12.8038 16.6823H10.3274C7.85506 16.6823 5.84375 18.7331 5.84375 21.2535V23.3143H17.2878ZM11.5658 14.9405C12.9966 14.9405 14.1614 13.7754 14.1614 12.3446C14.1614 10.9138 12.9966 9.74894 11.5658 9.74894C10.1348 9.74894 8.97006 10.9137 8.97006 12.3446C8.97006 13.7755 10.1348 14.9405 11.5658 14.9405ZM20.4343 12.5976C21.8651 12.5976 23.03 11.4327 23.03 10.0019C23.03 8.57106 21.8651 7.40619 20.4343 7.40619C19.0035 7.40619 17.8386 8.571 17.8386 10.0019C17.8386 11.4327 19.0034 12.5976 20.4343 12.5976ZM26.1563 20.9716V18.9108C26.1563 16.3904 24.1449 14.3396 21.6726 14.3396H19.196C17.8491 14.3396 16.5795 14.9681 15.7329 16.0175C17.451 17.0109 18.6352 18.8496 18.7319 20.9716H26.1563Z" fill="#134173"/>
</g>
<defs>
<clipPath id="clip0_664_23098">
<rect width="32" height="32" fill="white"/>
</clipPath>
</defs>
</svg>
