<svg width="574" height="440" viewBox="0 0 574 440" fill="none" xmlns="http://www.w3.org/2000/svg">
<path d="M85.7019 55.5115C39.9077 88.0561 4.74615 143.005 0.43211 204.104C-3.58797 261.039 20.7135 319.481 62.0043 352.177C92.1623 376.058 129.041 386.043 165.242 393.419C239.627 408.576 315.429 414.773 390.963 411.872C425.641 410.541 461.329 406.969 492.19 388.979C594.257 329.482 578.697 182.089 503.851 106.942C436.085 38.9029 375.936 21.9232 286.84 13.2119C218.204 6.50091 145.45 13.0504 85.7019 55.5115Z" fill="#D4F8FF"/>
<path d="M300.297 440C451.062 440 573.282 435.195 573.282 429.268C573.282 423.341 451.062 418.536 300.297 418.536C149.531 418.536 27.3113 423.341 27.3113 429.268C27.3113 435.195 149.531 440 300.297 440Z" fill="#B0E8F2"/>
<path d="M431.775 204.38V353.863L407.844 356.151L342.394 362.406L145.382 381.233L129.856 218.771L113.683 49.5456L111.694 28.7228L412.244 0.000488281L414.233 20.8232L415.311 32.0998L415.843 37.6559L416.148 40.8472L416.693 46.5556L416.943 49.1848L417.311 53.0172L431.775 204.38Z" fill="#B4C0D0"/>
<path opacity="0.51" d="M404.091 166.201L151.638 190.318L167.392 355.23L419.845 331.113L404.091 166.201Z" fill="#DADCF5"/>
<path d="M183.076 228.911C187.378 228.5 190.529 224.641 190.113 220.292C189.698 215.942 185.874 212.75 181.572 213.161C177.27 213.572 174.12 217.431 174.535 221.78C174.951 226.129 178.775 229.322 183.076 228.911Z" fill="#DADCF5"/>
<path d="M186.213 261.807C190.515 261.396 193.665 257.537 193.25 253.188C192.834 248.838 189.01 245.646 184.708 246.057C180.407 246.468 177.256 250.327 177.672 254.676C178.087 259.025 181.911 262.218 186.213 261.807Z" fill="#DADCF5"/>
<path d="M189.354 294.697C193.656 294.286 196.806 290.428 196.391 286.078C195.975 281.729 192.151 278.536 187.85 278.947C183.548 279.358 180.398 283.217 180.813 287.566C181.229 291.916 185.053 295.108 189.354 294.697Z" fill="#DADCF5"/>
<path d="M192.502 327.589C196.803 327.177 199.953 323.318 199.537 318.969C199.121 314.62 195.297 311.427 190.995 311.839C186.694 312.25 183.544 316.109 183.96 320.459C184.376 324.808 188.2 328 192.502 327.589Z" fill="#DADCF5"/>
<path d="M345.599 201.707L202.579 215.37L203.419 224.171L346.44 210.508L345.599 201.707Z" fill="#DADCF5"/>
<path d="M348.696 234.134L205.676 247.796L206.517 256.598L349.537 242.935L348.696 234.134Z" fill="#DADCF5"/>
<path d="M351.794 266.56L208.774 280.223L209.615 289.024L352.635 275.361L351.794 266.56Z" fill="#DADCF5"/>
<path d="M354.892 298.987L211.872 312.65L212.713 321.451L355.733 307.789L354.892 298.987Z" fill="#DADCF5"/>
<path d="M392.092 222.28L360.267 225.32L362.523 248.934L394.348 245.893L392.092 222.28Z" fill="#6FC4B5"/>
<path d="M390.775 223.792L361.846 226.555L363.84 247.422L392.768 244.659L390.775 223.792Z" fill="white"/>
<path d="M385.885 231.518C385.482 228.752 383.144 226.861 380.447 227.119C380.368 227.126 380.286 227.136 380.205 227.147C378.47 227.39 377.29 228.775 376.748 229.565C376.075 228.882 374.67 227.723 372.918 227.786C372.808 227.79 372.698 227.797 372.59 227.808C369.939 228.061 368.007 230.327 368.096 233.077C368.18 235.68 370.047 237.783 371.444 239.139C373.262 240.903 375.998 242.727 377.761 243.617L378.006 243.74L378.225 243.576C379.804 242.393 382.177 240.121 383.656 238.068C384.793 236.49 386.261 234.095 385.885 231.518Z" fill="#6FC4B5"/>
<path d="M383.047 73.6243L250.06 86.3337C249.967 86.3426 249.885 86.2744 249.876 86.1815L249.421 81.4228C249.412 81.3299 249.48 81.2472 249.573 81.2383L382.56 68.5291C382.653 68.5202 382.735 68.5884 382.744 68.6813L383.199 73.44C383.208 73.5329 383.14 73.6154 383.047 73.6243Z" fill="#DADCF5"/>
<path d="M384.685 90.7633L251.698 103.472C251.605 103.481 251.522 103.413 251.514 103.32L251.059 98.5616C251.05 98.4685 251.118 98.386 251.211 98.3771L384.198 85.6678C384.291 85.6588 384.373 85.7271 384.382 85.82L384.837 90.5787C384.846 90.6719 384.778 90.7545 384.685 90.7633Z" fill="#DADCF5"/>
<path d="M342.798 112.062L253.336 120.612C253.243 120.621 253.16 120.552 253.151 120.459L252.697 115.701C252.688 115.608 252.756 115.525 252.849 115.516L342.311 106.967C342.404 106.958 342.486 107.026 342.495 107.119L342.95 111.878C342.959 111.97 342.891 112.053 342.798 112.062Z" fill="#DADCF5"/>
<path d="M344.436 129.201L254.974 137.751C254.881 137.76 254.799 137.691 254.79 137.599L254.335 132.84C254.326 132.747 254.394 132.664 254.487 132.655L343.949 124.106C344.042 124.097 344.125 124.165 344.133 124.258L344.588 129.017C344.597 129.11 344.529 129.192 344.436 129.201Z" fill="#DADCF5"/>
<mask id="mask0_586_17583" style="mask-type:luminance" maskUnits="userSpaceOnUse" x="144" y="72" width="93" height="93">
<path d="M190.679 164.119C216.109 164.119 236.725 143.504 236.725 118.073C236.725 92.6431 216.109 72.0278 190.679 72.0278C165.249 72.0278 144.634 92.6431 144.634 118.073C144.634 143.504 165.249 164.119 190.679 164.119Z" fill="white"/>
</mask>
<g mask="url(#mask0_586_17583)">
<path d="M190.679 164.119C216.109 164.119 236.725 143.504 236.725 118.074C236.725 92.6436 216.109 72.0283 190.679 72.0283C165.249 72.0283 144.634 92.6436 144.634 118.074C144.634 143.504 165.249 164.119 190.679 164.119Z" fill="white"/>
</g>
<mask id="mask1_586_17583" style="mask-type:luminance" maskUnits="userSpaceOnUse" x="144" y="72" width="93" height="93">
<path d="M190.679 164.119C216.109 164.119 236.725 143.504 236.725 118.073C236.725 92.6431 216.109 72.0278 190.679 72.0278C165.249 72.0278 144.634 92.6431 144.634 118.073C144.634 143.504 165.249 164.119 190.679 164.119Z" fill="white"/>
</mask>
<g mask="url(#mask1_586_17583)">
<path d="M153.893 175.604C159.643 192.325 172.52 200.227 172.52 200.227C172.52 200.227 170.438 161.07 170.556 160.561C170.673 160.051 153.007 148.953 153.007 148.953C153.007 148.953 152.684 149.608 152.303 150.87C151.832 152.436 151.273 154.928 151.122 158.253C150.926 162.659 151.459 168.523 153.893 175.604Z" fill="#DDBAAB"/>
<path opacity="0.6" d="M223.363 153.824C223.682 153.999 225.729 153.1 226.168 153.001C227.254 152.761 228.362 152.609 229.475 152.549C230.85 152.478 232.232 152.548 233.591 152.764C233.103 148.599 232.27 146.138 231.734 145.083C231.316 145.183 230.895 145.472 230.55 145.757C229.644 146.498 222.161 153.158 223.363 153.824Z" fill="#845A49"/>
<path opacity="0.6" d="M151.122 158.254C152.299 157.852 153.517 157.563 154.753 157.392C155.858 157.24 156.98 157.093 158.087 157.209C159.281 157.338 160.474 157.582 162.227 158.411C163.282 157.53 153.441 151.482 152.412 150.927C152.376 150.907 152.341 150.887 152.303 150.871C151.832 152.437 151.273 154.928 151.122 158.254Z" fill="#845A49"/>
<path d="M167.147 161.384L168.271 186.555L222.185 182.571L218.716 157.12L231.765 145.411C231.765 145.411 222.291 125.025 211.374 120.256C207.845 118.713 204.753 117.528 202.077 116.631C201.964 116.595 201.85 116.556 201.741 116.52C201.127 116.317 200.531 116.131 199.963 115.959C199.854 115.927 199.748 115.894 199.642 115.864C195.021 114.492 191.917 114.131 190.217 114.344C186.988 114.745 184.08 114.797 178.647 117.196C178.541 117.243 178.433 117.29 178.325 117.34C177.834 117.559 177.326 117.801 176.793 118.061C176.688 118.114 176.58 118.164 176.473 118.221C174.085 119.406 171.255 121.001 167.813 123.17C151.238 133.615 151.884 149.894 151.884 149.894L167.147 161.384Z" fill="white"/>
<path d="M178.325 117.34C178.487 118.929 179.526 120.218 181.483 121.266C183.314 122.247 185.764 122.451 187.495 122.449C188.132 122.447 188.77 122.416 189.409 122.355C191.508 122.155 193.591 121.634 195.522 120.818C196.678 120.329 198.326 119.51 199.285 118.037C199.665 117.46 199.919 116.715 199.963 115.96C199.854 115.927 199.748 115.894 199.642 115.864C199.611 116.585 199.374 117.301 199.009 117.858C198.316 118.92 197.165 119.764 195.393 120.515C192.916 121.559 190.186 122.115 187.496 122.116C185.802 122.119 183.409 121.922 181.638 120.976C179.713 119.947 178.75 118.734 178.647 117.196C178.541 117.243 178.433 117.29 178.325 117.34Z" fill="#E5E5E5"/>
<path d="M176.473 118.221C176.481 118.307 176.492 118.389 176.506 118.464C176.834 120.299 178.35 121.981 180.562 122.958C182.352 123.751 184.539 124.116 187.241 124.07C187.994 124.058 188.747 124.016 189.501 123.944C191.979 123.707 194.446 123.149 196.737 122.303C198.11 121.796 200.068 120.948 201.225 119.463C201.78 118.745 202.096 117.666 202.077 116.631C201.964 116.596 201.85 116.557 201.741 116.521C201.779 117.516 201.492 118.58 200.963 119.258C200.123 120.338 198.741 121.208 196.624 121.991C193.67 123.084 190.426 123.69 187.236 123.742C184.58 123.783 182.444 123.43 180.696 122.657C178.584 121.723 177.14 120.134 176.832 118.406C176.813 118.302 176.802 118.187 176.793 118.061C176.689 118.114 176.58 118.165 176.473 118.221Z" fill="#E5E5E5"/>
<path d="M201.112 115.016C201.112 115.016 200.164 111.882 198.974 111.102C195.767 109 181.39 110.047 180.007 111.337C178.321 112.91 178.651 116.36 178.651 116.36L201.112 115.016Z" fill="#ABD6CF"/>
<path d="M179.672 116.91C179.53 117.82 180.117 118.555 180.905 119.03C183.46 120.575 191.322 122.15 197.369 117.586C198.119 117.02 198.483 116.072 198.328 115.143L198.049 113.48L197.415 109.694L197.408 109.652C197.408 109.652 199.867 110.184 200.885 106.931C201.902 103.679 203.895 92.874 201.598 89.6894C199.301 86.5047 195.161 84.3963 188.586 85.1075C182.012 85.8189 181.901 93.1726 181.901 93.1726C181.901 93.1726 178.022 92.1716 177.606 95.9776C177.24 99.3106 178.847 100.485 181.848 100.614C182.168 100.63 180.336 112.628 179.672 116.91Z" fill="#FFA185"/>
<path d="M190.964 101.05C189.917 100.923 188.992 100.319 188.361 99.3489C187.736 98.3883 187.474 97.1815 187.623 95.951C187.772 94.7205 188.314 93.611 189.15 92.8269C189.994 92.035 191.035 91.6688 192.083 91.7956C193.13 91.9222 194.055 92.526 194.685 93.4962C195.31 94.4568 195.572 95.6635 195.424 96.8943C195.275 98.1249 194.733 99.2344 193.897 100.019C193.249 100.626 192.485 100.983 191.691 101.059C191.451 101.082 191.207 101.079 190.964 101.05ZM189.376 93.0679C188.597 93.7991 188.091 94.8372 187.951 95.9906C187.812 97.1443 188.056 98.2731 188.639 99.1688C189.215 100.055 190.055 100.607 191.004 100.721C191.952 100.836 192.9 100.501 193.671 99.7773C194.45 99.0463 194.956 98.0082 195.096 96.8545C195.235 95.7009 194.991 94.572 194.408 93.6763C193.832 92.7897 192.992 92.2384 192.043 92.1237C191.824 92.0973 191.606 92.0949 191.389 92.1155C190.667 92.1845 189.97 92.5112 189.376 93.0679Z" fill="#364F64"/>
<path d="M203.937 90.1966C204.749 89.0204 205.205 87.5451 204.82 86.1937C204.439 84.8553 203.31 83.8398 202.126 83.043C198.121 80.3489 192.877 79.3946 188.085 80.4877C186.676 80.809 185.278 81.3141 184.167 82.2068C182.612 83.4554 181.76 85.3583 181.444 87.27C181.128 89.1818 181.3 91.1711 181.468 93.0958C182.428 93.2877 183.28 93.8566 183.743 94.6812C184.554 93.482 185.366 92.2828 186.178 91.0834C186.549 90.5346 186.944 89.964 187.541 89.6451C188.19 89.2983 188.971 89.3045 189.711 89.32C193.569 89.4003 197.432 89.3299 201.284 89.5613C201.857 89.5957 202.096 90.671 202.444 92.0247C202.935 91.7957 203.688 90.5577 203.937 90.1966Z" fill="black"/>
<g opacity="0.6">
<path d="M196.887 101.664L196.435 96.9177C196.426 96.8268 196.345 96.7602 196.254 96.7688C196.164 96.7775 196.097 96.8581 196.106 96.9491L196.522 101.324L194.629 101.276C194.536 101.275 194.462 101.345 194.46 101.437C194.457 101.528 194.53 101.604 194.621 101.606L196.887 101.664Z" fill="#38180F"/>
</g>
<path d="M199.465 101.294C199.701 101.325 199.937 101.326 200.17 101.303C202.036 101.125 203.655 99.363 203.935 97.0447C204.25 94.4406 202.759 92.1088 200.609 91.8493C198.458 91.5898 196.452 93.4954 196.136 96.1028C196.12 96.2472 196.108 96.3944 196.101 96.5378C196.097 96.6611 196.095 96.7809 196.097 96.9036C196.137 99.168 197.537 101.063 199.465 101.294ZM196.43 97.0243C196.428 96.9316 196.426 96.8388 196.427 96.7457C196.428 96.5463 196.442 96.3457 196.466 96.1409C196.595 95.0624 197.032 94.1106 197.652 93.4071C198.273 92.7035 199.073 92.2518 199.932 92.1697C200.143 92.1495 200.352 92.1528 200.567 92.1788C202.536 92.4158 203.902 94.5801 203.609 97.006C203.316 99.4286 201.476 101.205 199.504 100.969C197.777 100.758 196.516 99.0686 196.43 97.0243Z" fill="#364F64"/>
<path opacity="0.6" d="M191.526 108.939C190.533 108.623 189.576 108.209 188.637 107.764C191.534 110.313 194.409 112.231 198.049 113.48L197.415 109.695C197.415 109.695 193.453 109.553 191.526 108.939Z" fill="#893F3E"/>
<path d="M192.903 102.986C192.817 104.111 193.979 105.117 195.498 105.233C197.017 105.349 198.318 104.531 198.404 103.406L192.903 102.986Z" fill="white"/>
<path d="M179.952 94.213C179.789 94.2435 179.623 94.2926 179.499 94.4036C179.376 94.5147 179.309 94.7021 179.379 94.8524C180.058 94.8434 180.737 95.1204 181.216 95.6023C181.695 96.084 181.936 96.4351 181.923 97.1143C182.174 97.2645 182.517 97.0874 182.649 96.8264C182.781 96.5655 182.799 96.2515 182.739 95.9653C182.581 95.2151 182.408 95.0294 181.84 94.5655C181.34 94.1574 180.59 94.0823 179.952 94.213Z" fill="#38180F"/>
<path d="M195.196 96.8681C195.25 96.9394 195.354 96.9559 195.426 96.9059C195.618 96.7679 195.898 96.7745 196.097 96.9049C196.139 96.9307 196.175 96.9637 196.209 97.0005C196.242 97.0405 196.298 97.0618 196.35 97.0568C196.38 97.0539 196.409 97.0445 196.43 97.0259C196.428 96.9332 196.426 96.8404 196.427 96.7472C196.335 96.653 196.222 96.5808 196.101 96.5392C195.819 96.4301 195.482 96.4556 195.234 96.6354C195.159 96.689 195.143 96.7935 195.196 96.8681Z" fill="#364F64"/>
<path d="M187.773 95.9957C187.831 95.99 187.885 95.9535 187.91 95.8957C187.945 95.8116 187.906 95.7147 187.822 95.6789C186.905 95.2893 183.822 94.2615 183.691 94.2181C183.606 94.1891 183.511 94.2358 183.482 94.3226C183.453 94.4092 183.5 94.5026 183.587 94.5315C183.618 94.5422 186.788 95.5986 187.693 95.9831C187.719 95.9944 187.746 95.9983 187.773 95.9957Z" fill="#364F64"/>
<path d="M189.404 93.8997C189.403 94.2186 190.513 94.4791 191.883 94.4812C193.252 94.4836 194.363 94.2267 194.363 93.9078C194.364 93.5888 193.254 93.3283 191.885 93.3262C190.515 93.324 189.404 93.5808 189.404 93.8997Z" fill="black"/>
<path d="M197.334 94.0216C197.313 94.3399 198.404 94.6705 199.77 94.7601C201.137 94.8497 202.261 94.6642 202.282 94.346C202.303 94.0277 201.212 93.6971 199.846 93.6075C198.479 93.5179 197.354 93.7034 197.334 94.0216Z" fill="black"/>
<path d="M192.733 96.5243C192.803 97.2564 192.573 97.8774 192.219 97.9113C191.865 97.945 191.521 97.3789 191.451 96.6467C191.382 95.9146 191.612 95.2935 191.966 95.2597C192.319 95.226 192.663 95.7921 192.733 96.5243Z" fill="#38180F"/>
<path d="M200.026 96.889C200.096 97.6212 199.866 98.2421 199.512 98.276C199.158 98.3098 198.815 97.7436 198.745 97.0115C198.675 96.2793 198.905 95.6582 199.259 95.6245C199.613 95.5907 199.956 96.1569 200.026 96.889Z" fill="#38180F"/>
<path d="M237.413 204.502C235.609 169.616 236.625 151.133 229.081 137.028C224.433 128.338 218.426 123.108 209.843 118.587C207.018 117.099 202.914 115.421 200.478 114.112L192.196 163.094L179.385 116.316C176.348 117.343 172.523 119.503 167.75 122.53C152.384 132.268 151.165 144.648 150.672 149.637C150.452 151.85 150.146 156.887 150.219 159.109C150.361 163.516 151.059 169.752 153.492 176.833C155.829 183.63 158.608 187.652 160.979 191.64C161.513 192.539 162.037 193.369 162.545 194.128C163.943 196.213 165.225 197.774 166.288 198.818L166.339 199.464L167.246 210.52L223.323 204.175L223.054 205.721L237.413 204.502Z" fill="#6FC4B5"/>
<path d="M223.323 204.174L217.931 153.051L217.602 153.08L222.993 204.202L223.323 204.174Z" fill="#1D2435"/>
<path opacity="0.82" d="M163.22 156.791L163.055 156.803L163.21 156.747L157.66 141.327L157.348 141.439L162.891 156.838L164.013 172.432C162.726 177.818 161.658 186.762 160.978 191.64C161.512 192.538 162.037 193.368 162.544 194.127C163.942 196.212 165.224 197.773 166.287 198.818C166.287 198.818 165.59 189.32 165.001 181.551L163.22 156.791Z" fill="#1D2435"/>
<path d="M221.469 134.923L217.591 153.041L217.914 153.11L221.792 134.992L221.469 134.923Z" fill="#1D2435"/>
<path d="M166.728 155.27L177.26 154.264L177.027 151.817L166.494 152.824L166.728 155.27Z" fill="#ABD6CF"/>
<path d="M209.937 126.087L202.785 133.288L206.43 138.038L191.898 164.086L196.524 137.497C196.461 137.56 199.431 121.245 199.426 120.335C199.394 115.485 198.617 115.165 198.617 115.165L199.863 112.094L209.937 126.087Z" fill="#ABD6CF"/>
<path d="M193.936 169.294L193.608 169.319L175.214 141.295L177.451 135.846L172.743 129.31L176.983 116.697L179.159 112.533C179.159 112.533 179.898 114.62 179.767 116.293L193.936 169.294Z" fill="#ABD6CF"/>
<path d="M204.156 135.075L209.051 126.98L202.785 133.288L204.156 135.075Z" fill="#1D2435"/>
<path d="M189.073 151.102L192.952 159L192.152 162.623L189.073 151.102Z" fill="#1D2435"/>
</g>
<path d="M236.516 113.694C236.253 110.944 235.754 108.273 235.038 105.699C233.782 101.175 231.86 96.9538 229.396 93.1337C220.365 79.1367 204.026 70.5436 186.298 72.2374C160.984 74.6563 142.423 97.1413 144.842 122.455C146.049 135.068 152.235 146.003 161.272 153.504C164.482 156.17 168.054 158.401 171.89 160.119C178.921 163.27 186.841 164.696 195.06 163.911C220.374 161.492 238.935 139.007 236.516 113.694ZM194.706 160.214C183.312 161.303 172.547 157.734 164.297 151.065C161.086 148.468 158.256 145.402 155.919 141.961C152.085 136.314 149.576 129.652 148.881 122.382C146.674 99.2817 163.61 78.7655 186.712 76.5567C198.223 75.4568 209.092 79.1105 217.373 85.9136C220.904 88.809 223.962 92.2789 226.402 96.1972C229.725 101.534 231.897 107.703 232.536 114.387C234.745 137.489 217.807 158.007 194.706 160.214Z" fill="#DADCF5"/>
<path d="M412.258 0.0179014L111.697 28.7305L113.686 49.5538L414.247 20.8413L412.258 0.0179014Z" fill="#4F6D92"/>
<path opacity="0.3" d="M116.05 32.1696L117.674 49.1582L113.628 49.5452L111.638 28.7224L412.188 0L412.554 3.83257L116.05 32.1696Z" fill="white"/>
<path d="M356.454 21.9498L341.136 23.4131L341.371 25.8732L356.689 24.4099L356.454 21.9498Z" fill="#DADCF5"/>
<path d="M399.305 9.78122L397.399 8.20801L393.288 13.1881L388.308 9.07676L386.734 10.9824L391.715 15.0938L387.603 20.074L389.509 21.6473L393.62 16.667L398.6 20.7784L400.174 18.8727L395.194 14.7614L399.305 9.78122Z" fill="#DADCF5"/>
<path d="M378.578 9.1333L363.262 10.5976L364.51 23.6452L379.824 22.1809L378.578 9.1333ZM366.641 21.5345L365.771 12.4263L376.461 11.4051L377.331 20.5116L366.641 21.5345Z" fill="#DADCF5"/>
<path d="M395.28 255.653L363.456 258.693L365.711 282.307L397.536 279.266L395.28 255.653Z" fill="#6FC4B5"/>
<path d="M393.963 257.165L365.035 259.928L367.028 280.795L395.956 278.032L393.963 257.165Z" fill="white"/>
<path d="M388.672 265.631L382.769 266.195L382.205 260.292L377.168 260.774L377.732 266.676L371.83 267.241L372.311 272.278L378.214 271.713L378.778 277.616L383.815 277.135L383.251 271.232L389.153 270.668L388.672 265.631Z" fill="#6FC4B5"/>
<path d="M398.31 287.364L366.485 290.404L368.741 314.018L400.565 310.978L398.31 287.364Z" fill="#6FC4B5"/>
<path d="M370.051 312.452L398.979 309.688L396.986 288.822L368.058 291.585L370.051 312.452Z" fill="white"/>
<path d="M391.909 299.863C391.466 295.231 387.353 291.835 382.721 292.278C380.797 292.461 379.087 293.278 377.776 294.503C377.329 294.919 376.929 295.383 376.584 295.886C375.497 297.461 374.939 299.413 375.135 301.466C375.578 306.098 379.691 309.494 384.324 309.051C386.377 308.855 388.188 307.937 389.529 306.572C389.957 306.138 390.337 305.657 390.66 305.139C391.615 303.621 392.093 301.786 391.909 299.863Z" fill="#6FC4B5"/>
<path d="M376.384 296.189L389.268 306.825C389.715 306.41 390.115 305.946 390.46 305.443L377.515 294.757C377.087 295.191 376.707 295.672 376.384 296.189Z" fill="white"/>
<path d="M388.947 189.367L357.123 192.407L359.379 216.021L391.203 212.981L388.947 189.367Z" fill="#6FC4B5"/>
<path d="M387.631 190.879L358.702 193.643L360.696 214.509L389.624 211.746L387.631 190.879Z" fill="white"/>
<path d="M369.476 208.768L367.743 203.929C367.265 202.596 366.972 201.203 366.886 199.79C366.877 199.628 366.873 199.504 366.876 199.439L366.957 197.929C367.014 196.884 367.584 195.934 368.48 195.392L368.97 195.096C369.783 194.605 370.773 194.505 371.668 194.824L373.467 195.466C373.717 195.555 373.994 195.525 374.219 195.385L375.541 194.567C376.439 194.011 377.555 193.94 378.516 194.377C379.414 194.786 380.07 195.59 380.29 196.552L380.739 198.519C380.759 198.604 380.786 198.813 380.816 199.082C380.96 200.384 380.929 201.701 380.733 202.996L380.014 207.729C379.943 208.456 378.819 213.437 376.697 208.448L375.14 204.988C374.757 204.618 374.135 204.674 373.825 205.107L372.862 208.849C372.44 209.438 371.84 213.825 369.476 208.768Z" fill="#6FC4B5"/>
<path d="M437.387 34.5264H135.468V388.643H437.387V34.5264Z" fill="#6882A1"/>
<path opacity="0.51" d="M413.455 199.173H159.861V364.831H413.455V199.173Z" fill="#DADCF5"/>
<path d="M187.475 240.587C191.797 240.587 195.3 237.046 195.3 232.677C195.3 228.308 191.797 224.766 187.475 224.766C183.154 224.766 179.651 228.308 179.651 232.677C179.651 237.046 183.154 240.587 187.475 240.587Z" fill="#F0F4F8"/>
<path d="M187.475 273.625C191.797 273.625 195.3 270.084 195.3 265.715C195.3 261.346 191.797 257.804 187.475 257.804C183.154 257.804 179.651 261.346 179.651 265.715C179.651 270.084 183.154 273.625 187.475 273.625Z" fill="#F0F4F8"/>
<path d="M187.475 306.665C191.797 306.665 195.3 303.123 195.3 298.754C195.3 294.385 191.797 290.843 187.475 290.843C183.154 290.843 179.651 294.385 179.651 298.754C179.651 303.123 183.154 306.665 187.475 306.665Z" fill="#F0F4F8"/>
<path d="M187.475 339.703C191.797 339.703 195.3 336.161 195.3 331.792C195.3 327.424 191.797 323.882 187.475 323.882C183.154 323.882 179.651 327.424 179.651 331.792C179.651 336.161 183.154 339.703 187.475 339.703Z" fill="#F0F4F8"/>
<path d="M351.853 228.954H208.186V237.795H351.853V228.954Z" fill="#F0F4F8"/>
<path d="M351.853 261.527H208.186V270.369H351.853V261.527Z" fill="#F0F4F8"/>
<path d="M351.853 294.1H208.186V302.941H351.853V294.1Z" fill="#F0F4F8"/>
<path d="M351.853 326.673H208.186V335.515H351.853V326.673Z" fill="#F0F4F8"/>
<path d="M396.177 253.855H364.209V277.575H396.177V253.855Z" fill="#6FC4B5"/>
<path d="M394.723 255.234H365.664V276.196H394.723V255.234Z" fill="white"/>
<path d="M389.124 262.486C388.985 259.694 386.838 257.589 384.129 257.589C384.049 257.589 383.967 257.591 383.886 257.595C382.135 257.671 380.829 258.938 380.214 259.672C379.609 258.928 378.32 257.641 376.571 257.537C376.461 257.531 376.35 257.527 376.242 257.527C373.579 257.527 371.44 259.599 371.267 262.346C371.103 264.944 372.762 267.216 374.023 268.698C375.665 270.627 378.215 272.703 379.885 273.756L380.117 273.903L380.351 273.76C382.036 272.733 384.614 270.697 386.281 268.794C387.563 267.332 389.253 265.087 389.124 262.486Z" fill="#6FC4B5"/>
<path d="M401.32 105.039H267.727C267.634 105.039 267.558 104.963 267.558 104.869V100.089C267.558 99.9956 267.634 99.9199 267.727 99.9199H401.32C401.413 99.9199 401.489 99.9956 401.489 100.089V104.869C401.489 104.963 401.413 105.039 401.32 105.039Z" fill="#F0F4F8"/>
<path d="M401.32 122.256H267.727C267.634 122.256 267.558 122.18 267.558 122.087V117.306C267.558 117.213 267.634 117.137 267.727 117.137H401.32C401.413 117.137 401.489 117.213 401.489 117.306V122.087C401.489 122.18 401.413 122.256 401.32 122.256Z" fill="#F0F4F8"/>
<path d="M357.596 139.473H267.727C267.634 139.473 267.558 139.397 267.558 139.304V134.523C267.558 134.43 267.634 134.354 267.727 134.354H357.596C357.69 134.354 357.766 134.43 357.766 134.523V139.304C357.766 139.397 357.69 139.473 357.596 139.473Z" fill="#F0F4F8"/>
<path d="M357.596 156.69H267.727C267.634 156.69 267.558 156.614 267.558 156.521V151.74C267.558 151.647 267.634 151.571 267.727 151.571H357.596C357.69 151.571 357.766 151.647 357.766 151.74V156.521C357.766 156.614 357.69 156.69 357.596 156.69Z" fill="#F0F4F8"/>
<mask id="mask2_586_17583" style="mask-type:luminance" maskUnits="userSpaceOnUse" x="159" y="84" width="93" height="94">
<path d="M205.597 177.032C231.027 177.032 251.642 156.417 251.642 130.986C251.642 105.556 231.027 84.9409 205.597 84.9409C180.166 84.9409 159.551 105.556 159.551 130.986C159.551 156.417 180.166 177.032 205.597 177.032Z" fill="white"/>
</mask>
<g mask="url(#mask2_586_17583)">
<path d="M205.596 177.032C231.026 177.032 251.642 156.417 251.642 130.986C251.642 105.556 231.026 84.9409 205.596 84.9409C180.166 84.9409 159.551 105.556 159.551 130.986C159.551 156.417 180.166 177.032 205.596 177.032Z" fill="white"/>
</g>
<mask id="mask3_586_17583" style="mask-type:luminance" maskUnits="userSpaceOnUse" x="159" y="84" width="93" height="94">
<path d="M205.597 177.032C231.027 177.032 251.642 156.417 251.642 130.986C251.642 105.556 231.027 84.9409 205.597 84.9409C180.166 84.9409 159.551 105.556 159.551 130.986C159.551 156.417 180.166 177.032 205.597 177.032Z" fill="white"/>
</mask>
<g mask="url(#mask3_586_17583)">
<path d="M163.504 184.757C167.637 201.949 179.704 211.041 179.704 211.041C179.704 211.041 181.358 171.864 181.523 171.368C181.688 170.872 165.157 158.143 165.157 158.143C165.157 158.143 164.774 158.765 164.275 159.985C163.657 161.499 162.863 163.925 162.397 167.222C161.782 171.589 161.755 177.477 163.504 184.757Z" fill="#DDBAAB"/>
<path opacity="0.6" d="M234.732 169.685C235.032 169.89 237.155 169.189 237.601 169.132C238.706 168.997 239.823 168.951 240.937 168.997C242.312 169.056 243.681 169.258 245.014 169.602C244.924 165.41 244.329 162.881 243.896 161.78C243.47 161.839 243.023 162.087 242.653 162.339C241.681 162.99 233.598 168.908 234.732 169.685Z" fill="#845A49"/>
<path opacity="0.6" d="M162.397 167.221C163.607 166.934 164.847 166.762 166.093 166.709C167.207 166.663 168.338 166.623 169.429 166.845C170.606 167.086 171.77 167.443 173.436 168.435C174.57 167.658 165.349 160.702 164.377 160.05C164.344 160.027 164.311 160.004 164.275 159.984C163.656 161.499 162.863 163.925 162.397 167.221Z" fill="#845A49"/>
<path d="M178.051 171.863L176.775 197.026L230.823 198.19L229.792 172.524L243.896 162.11C243.896 162.11 236.404 140.914 225.99 135.129C222.624 133.257 219.659 131.783 217.08 130.635C216.971 130.589 216.862 130.54 216.756 130.493C216.164 130.232 215.589 129.991 215.04 129.766C214.934 129.723 214.832 129.68 214.729 129.64C210.259 127.835 207.204 127.181 205.492 127.23C202.239 127.323 199.339 127.098 193.702 128.969C193.593 129.006 193.481 129.042 193.368 129.082C192.859 129.254 192.33 129.445 191.775 129.653C191.666 129.696 191.553 129.736 191.441 129.782C188.951 130.735 185.982 132.054 182.349 133.885C164.856 142.706 163.951 158.973 163.951 158.973L178.051 171.863Z" fill="white"/>
<path d="M193.368 129.082C193.378 130.679 194.291 132.061 196.139 133.291C197.868 134.442 200.288 134.878 202.01 135.04C202.645 135.1 203.283 135.129 203.925 135.129C206.034 135.129 208.156 134.809 210.157 134.181C211.353 133.804 213.073 133.146 214.167 131.77C214.6 131.232 214.924 130.514 215.04 129.767C214.934 129.724 214.831 129.681 214.729 129.641C214.63 130.355 214.325 131.046 213.909 131.566C213.119 132.557 211.892 133.288 210.057 133.867C207.492 134.67 204.721 134.964 202.043 134.71C200.357 134.551 197.993 134.128 196.32 133.017C194.502 131.81 193.659 130.511 193.702 128.97C193.593 129.006 193.481 129.043 193.368 129.082Z" fill="#E5E5E5"/>
<path d="M191.441 129.783C191.441 129.869 191.444 129.951 191.451 130.027C191.603 131.885 192.952 133.704 195.061 134.887C196.767 135.846 198.909 136.418 201.604 136.63C202.354 136.689 203.108 136.719 203.865 136.719C206.355 136.719 208.864 136.398 211.225 135.773C212.64 135.4 214.67 134.742 215.963 133.373C216.584 132.712 217.001 131.667 217.08 130.636C216.971 130.589 216.862 130.54 216.756 130.493C216.7 131.489 216.313 132.52 215.721 133.145C214.782 134.14 213.324 134.874 211.142 135.453C208.097 136.259 204.811 136.554 201.631 136.302C198.982 136.091 196.89 135.535 195.223 134.6C193.21 133.469 191.924 131.75 191.782 130.001C191.772 129.895 191.772 129.779 191.775 129.654C191.666 129.697 191.553 129.736 191.441 129.783Z" fill="#E5E5E5"/>
<path d="M216.273 128.935C216.273 128.935 215.628 125.725 214.517 124.835C211.524 122.438 197.113 122.112 195.614 123.265C193.786 124.67 193.786 128.136 193.786 128.136L216.273 128.935Z" fill="#ABD6CF"/>
<path d="M194.75 128.782C194.522 129.675 195.037 130.462 195.775 131.01C198.172 132.791 205.849 135.106 212.302 131.139C213.103 130.647 213.555 129.737 213.489 128.798L213.37 127.116L213.099 123.287L213.096 123.244C213.096 123.244 215.493 124.008 216.815 120.867C218.138 117.726 221.15 107.16 219.166 103.771C217.182 100.382 213.261 97.8896 206.649 97.9722C200.037 98.0549 199.227 105.365 199.227 105.365C199.227 105.365 195.461 103.999 194.684 107.748C194.003 111.031 195.491 112.354 198.466 112.767C198.784 112.813 195.818 124.583 194.75 128.782Z" fill="#FFA185"/>
<path d="M207.5 114.068C206.469 113.842 205.606 113.153 205.071 112.127C204.54 111.112 204.394 109.885 204.659 108.675C204.924 107.464 205.57 106.411 206.476 105.71C207.392 105.002 208.463 104.736 209.494 104.962C210.525 105.188 211.387 105.877 211.923 106.903C212.454 107.918 212.6 109.145 212.335 110.356C212.069 111.566 211.424 112.619 210.517 113.32C209.815 113.864 209.02 114.146 208.223 114.146C207.981 114.146 207.739 114.12 207.5 114.068ZM206.679 105.972C205.833 106.625 205.231 107.61 204.982 108.745C204.733 109.881 204.869 111.027 205.364 111.974C205.853 112.912 206.637 113.541 207.571 113.745C208.504 113.949 209.479 113.706 210.315 113.059C211.161 112.405 211.763 111.42 212.012 110.285C212.26 109.15 212.125 108.003 211.63 107.056C211.14 106.118 210.357 105.49 209.423 105.285C209.208 105.238 208.99 105.215 208.773 105.215C208.047 105.215 207.322 105.474 206.679 105.972Z" fill="#364F64"/>
<path d="M221.446 104.498C222.366 103.405 222.96 101.979 222.706 100.598C222.454 99.2291 221.427 98.1108 220.324 97.205C216.593 94.1421 211.464 92.6932 206.59 93.3254C205.157 93.5113 203.717 93.8812 202.526 94.6641C200.859 95.759 199.83 97.5724 199.334 99.4453C198.837 101.318 198.819 103.315 198.803 105.247C199.741 105.529 200.534 106.177 200.917 107.042C201.839 105.925 202.761 104.809 203.683 103.692C204.105 103.181 204.553 102.651 205.177 102.39C205.856 102.106 206.633 102.187 207.368 102.273C211.201 102.72 215.054 103.017 218.865 103.614C219.433 103.703 219.569 104.796 219.786 106.176C220.296 105.995 221.164 104.834 221.446 104.498Z" fill="black"/>
<g opacity="0.6">
<path d="M213.337 115.243L213.339 110.475C213.339 110.384 213.265 110.31 213.173 110.31C213.082 110.31 213.008 110.384 213.008 110.475L213.006 114.869L211.127 114.641C211.035 114.632 210.954 114.695 210.943 114.785C210.932 114.876 210.997 114.959 211.087 114.97L213.337 115.243Z" fill="#38180F"/>
</g>
<path d="M215.939 115.121C216.171 115.174 216.405 115.197 216.64 115.197C218.515 115.197 220.293 113.597 220.793 111.316C221.355 108.754 220.092 106.291 217.976 105.828C215.86 105.365 213.681 107.071 213.119 109.636C213.089 109.779 213.063 109.924 213.043 110.066C213.026 110.188 213.013 110.307 213.003 110.43C212.828 112.688 214.041 114.708 215.939 115.121ZM213.324 110.582C213.331 110.49 213.337 110.397 213.347 110.304C213.367 110.106 213.4 109.908 213.443 109.706C213.674 108.645 214.2 107.739 214.885 107.097C215.569 106.456 216.409 106.082 217.272 106.082C217.483 106.082 217.692 106.106 217.903 106.152C219.841 106.575 220.994 108.859 220.472 111.247C219.95 113.63 217.949 115.224 216.009 114.801C214.309 114.427 213.215 112.625 213.324 110.582Z" fill="#364F64"/>
<path opacity="0.6" d="M207.308 121.975C206.35 121.565 205.437 121.062 204.544 120.53C207.186 123.343 209.866 125.525 213.37 127.116L213.099 123.287C213.099 123.287 209.168 122.77 207.308 121.975Z" fill="#893F3E"/>
<path d="M209.245 116.18C209.053 117.291 210.114 118.403 211.615 118.663C213.116 118.923 214.489 118.233 214.682 117.121L209.245 116.18Z" fill="white"/>
<path d="M197.188 106.215C197.023 106.23 196.852 106.263 196.719 106.361C196.586 106.46 196.501 106.64 196.557 106.797C197.234 106.852 197.883 107.192 198.314 107.718C198.745 108.243 198.952 108.615 198.874 109.29C199.109 109.463 199.468 109.32 199.624 109.073C199.781 108.825 199.828 108.515 199.795 108.224C199.71 107.462 199.555 107.261 199.033 106.745C198.575 106.291 197.836 106.145 197.188 106.215Z" fill="#38180F"/>
<path d="M212.11 110.307C212.157 110.383 212.259 110.409 212.335 110.366C212.54 110.248 212.818 110.281 213.003 110.429C213.043 110.459 213.076 110.495 213.106 110.535C213.135 110.578 213.188 110.605 213.241 110.605C213.271 110.605 213.301 110.598 213.324 110.582C213.331 110.489 213.337 110.396 213.347 110.304C213.264 110.201 213.159 110.119 213.043 110.066C212.772 109.93 212.435 109.924 212.17 110.079C212.091 110.125 212.064 110.228 212.11 110.307Z" fill="#364F64"/>
<path d="M204.804 108.733C204.862 108.733 204.919 108.702 204.949 108.647C204.993 108.566 204.963 108.466 204.883 108.423C204.007 107.947 201.035 106.631 200.909 106.575C200.827 106.538 200.728 106.576 200.691 106.659C200.654 106.743 200.692 106.841 200.776 106.877C200.806 106.891 203.861 108.244 204.725 108.713C204.75 108.727 204.777 108.733 204.804 108.733Z" fill="#364F64"/>
<path d="M206.627 106.801C206.596 107.119 207.676 107.483 209.039 107.616C210.402 107.748 211.532 107.598 211.563 107.281C211.594 106.963 210.514 106.599 209.151 106.466C207.788 106.334 206.658 106.484 206.627 106.801Z" fill="black"/>
<path d="M219.393 108.47C219.444 108.155 218.39 107.722 217.038 107.503C215.686 107.284 214.549 107.362 214.498 107.677C214.447 107.991 215.502 108.424 216.853 108.643C218.205 108.862 219.342 108.785 219.393 108.47Z" fill="black"/>
<path d="M209.047 111.063C209.403 111.063 209.691 110.467 209.691 109.731C209.691 108.996 209.403 108.399 209.047 108.399C208.692 108.399 208.403 108.996 208.403 109.731C208.403 110.467 208.692 111.063 209.047 111.063Z" fill="#38180F"/>
<path d="M216.916 110.789C216.916 111.524 216.628 112.121 216.272 112.121C215.917 112.121 215.629 111.524 215.629 110.789C215.629 110.053 215.917 109.457 216.272 109.457C216.628 109.457 216.916 110.053 216.916 110.789Z" fill="#38180F"/>
<path d="M243.896 221.469C245.419 186.569 248.189 168.267 242.021 153.508C238.221 144.415 232.738 138.638 224.625 133.321C221.954 131.57 218.029 129.51 215.727 127.975L202.824 175.947L194.521 128.162C191.4 128.896 187.386 130.682 182.348 133.241C166.125 141.473 163.734 153.681 162.768 158.6C162.339 160.782 161.555 165.768 161.416 167.986C161.138 172.387 161.239 178.661 162.988 185.941C164.668 192.93 167.051 197.199 169.032 201.394C169.478 202.34 169.921 203.216 170.354 204.019C171.548 206.228 172.675 207.904 173.634 209.044L173.624 209.692L173.475 220.785L229.901 219.803L229.486 221.317L243.896 221.469Z" fill="#6FC4B5"/>
<path d="M229.901 219.802L229.397 168.398L229.066 168.396L229.57 219.799L229.901 219.802Z" fill="#1D2435"/>
<path opacity="0.82" d="M174.579 166.916L174.413 166.913L174.573 166.872L170.515 150.994L170.194 151.076L174.247 166.932L173.881 182.562C172.087 187.801 170.172 196.603 169.032 201.394C169.478 202.34 169.921 203.216 170.354 204.019C171.548 206.227 172.675 207.904 173.634 209.044C173.634 209.044 173.844 199.523 173.996 191.734L174.579 166.916Z" fill="#1D2435"/>
<path d="M234.661 150.681L229.076 168.349L229.391 168.448L234.976 150.781L234.661 150.681Z" fill="#1D2435"/>
<path d="M178.215 165.751H188.795V163.293H178.215V165.751Z" fill="#ABD6CF"/>
<path d="M224.005 140.796L216.2 147.284L219.376 152.359L202.433 176.907L209.567 150.878C209.498 150.934 214.007 134.976 214.088 134.071C214.518 129.239 213.775 128.847 213.775 128.847L215.307 125.908L224.005 140.796Z" fill="#ABD6CF"/>
<path d="M203.965 182.284L203.637 182.278L187.992 152.632L190.737 147.42L186.673 140.466L192.094 128.313L194.656 124.375C194.656 124.375 195.193 126.523 194.904 128.176L203.965 182.284Z" fill="#ABD6CF"/>
<path d="M217.395 149.193L223.037 141.601L216.2 147.283L217.395 149.193Z" fill="#1D2435"/>
<path d="M200.855 163.712L203.966 171.944L202.825 175.474L200.855 163.712Z" fill="#1D2435"/>
</g>
<path d="M205.596 84.9409C180.167 84.9409 159.551 105.557 159.551 130.987C159.551 156.416 180.167 177.032 205.596 177.032C231.026 177.032 251.642 156.416 251.642 130.987C251.642 105.557 231.026 84.9409 205.596 84.9409ZM205.596 173.319C182.389 173.319 163.578 154.505 163.578 131.298C163.578 108.093 182.389 89.2801 205.596 89.2801C228.803 89.2801 247.615 108.094 247.615 131.298C247.615 154.505 228.803 173.319 205.596 173.319Z" fill="#B4C0D0"/>
<path d="M437.387 34.5264H135.468V55.4439H437.387V34.5264Z" fill="#B4C0D0"/>
<path d="M379.92 51.0586H364.533V53.5298H379.92V51.0586Z" fill="#365882"/>
<path d="M423.744 43.0399L421.997 41.2925L417.43 45.8589L412.864 41.2925L411.117 43.0399L415.683 47.6064L411.117 52.1728L412.864 53.9203L417.43 49.3538L421.997 53.9203L423.744 52.1728L419.178 47.6064L423.744 43.0399Z" fill="#365882"/>
<path d="M387.787 40.4229V53.5304H403.172V40.4229H387.787ZM400.85 51.6318H390.11V42.4821H400.85V51.6318Z" fill="#365882"/>
<path d="M396.177 287.38H364.209V311.1H396.177V287.38Z" fill="#6FC4B5"/>
<path d="M394.722 288.759H365.663V309.72H394.722V288.759Z" fill="white"/>
<path d="M388.652 296.71H382.723V290.781H377.663V296.71H371.733V301.77H377.663V307.7H382.723V301.77H388.652V296.71Z" fill="#6FC4B5"/>
<path d="M396.177 319.234H364.209V342.955H396.177V319.234Z" fill="#6FC4B5"/>
<path d="M365.663 341.575H394.722V320.614H365.663V341.575Z" fill="white"/>
<path d="M388.618 331.095C388.618 326.441 384.847 322.67 380.193 322.67C378.261 322.67 376.481 323.32 375.06 324.415C374.575 324.786 374.133 325.21 373.741 325.678C372.51 327.142 371.768 329.032 371.768 331.095C371.768 335.748 375.54 339.52 380.193 339.52C382.256 339.52 384.146 338.779 385.611 337.547C386.078 337.155 386.502 336.713 386.873 336.229C387.968 334.807 388.618 333.027 388.618 331.095Z" fill="#6FC4B5"/>
<path d="M373.513 325.962L385.327 337.775C385.811 337.404 386.253 336.98 386.645 336.512L374.776 324.643C374.308 325.035 373.884 325.477 373.513 325.962Z" fill="white"/>
<path d="M396.177 220.794H364.209V244.515H396.177V220.794Z" fill="#6FC4B5"/>
<path d="M394.723 222.174H365.664V243.136H394.723V222.174Z" fill="white"/>
<path d="M374.953 238.279L373.688 233.298C373.34 231.925 373.18 230.511 373.23 229.096C373.235 228.934 373.243 228.81 373.253 228.746L373.477 227.25C373.633 226.215 374.291 225.324 375.234 224.87L375.75 224.622C376.606 224.21 377.602 224.205 378.462 224.608L380.192 225.417C380.432 225.53 380.71 225.527 380.948 225.409L382.341 224.72C383.288 224.252 384.406 224.287 385.321 224.814C386.176 225.306 386.753 226.169 386.88 227.148L387.14 229.148C387.152 229.235 387.159 229.446 387.163 229.716C387.183 231.027 387.027 232.334 386.708 233.605L385.542 238.247C385.403 238.964 383.81 243.816 382.172 238.648L380.951 235.055C380.605 234.651 379.98 234.648 379.63 235.049L378.316 238.683C377.841 239.229 376.825 243.539 374.953 238.279Z" fill="#6FC4B5"/>
<path opacity="0.3" d="M437.387 34.5264V38.4797H138.995V55.4437H135.468V34.5264H437.387Z" fill="white"/>
<path d="M504.452 433.128C536.778 433.128 562.985 431.4 562.985 429.269C562.985 427.137 536.778 425.41 504.452 425.41C472.125 425.41 445.918 427.137 445.918 429.269C445.918 431.4 472.125 433.128 504.452 433.128Z" fill="#51A4AC"/>
<path d="M456.453 415.788C456.347 413.407 455.72 403.671 456.153 403.242C456.494 402.902 461.945 401.31 464.771 401.524C466.044 401.621 472.063 400.11 473.254 400.572C473.92 400.831 472.474 405.853 472.425 411.033C472.416 411.995 472.898 416.045 472.901 416.97C470.685 416.997 466.96 414.15 464.725 414.234C462.492 414.318 458.65 415.381 456.453 415.788Z" fill="#7779AA"/>
<path d="M460.828 411.687C461.887 411.179 463.04 411.092 464.207 410.898C466.375 410.537 468.685 411.821 470.238 413.432C470.9 414.119 472.015 414.917 472.393 415.793L475.94 424.018C476.315 424.887 476.676 425.932 476.13 426.716C475.579 427.506 474.42 427.585 473.428 427.583C465.575 427.567 459.146 427.861 451.293 427.845C450.404 425.316 450.842 422.413 452.593 420.332C454.314 418.287 455.963 416.154 457.771 414.18C459.149 412.675 459.112 412.645 460.828 411.687Z" fill="#6FC4B5"/>
<path d="M475.984 429.943C475.813 430.697 475.153 431.238 474.38 431.257C471.578 431.325 465.301 431.472 462.631 431.502C460.223 431.529 455.067 431.046 452.571 430.795C451.766 430.715 451.151 430.044 451.138 429.235L451.088 426.04C451.092 426.243 459.425 425.85 460.361 425.801C464.159 425.599 465.709 424.991 470.18 425.226C471.604 425.301 476.401 425.945 476.423 426.622C476.442 427.23 476.258 428.737 475.984 429.943Z" fill="white"/>
<path d="M468.818 416.298C468.874 416.298 468.928 416.274 468.965 416.228C469.03 416.147 469.016 416.029 468.935 415.964C466.524 414.044 462.877 413.835 460.262 415.468C460.174 415.523 460.148 415.638 460.203 415.726C460.257 415.814 460.373 415.841 460.461 415.786C462.945 414.234 466.411 414.433 468.702 416.258C468.736 416.285 468.777 416.298 468.818 416.298Z" fill="#717D89"/>
<path d="M467.798 418.822C467.875 418.822 467.947 418.774 467.974 418.697C468.009 418.599 467.958 418.492 467.86 418.458C465.255 417.538 462.381 417.524 459.767 418.417C459.669 418.451 459.617 418.557 459.65 418.655C459.684 418.753 459.791 418.805 459.888 418.772C462.423 417.906 465.21 417.919 467.735 418.811C467.756 418.818 467.777 418.822 467.798 418.822Z" fill="#717D89"/>
<path d="M464.435 414.219C464.426 414.086 464.204 410.953 464.529 410.108C464.853 409.268 465.567 408.641 466.349 408.512C467.253 408.362 468.182 408.932 468.378 409.757C468.539 410.432 468.218 411.107 467.962 411.557C467.568 412.251 465.022 414.143 464.734 414.356L464.46 414.559L464.435 414.219ZM468.013 409.844C467.864 409.214 467.114 408.764 466.411 408.881C465.757 408.99 465.156 409.524 464.879 410.243C464.661 410.81 464.725 412.796 464.787 413.849C465.685 413.171 467.367 411.846 467.637 411.371C467.861 410.978 468.144 410.39 468.013 409.844Z" fill="#717D89"/>
<path d="M464.228 414.364C464.107 414.3 461.238 412.782 460.209 411.709C459.612 411.088 459.393 410.537 459.538 410.024C459.663 409.58 460.082 409.223 460.658 409.067C461.881 408.737 463.325 409.349 464.172 410.555C464.528 411.063 464.587 411.563 464.649 412.092C464.671 412.288 464.695 412.491 464.735 412.701C464.888 413.504 464.498 414.255 464.481 414.286L464.394 414.451L464.228 414.364ZM463.865 410.77C463.107 409.691 461.829 409.14 460.756 409.429C460.308 409.55 459.988 409.81 459.898 410.126C459.793 410.5 459.983 410.933 460.479 411.45C461.325 412.331 463.576 413.585 464.226 413.937C464.319 413.696 464.456 413.236 464.367 412.771C464.325 412.548 464.3 412.338 464.276 412.135C464.218 411.634 464.167 411.2 463.865 410.77Z" fill="#717D89"/>
<path opacity="0.8" d="M456.153 409.139L468.421 403.38L456.153 403.242V409.139Z" fill="#3E435B"/>
<path d="M551.954 415.552C552.062 413.124 551.143 408.578 551.12 407.957C550.862 400.809 547.522 397.938 544.641 398.158C543.343 398.256 536.271 401.054 535.058 401.525C534.379 401.789 534.847 406.939 535.156 410.033C535.253 411.009 536.018 414.051 536.016 414.995C538.274 415.022 541.243 413.882 543.522 413.968C545.798 414.054 549.715 415.136 551.954 415.552Z" fill="#7779AA"/>
<path d="M547.494 411.371C546.415 410.853 545.239 410.765 544.05 410.567C541.84 410.199 539.485 411.508 537.902 413.15C537.227 413.85 536.09 414.664 535.705 415.557L532.09 423.941C531.707 424.827 531.339 425.893 531.896 426.692C532.457 427.497 533.639 427.578 534.65 427.575C542.655 427.559 549.209 427.859 557.214 427.842C558.121 425.264 557.674 422.305 555.889 420.184C554.135 418.1 552.454 415.925 550.611 413.913C549.206 412.378 549.244 412.347 547.494 411.371Z" fill="#6FC4B5"/>
<path d="M532.044 429.982C532.218 430.75 532.891 431.302 533.679 431.321C536.535 431.39 542.934 431.541 545.657 431.571C548.111 431.598 553.368 431.106 555.912 430.85C556.732 430.768 557.36 430.084 557.373 429.259L557.423 426.002C557.42 426.209 548.925 425.809 547.97 425.759C544.099 425.554 542.519 424.933 537.961 425.173C536.51 425.249 531.62 425.906 531.597 426.596C531.577 427.215 531.765 428.752 532.044 429.982Z" fill="white"/>
<path d="M539.349 416.072C539.293 416.072 539.237 416.047 539.199 416C539.134 415.917 539.147 415.797 539.23 415.731C541.687 413.773 545.406 413.561 548.071 415.225C548.161 415.281 548.188 415.399 548.132 415.488C548.076 415.578 547.958 415.605 547.869 415.549C545.336 413.968 541.803 414.17 539.468 416.03C539.433 416.058 539.391 416.072 539.349 416.072Z" fill="#717D89"/>
<path d="M540.39 418.644C540.311 418.644 540.237 418.595 540.209 418.516C540.174 418.417 540.227 418.308 540.326 418.273C542.981 417.335 545.911 417.32 548.576 418.231C548.676 418.265 548.729 418.374 548.695 418.474C548.661 418.574 548.552 418.626 548.453 418.593C545.869 417.71 543.028 417.724 540.453 418.633C540.432 418.64 540.411 418.644 540.39 418.644Z" fill="#717D89"/>
<path d="M543.792 414.299L543.513 414.092C543.218 413.875 540.623 411.946 540.221 411.238C539.961 410.78 539.634 410.092 539.798 409.404C539.998 408.563 540.945 407.981 541.866 408.134C542.663 408.267 543.391 408.905 543.721 409.761C544.053 410.623 543.827 413.817 543.817 413.952L543.792 414.299ZM540.554 411.05C540.828 411.533 542.543 412.884 543.459 413.575C543.522 412.502 543.587 410.477 543.365 409.899C543.083 409.166 542.47 408.622 541.803 408.511C541.086 408.392 540.322 408.851 540.17 409.492C540.037 410.049 540.325 410.648 540.554 411.05Z" fill="#717D89"/>
<path d="M543.86 414.189L543.77 414.021C543.753 413.989 543.355 413.224 543.511 412.405C543.552 412.191 543.576 411.984 543.6 411.784C543.663 411.245 543.722 410.735 544.086 410.217C544.949 408.988 546.421 408.364 547.668 408.701C548.255 408.859 548.682 409.224 548.81 409.676C548.957 410.199 548.734 410.761 548.125 411.394C547.076 412.488 544.152 414.035 544.028 414.101L543.86 414.189ZM544.399 410.436C544.09 410.875 544.039 411.317 543.979 411.828C543.955 412.035 543.93 412.249 543.886 412.477C543.796 412.95 543.935 413.419 544.031 413.665C544.692 413.306 546.988 412.028 547.85 411.13C548.356 410.602 548.55 410.161 548.442 409.78C548.351 409.458 548.024 409.193 547.568 409.07C546.474 408.775 545.171 409.337 544.399 410.436Z" fill="#717D89"/>
<path opacity="0.8" d="M535 408.403L550.187 402.764H534.709L535 408.403Z" fill="#3E435B"/>
<path d="M434.696 263.506C437.659 291.658 448.03 401.388 448.03 401.388C462.847 406.653 485.072 401.388 485.072 401.388L479.145 301.288L522.854 402.554C522.854 402.554 543.427 405.626 554.095 401.062C552.613 387.125 505.074 207.372 505.074 207.372L435.278 199.756C434.982 200.892 434.706 202.077 434.469 203.312C434.004 205.613 433.619 208.083 433.333 210.72C431.831 224.134 432.424 241.894 434.696 263.506Z" fill="#DADCF5"/>
<path opacity="0.8" d="M458.403 239.158L479.146 301.29L482.077 350.795L458.403 239.158Z" fill="#3E435B"/>
<path d="M546.91 391.635L547.656 391.347C526.841 335.053 519.036 284.647 507.522 227.496L507.458 227.084L507.049 227.165C500.198 228.515 492.793 223.738 491.204 216.936L490.426 217.117C492.076 224.184 499.658 229.191 506.794 228.022C516.725 284.672 528.021 338.33 546.91 391.635Z" fill="#6FC4B5"/>
<path d="M466.902 396.622C471.565 396.622 476.228 395.54 480.378 393.403L480.012 392.693C472.799 396.408 463.99 396.844 456.446 393.858L456.152 394.6C459.567 395.951 463.235 396.622 466.902 396.622Z" fill="#6FC4B5"/>
<path d="M534.361 394.1C537.461 394.001 544.381 393.232 550.862 390.741L550.545 390.007C542.031 393.69 524.851 393.67 518.562 392.612L519.041 393.722C522.656 394.276 530.923 394.321 534.361 394.1Z" fill="#6FC4B5"/>
<path d="M433.332 210.72L474.216 207.52L434.468 203.312C434.004 205.613 433.619 208.083 433.332 210.72Z" fill="#181E2D"/>
<path d="M415.601 174.347C415.601 174.347 419.294 189.408 425.657 197.644C427.568 200.119 429.723 201.981 432.088 202.631C433.965 203.146 435.131 202.323 435.781 200.63C438.692 193.083 431.381 168.277 431.381 168.277C431.381 168.277 415.601 165.678 415.601 174.347Z" fill="#FFA185"/>
<path opacity="0.6" d="M425.657 197.645C427.567 200.119 429.722 201.981 432.088 202.632C433.964 203.147 435.13 202.323 435.781 200.631L431.347 174.949C431.347 174.949 430.019 192.365 425.657 197.645Z" fill="#893F3E"/>
<path d="M431.882 152.286C431.882 152.286 430.008 189.249 432.62 205.158C432.679 205.545 432.749 205.908 432.819 206.271C433.03 207.396 433.265 208.403 433.546 209.247C433.569 209.329 433.593 209.411 433.628 209.493C433.675 209.645 433.721 209.774 433.78 209.914C433.886 210.196 433.991 210.453 434.108 210.676C434.366 211.215 434.647 211.625 434.963 211.894C454.306 229.222 501.238 221.337 504.612 219.802C507.998 218.268 507.248 215.596 507.248 215.596L507.154 215.128L507.107 214.893L505.174 205.158L505.034 204.631L496.106 170.41C496.106 170.41 496.106 170.41 504.108 170.726C512.098 171.031 525.301 177.486 525.301 177.486C525.184 176.01 525.056 174.569 524.903 173.175C524.88 172.952 524.868 172.729 524.833 172.519C524.692 171.089 524.528 169.707 524.353 168.36C524.329 168.16 524.306 167.95 524.282 167.75C519.174 128.445 505.573 121.463 496.727 116.331C496.212 116.027 495.626 115.734 494.982 115.452C494.818 115.382 494.654 115.3 494.466 115.23C493.47 114.808 492.346 114.41 491.127 114.023C490.952 113.965 490.776 113.918 490.6 113.859C483.641 111.727 473.742 110.063 465.681 108.962C463.784 108.693 461.991 108.47 460.374 108.271C460.14 108.247 459.917 108.224 459.695 108.189C458.699 108.072 457.762 107.966 456.918 107.872C456.696 107.849 456.461 107.826 456.25 107.802C453.837 107.544 452.232 107.416 451.857 107.416C451.237 107.416 450.627 107.439 450.03 107.462C420.12 108.798 418.058 143.066 418.058 143.066L431.882 152.286Z" fill="#6FC4B5"/>
<path d="M457.029 113.933C457.029 119.833 464.679 124.636 474.08 124.636C483.43 124.636 491.045 119.886 491.128 114.027C490.951 113.97 490.774 113.914 490.594 113.858V113.933C490.594 119.54 483.185 124.102 474.08 124.102C464.972 124.102 457.563 119.54 457.563 113.933C457.563 111.838 458.597 109.89 460.369 108.273C460.139 108.246 459.917 108.22 459.696 108.19C458.007 109.849 457.029 111.819 457.029 113.933Z" fill="white"/>
<path d="M453.133 114.685C453.133 121.92 462.531 127.81 474.081 127.81C485.213 127.81 494.347 122.334 494.987 115.456C494.821 115.377 494.648 115.305 494.471 115.23C494.005 121.92 485.036 127.276 474.081 127.276C462.825 127.276 453.667 121.627 453.667 114.685C453.667 112.176 454.863 109.837 456.92 107.878C456.691 107.851 456.465 107.829 456.247 107.806C454.273 109.807 453.133 112.161 453.133 114.685Z" fill="white"/>
<path d="M445.782 150.071L445.696 150.597L493.645 158.399L493.731 157.873L445.782 150.071Z" fill="white"/>
<path d="M445.791 155.095L445.704 155.621L493.258 163.458L493.344 162.932L445.791 155.095Z" fill="white"/>
<path d="M445.805 160.174L445.717 160.699L493.064 168.64L493.152 168.115L445.805 160.174Z" fill="white"/>
<path d="M445.815 165.238L445.73 165.764L492.588 173.35L492.673 172.824L445.815 165.238Z" fill="white"/>
<path d="M433.777 209.915C433.882 210.193 433.991 210.449 434.104 210.678C447.387 217.263 462.163 220.693 476.969 220.693C481.256 220.693 485.543 220.403 489.804 219.824C494.445 219.192 502.081 217.271 506.959 214.327L506.846 213.766C502.014 216.737 494.37 218.662 489.733 219.294C470.666 221.9 450.941 218.572 433.777 209.915Z" fill="white"/>
<path d="M433.543 209.244C433.57 209.331 433.596 209.413 433.622 209.492L433.69 209.297L433.543 209.244Z" fill="white"/>
<path d="M432.615 205.161C432.679 205.54 432.746 205.909 432.814 206.266C446.424 213.276 461.681 216.932 476.969 216.932C481.256 216.932 485.543 216.642 489.804 216.063C494.234 215.458 501.613 213.651 506.333 210.996L506.224 210.443C501.542 213.121 494.159 214.931 489.733 215.533C470.572 218.15 450.745 214.777 433.521 206.026L433.69 205.537L432.615 205.161Z" fill="white"/>
<path d="M493.614 168.918C493.659 169.057 493.806 169.136 493.949 169.095C503.712 166.075 515.987 167.775 524.907 173.175C524.885 172.953 524.862 172.731 524.836 172.513C515.818 167.203 503.561 165.567 493.791 168.583C493.652 168.629 493.573 168.775 493.614 168.918Z" fill="white"/>
<path d="M493.614 165.341C493.659 165.484 493.806 165.563 493.949 165.522C504.201 162.408 515.972 164.792 524.354 168.358C524.332 168.155 524.306 167.951 524.279 167.748C515.821 164.213 504.065 161.893 493.791 165.011C493.652 165.052 493.573 165.202 493.614 165.341Z" fill="white"/>
<path d="M492.695 173.446C492.233 176.921 498.694 180.783 507.801 181.994C516.908 183.204 524.665 181.368 525.127 177.894C525.589 174.419 518.27 171.777 509.195 170.344C498.477 168.651 493.156 169.972 492.695 173.446Z" fill="#1C1E33"/>
<path opacity="0.72" d="M476.284 202.218C480.15 213.957 500.324 216.546 507.154 215.128L507.107 214.894L505.174 205.159L505.034 204.631C494.232 199.559 472.886 191.862 476.284 202.218Z" fill="#15192D"/>
<path d="M448.367 121.06L453.119 172.335C453.267 173.924 451.983 175.28 450.388 175.219L414.471 173.851C413.15 173.801 412.069 172.78 411.942 171.464L406.93 119.29C406.776 117.69 408.076 116.325 409.682 116.399L445.205 118.041C446.865 118.118 448.214 119.406 448.367 121.06Z" fill="white"/>
<path d="M427.117 148.601C429.142 148.601 430.783 146.96 430.783 144.935C430.783 142.91 429.142 141.268 427.117 141.268C425.092 141.268 423.45 142.91 423.45 144.935C423.45 146.96 425.092 148.601 427.117 148.601Z" fill="#DADCF5"/>
<path opacity="0.72" d="M450.034 107.462C452.663 112.562 462.655 118.022 462.655 118.022L465.675 108.959C458.391 107.959 452.607 107.421 451.862 107.421C451.241 107.421 450.632 107.436 450.034 107.462Z" fill="#15192D"/>
<path d="M459.474 100.166C459.474 100.166 456.11 101.538 451.131 93.3774C450.285 91.9897 449.585 90.3951 449.021 88.6765C448.57 87.3038 448.201 85.8559 447.912 84.3704C446.415 76.7699 446.907 68.2142 448.288 64.3444C450.281 58.771 470.047 62.2421 474.827 64.2354C479.242 66.0782 476.685 75.5665 476.271 76.9919C476.497 76.7625 477.039 76.2999 478.208 75.3823C480.995 73.1899 484.488 78.5444 483.293 82.6248C482.104 86.6939 479.331 87.0452 479.294 87.0452L486.583 112.726C487.275 114.859 486.376 117.19 484.436 118.315L483.908 118.559C476.844 121.824 468.658 121.589 461.792 117.924C460.699 117.103 460.344 115.607 460.439 114.25L459.474 100.166Z" fill="#FFA185"/>
<path d="M473.846 69.3572C474.624 71.0407 474.93 74.3935 475.048 76.5297C475.058 76.6806 475.067 76.8221 475.072 76.9588C475.119 77.869 475.124 78.4679 475.124 78.4679C475.124 78.4679 475.675 77.5955 476.571 76.7325C476.755 76.558 476.953 76.3788 477.166 76.2091C478.081 75.4828 479.241 74.9028 480.49 75.1056C481.287 72.0311 481.183 69.2157 481.198 64.8301L473.846 69.3572Z" fill="#3C4059"/>
<path d="M460.694 77.4203C460.705 77.4203 460.715 77.42 460.726 77.4197L467.16 77.1621C467.528 77.1474 467.812 76.883 467.795 76.5716C467.777 76.2606 467.485 75.8022 467.128 75.8067H460.751C460.383 75.8214 460.01 76.5714 460.028 76.8827C460.045 77.1849 460.34 77.4203 460.694 77.4203Z" fill="#1C1E33"/>
<path d="M448.55 77.3874C448.572 77.3909 448.594 77.3935 448.617 77.3949L454.151 77.7858C454.521 77.8121 454.83 77.5803 454.841 77.2681C454.853 76.9564 453.942 76.1424 453.575 76.12L448.767 76.0421C448.397 76.0159 447.978 76.4708 447.967 76.7828C447.956 77.0756 448.212 77.3352 448.55 77.3874Z" fill="#1C1E33"/>
<path opacity="0.6" d="M459.209 87.1258C459.355 87.1258 459.474 87.0078 459.474 86.862C459.475 86.7153 459.357 86.5957 459.21 86.595L457.62 86.5858C457.14 86.5829 456.743 86.2086 456.712 85.7287L456.323 79.6835C456.313 79.5374 456.192 79.4253 456.041 79.4357C455.894 79.4451 455.784 79.5713 455.793 79.7177L456.189 85.8737C456.234 86.5692 456.809 87.1117 457.506 87.1159L459.207 87.126C459.208 87.1258 459.208 87.1258 459.209 87.1258Z" fill="#893F3E"/>
<path opacity="0.6" d="M477.041 80.6327C477.266 80.5764 477.396 80.2496 477.411 80.1037C477.481 79.3985 477.482 79.0012 478.116 78.5524C478.75 78.1037 479.284 77.9811 479.944 78.3915C480.068 78.4685 480.39 78.4114 480.496 78.1294C480.547 77.9922 480.491 77.6717 480.366 77.5943C479.53 77.0753 478.386 77.1093 477.583 77.6778C476.78 78.2465 476.212 79.4163 476.58 80.2755C476.637 80.4095 476.759 80.7032 477.041 80.6327Z" fill="#893F3E"/>
<path opacity="0.32" d="M467.06 87.8957C468.719 87.8957 470.063 86.5509 470.063 84.892C470.063 83.233 468.719 81.8882 467.06 81.8882C465.401 81.8882 464.056 83.233 464.056 84.892C464.056 86.5509 465.401 87.8957 467.06 87.8957Z" fill="#CC4C46"/>
<path opacity="0.32" d="M453.425 86.0173C453.425 87.6795 452.079 89.0221 450.42 89.0221C449.912 89.0221 449.439 88.898 449.021 88.676C448.57 87.3033 448.201 85.8555 447.912 84.3699C448.446 83.5538 449.371 83.0161 450.42 83.0161C452.078 83.0163 453.425 84.3588 453.425 86.0173Z" fill="#CC4C46"/>
<path opacity="0.6" d="M459.882 106.89C461.592 106.455 464.411 104.624 465.759 103.488C466.773 102.639 470.46 99.0021 471.097 97.8397C472.02 96.1517 469.396 98.0522 467.49 98.9918C465.261 100.096 462.479 100.875 459.474 101.109L459.882 106.89Z" fill="#893F3E"/>
<path d="M463.235 81.0104C464.242 81.0104 465.299 80.7744 466.011 80.3857C466.165 80.301 466.223 80.1067 466.138 79.9518C466.053 79.7968 465.859 79.7395 465.704 79.8246C464.6 80.4275 462.419 80.6104 461.445 79.9642C461.298 79.866 461.1 79.9069 461.002 80.0538C460.904 80.2009 460.944 80.3994 461.092 80.497C461.63 80.8542 462.416 81.0104 463.235 81.0104Z" fill="#1C1E33"/>
<path d="M452.09 81.1541C452.765 81.1541 453.451 81.0191 453.998 80.7771C454.16 80.7057 454.233 80.5167 454.161 80.3553C454.09 80.1935 453.901 80.1205 453.74 80.1921C452.6 80.6962 450.971 80.5972 450.323 79.9855C450.194 79.8645 449.992 79.8703 449.871 79.9988C449.749 80.1273 449.755 80.3298 449.884 80.4508C450.401 80.9386 451.237 81.1541 452.09 81.1541Z" fill="#1C1E33"/>
<path opacity="0.86" d="M458.93 93.7557C459.602 93.6845 460.269 93.4781 460.788 93.1798C460.941 93.0919 460.994 92.8963 460.906 92.7432C460.818 92.5899 460.623 92.537 460.469 92.6252C459.389 93.2465 457.759 93.3195 457.05 92.7794C456.909 92.6727 456.708 92.6997 456.602 92.8402C456.494 92.9808 456.522 93.1816 456.662 93.2883C457.228 93.719 458.082 93.8454 458.93 93.7557Z" fill="#893F3E"/>
<path opacity="0.86" d="M459.206 91.842C460.143 91.7429 461.08 91.5076 461.814 91.1861C462.03 91.0912 462.112 90.8922 461.996 90.7419C461.88 90.5911 461.61 90.546 461.393 90.6412C459.865 91.3109 457.595 91.4514 456.631 90.9372C456.44 90.8355 456.159 90.8708 456.005 91.0168C455.85 91.1626 455.88 91.3637 456.071 91.4654C456.841 91.8751 458.023 91.9672 459.206 91.842Z" fill="#893F3E"/>
<path d="M480.129 60.4192C479.343 58.6674 477.94 57.5115 474.912 57.2638C470.752 53.3875 464.646 51.7159 459.092 52.9335C456.376 53.5287 452.196 53.9088 449.875 55.3985C447.965 56.6248 447.359 58.092 446.575 59.6426C446.019 60.7407 444.969 61.1386 444.315 62.0809C443.506 63.2478 443.394 65.398 443.624 66.7403C443.893 68.306 444.829 69.8 446.253 70.5046C447.951 71.3447 448.999 70.332 450.624 70.2653C452.088 70.2055 453.639 71.3323 455.054 71.6483C456.713 72.0189 458.897 71.3963 459.166 69.7181C461.416 71.8882 465.346 71.9907 467.706 69.9409C467.566 71.7657 470.156 72.5684 471.856 71.8892C473.555 71.21 474.901 69.7472 476.68 69.3165C477.587 69.097 478.537 69.1658 479.462 69.0433C480.386 68.9209 481.02 69.4184 481.471 68.6024C482.042 67.5692 481.352 65.6595 481.191 64.7149C480.911 63.0734 480.662 61.6088 480.129 60.4192Z" fill="black"/>
<path d="M466.163 65.6446L466.628 65.5677C466.404 64.2152 466.831 62.7623 467.798 61.5816C468.764 60.4008 470.104 59.6962 471.474 59.6483L471.458 59.1772C469.952 59.2297 468.485 59.9972 467.432 61.283C466.38 62.5683 465.917 64.1582 466.163 65.6446Z" fill="#3C4059"/>
<path d="M454.003 69.6887L454.153 69.242C452.964 68.8413 452.411 67.4428 452.495 66.3301C452.574 65.2814 453.073 64.2085 454.065 62.9544C456.774 59.5312 460.812 57.2617 465.145 56.7282L465.087 56.2603C460.632 56.8088 456.48 59.142 453.695 62.662C452.642 63.9933 452.111 65.1478 452.025 66.2948C451.928 67.5846 452.588 69.2123 454.003 69.6887Z" fill="#3C4059"/>
<path d="M448.883 67.8288L449.286 67.5847C448.737 66.6758 448.626 65.5072 448.982 64.3786C449.338 63.2499 450.1 62.3565 451.072 61.9277L450.881 61.4961C449.786 61.9796 448.93 62.9784 448.533 64.2366C448.136 65.4947 448.263 66.8039 448.883 67.8288Z" fill="#3C4059"/>
<path d="M450.347 91.7097C451.834 95.3145 452.874 99.9295 456.095 101.786C460.924 104.57 468.625 101.994 472.039 97.3685C473.984 94.7346 474.413 92.214 474.869 88.8802C475.041 87.6214 475.324 85.4638 475.436 84.1973C475.509 83.3714 475.655 78.3022 475.34 77.5625C474.869 79.9204 474.397 80.3919 473.319 83.6791C472.248 86.9442 470.833 89.7221 468.539 92.0191C468.17 92.3879 467.563 92.3229 467.261 91.8985C466.298 90.5473 464.558 89.1414 463 88.5585C461.968 88.1726 460.409 87.9372 459.307 87.9372C457.892 87.9372 456.439 88.0993 454.927 88.7192C453.116 89.4616 452.598 90.9884 452.477 92.4337C452.435 92.9386 451.836 93.1753 451.464 92.8312C451.093 92.4882 450.723 92.1156 450.347 91.7097ZM454.197 94.8352C453.844 94.6372 453.624 94.2612 453.617 93.8566C453.593 92.5613 454.178 90.7821 454.982 90.2831C456.027 89.6341 457.318 89.5542 458.549 89.5349C460.054 89.5111 461.61 89.5619 462.975 90.1961C463.725 90.5451 464.469 91.4533 465.022 92.4576C465.651 93.6007 465.144 95.0288 463.945 95.5436C463.46 95.7522 462.903 95.9338 462.246 96.0776C461.645 96.2093 461.12 96.2251 460.528 96.0897C459.936 95.9544 459.002 95.1172 459.4 94.6247C459.124 94.6094 458.849 94.5941 458.573 94.5788C458.741 95.2069 458.715 95.8613 458.131 96.0313C457.547 96.2012 456.929 96.019 456.354 95.8135C455.585 95.538 454.875 95.2157 454.197 94.8352Z" fill="#3C4059"/>
<path d="M458.826 80.3916C458.826 78.3062 461.157 76.6094 464.023 76.6094C466.888 76.6094 469.22 78.3062 469.22 80.3916C469.22 82.477 466.888 84.1738 464.023 84.1738C461.157 84.1738 458.826 82.477 458.826 80.3916ZM446.078 80.8631C446.078 78.7692 448.099 77.0657 450.583 77.0657C453.067 77.0657 455.088 78.7692 455.088 80.8631C455.088 82.957 453.067 84.6605 450.583 84.6605C448.099 84.6605 446.078 82.9572 446.078 80.8631ZM445.655 80.8631C445.655 83.1879 447.867 85.0837 450.583 85.0837C453.299 85.0837 455.511 83.1879 455.511 80.8631C455.511 80.6744 455.492 80.4859 455.459 80.3066C455.803 80.0236 456.883 79.8539 457.671 79.9623C458.025 80.0143 458.275 80.1132 458.383 80.2358C458.383 80.2877 458.373 80.3395 458.373 80.3914C458.373 82.7257 460.906 84.6261 464.023 84.6261C467.14 84.6261 469.672 82.7258 469.672 80.3914C469.672 79.4719 469.276 78.6231 468.611 77.9299L475.072 76.9584L476.571 76.7321C476.755 76.5576 476.953 76.3784 477.166 76.2087L475.048 76.5293L468.201 77.5527C467.168 76.6991 465.683 76.1567 464.023 76.1567C461.198 76.1567 458.859 77.7177 458.444 79.7502C458.26 79.6511 458.029 79.5756 457.732 79.538C456.992 79.4295 455.926 79.5427 455.36 79.8539C454.832 78.0147 452.894 76.6425 450.583 76.6425C447.867 76.6425 445.655 78.5383 445.655 80.8631Z" fill="#E8EFE4"/>
<path d="M409.436 142.358C409.436 142.358 402.507 144.32 404.243 139.214C404.243 139.214 401.728 137.395 403.719 134.84C403.719 134.84 400.151 131.739 404.844 129.113C404.844 129.113 401.07 125.27 406.816 123.563C406.816 123.563 410.393 121.956 410.732 125.357C410.732 125.357 411.249 127.329 409.311 128.205C409.311 128.205 412.074 130.362 409.979 132.256C409.979 132.256 412.858 134.33 410.27 136.719C410.27 136.719 412.818 139.177 409.421 141.157L409.436 142.358Z" fill="#FFA185"/>
<path d="M410.253 136.789C410.253 136.783 410.252 136.778 410.251 136.772C410.242 136.72 410.191 136.685 410.139 136.694C409.082 136.889 407.988 137.09 406.948 137.457C405.777 137.87 404.835 138.448 404.148 139.173C404.111 139.211 404.113 139.273 404.151 139.309C404.19 139.346 404.251 139.344 404.288 139.305C404.954 138.602 405.871 138.042 407.012 137.639C408.038 137.276 409.124 137.077 410.174 136.884C410.22 136.876 410.253 136.835 410.253 136.789Z" fill="#845B4D"/>
<path d="M410.002 132.312C410.002 132.306 410.001 132.301 410 132.295C409.991 132.243 409.941 132.208 409.889 132.217C407.703 132.608 405.577 133.474 403.741 134.721C403.697 134.751 403.685 134.811 403.715 134.855C403.745 134.899 403.805 134.911 403.849 134.881C405.663 133.648 407.763 132.793 409.922 132.407C409.969 132.399 410.002 132.358 410.002 132.312Z" fill="#845B4D"/>
<path d="M409.373 128.228C409.372 128.176 409.331 128.133 409.279 128.132C407.748 128.089 406.648 128.278 405.219 128.831C405.17 128.85 405.145 128.906 405.164 128.955C405.183 129.005 405.239 129.03 405.289 129.01C406.709 128.461 407.752 128.282 409.273 128.325C409.327 128.326 409.371 128.284 409.373 128.231C409.373 128.23 409.373 128.229 409.373 128.228Z" fill="#845B4D"/>
<path d="M439.012 150.222C439.861 149.808 440.843 148.439 443.099 149.285C441.422 150.395 439.846 152.102 438.444 153.539C437.364 154.648 436.338 155.878 435.661 157.285C435.341 157.946 435.01 158.642 434.897 159.368C434.754 160.263 434.48 161.109 434.788 162.027C435.059 162.832 435.762 163.478 436.59 163.678C436.323 164.471 436.323 165.419 436.755 166.137C437.12 166.747 437.906 167.288 438.797 167.172C439.294 168.416 441.29 168.661 442.584 167.77C444.581 166.393 448.474 164.757 452.456 165.193C455.777 167.913 458.451 173.181 463.761 182.403C469.071 191.62 476.446 212.21 495.498 210.98C508.431 210.146 515.576 193.666 518.833 183.166C520.371 178.198 521.041 174.573 521.041 174.573C521.041 174.573 512.718 170.109 501.158 170.474C499.819 170.519 498.435 170.624 497.017 170.812C495.603 171 494.43 172.008 494.031 173.381L492.117 179.943C492.117 179.943 464.769 151.057 460.771 146.446C456.777 141.839 449.417 133.035 449.621 134.589C449.827 136.187 450.324 142.761 450.324 142.761C450.324 142.761 444.179 142.215 441.411 142.828C438.647 143.441 433.731 147.984 433.423 150.136C433.152 152.038 433.239 153.046 439.012 150.222Z" fill="#FFA185"/>
<path d="M436.765 163.746C438.921 158.368 443.465 154.587 448.34 154.115L448.303 153.74C443.29 154.226 438.624 158.099 436.416 163.606L436.765 163.746Z" fill="#845B4D"/>
<path d="M438.978 167.225C440.227 163.157 445.169 160.462 449.185 159.99L449.141 159.617C445.007 160.102 439.914 162.895 438.619 167.115L438.978 167.225Z" fill="#845B4D"/>
<path d="M443.279 149.427C444.081 149.018 445.207 148.759 446.82 148.61L446.786 148.235C445.123 148.389 443.955 148.661 443.109 149.092L443.279 149.427Z" fill="#845B4D"/>
<path opacity="0.6" d="M501.158 170.473C512.91 171.872 517.445 179.871 518.833 183.166C520.371 178.198 521.041 174.572 521.041 174.572C521.041 174.572 512.718 170.109 501.158 170.473Z" fill="#893F3E"/>
<path d="M493.099 174.144C493.238 174.144 493.125 173.826 493.135 173.686L494.653 151.923C494.664 151.776 494.553 151.648 494.406 151.638C494.255 151.63 494.132 151.738 494.121 151.884L492.641 173.65C492.631 173.797 492.706 174.133 492.853 174.144C492.859 174.145 493.093 174.144 493.099 174.144Z" fill="#34437A"/>
<path d="M100.785 434.129C127.234 434.129 148.674 432.727 148.674 430.998C148.674 429.269 127.234 427.867 100.785 427.867C74.336 427.867 52.895 429.269 52.895 430.998C52.895 432.727 74.336 434.129 100.785 434.129Z" fill="#51A4AC"/>
<path d="M55.5993 139.852C57.2086 143.593 59.6944 146.945 62.8783 149.454C73.8569 158.107 90.3461 154.061 102.558 150.658C106.68 149.509 110.698 148.003 114.808 146.839C116.193 146.447 117.36 146.184 118.396 145.835C120.269 145.204 121.7 144.283 123.181 141.789C125.5 137.872 126.822 130.995 124.461 126.843C123.034 124.333 120.373 122.584 117.527 122.283C119.121 120.412 119.062 117.538 118.031 115.3C116.887 112.81 114.754 110.681 112.625 109.026C111.345 108.034 110.151 107.842 109.135 106.356C107.428 103.858 107.134 100.439 107.076 97.4989C107.056 96.6519 108.088 84.4111 108.716 84.5443C108.712 84.5405 85.4792 79.6629 80.814 84.6345C78.7974 86.787 78.2583 90.2726 76.521 92.3272C75.9044 93.0565 75.1132 93.5309 74.26 93.9268C72.2163 94.8835 69.8042 95.4088 68.5284 97.9888C67.1206 100.835 67.2448 104.403 68.8502 107.144C60.9236 110.332 54.9437 118.013 53.7377 126.548C53.1057 131.046 53.8075 135.688 55.5993 139.852Z" fill="#0B0E1C"/>
<path opacity="0.21" d="M55.5993 139.852C56.5572 138.613 57.2009 137.064 57.5344 135.523C58.1549 132.649 57.9494 129.662 58.3255 126.741C59.392 118.389 65.6007 110.94 73.5582 108.458C71.7122 106.027 70.9173 102.804 71.4175 99.7771C71.7161 97.9579 73.4573 95.8485 74.26 93.9272C72.2163 94.884 69.8042 95.4093 68.5284 97.9893C67.1206 100.836 67.2448 104.404 68.8502 107.144C60.9236 110.332 54.9437 118.013 53.7377 126.549C53.1057 131.046 53.8075 135.688 55.5993 139.852Z" fill="#E1EFED"/>
<path d="M128.606 421.545C130.144 422.154 132.079 422.172 133.31 421.099C133.426 420.999 133.518 420.878 133.61 420.758C133.671 420.815 133.731 420.876 133.793 420.931C136.747 423.533 141.977 426.356 146.254 428.439C147.925 429.253 147.396 431.783 145.542 431.838C139.752 432.01 132.486 432.138 130.776 431.773C127.833 431.144 121.624 423.322 118.306 422.041C114.988 420.761 112.916 432.249 112.916 432.249L109.94 432.028C109.94 432.028 109.296 422.386 108.71 419.064C108.43 417.474 108.471 415.625 108.759 413.695C114.391 413.8 119.974 415.642 124.476 418.887C125.805 419.846 127.068 420.937 128.606 421.545Z" fill="#6FC4B5"/>
<path d="M97.8062 322.384C97.8062 322.384 96.3167 329.148 96.9989 337.517C97.0928 338.637 97.1866 339.789 97.2975 340.966C98.3379 352.85 98.8094 365.537 100.09 372.436C102.769 386.871 112.123 403.331 110.52 407.311C109.684 409.387 109.07 411.586 108.755 413.694C114.392 413.801 119.978 415.64 124.473 418.884C125.803 419.849 127.065 420.936 128.609 421.549C130.144 422.154 132.08 422.17 133.308 421.099C133.428 421.001 133.521 420.879 133.607 420.756C128.14 415.697 125.036 402.17 124.72 395.665C124.524 391.652 125.283 364.157 125.905 343.258C126.059 338.019 126.212 333.205 126.332 329.274C126.519 323.128 126.647 319.156 126.647 319.156L97.8062 322.384Z" fill="#FFB18A"/>
<path opacity="0.69" d="M96.9128 336.29C112.154 333.971 121.374 337.072 125.906 338.764C126.06 333.526 126.213 328.71 126.333 324.779L96.9841 328.629L96.9128 336.29Z" fill="#682614"/>
<path d="M65.5456 418.445C68.6437 418.493 72.3232 416.226 74.4153 414.048C75.1176 415.699 77.5171 422.358 72.9157 427.149C70.3395 429.831 68.7749 431.258 67.8475 432.016C67.1471 432.588 66.1801 432.675 65.3918 432.235C62.5932 430.673 56.6212 426.032 55.4541 420.734C54.8858 418.153 54.833 415.405 56.1582 413.262C57.9999 416.517 61.6598 418.385 65.5456 418.445Z" fill="#6FC4B5"/>
<path d="M52.9121 373.204C55.1103 381.273 57.0144 402.594 57.8588 408.467C58.0009 409.456 57.8073 410.461 57.3085 411.324C56.9367 411.966 56.4979 412.713 56.1566 413.26C57.9993 416.514 61.6647 419.207 65.5456 419.266C68.6418 419.315 72.3271 416.229 74.4164 414.047C74.3141 413.8 74.2452 413.663 74.2452 413.663C74.2452 413.663 68.5528 400.639 73.5784 377.668C78.6906 354.296 77.6083 348.073 77.6083 343.169C77.6083 342.27 77.695 340.888 77.8393 339.236C77.8705 338.852 77.906 338.454 77.9438 338.045C78.206 335.16 78.5995 331.681 78.9819 328.49C79.0041 328.31 79.0286 328.13 79.0551 327.953C79.7664 323.135 82.1669 319.114 82.1669 319.114C82.1669 319.114 57.0064 315.927 51.4718 327.55C51.1829 328.155 50.9516 328.791 50.7806 329.479C50.6627 329.969 50.4516 330.456 50.4494 330.973C50.3627 345.756 50.4494 364.141 52.9121 373.204Z" fill="#FFB18A"/>
<path opacity="0.69" d="M49.2148 330.973C62.0556 329.997 72.4624 334.777 77.9437 338.045C78.206 335.159 78.5995 331.681 78.9818 328.489C79.004 328.31 79.0286 328.13 79.0551 327.952L65.4519 324.166L50.2374 327.55C49.9484 328.154 49.7172 328.79 49.546 329.478C49.4282 329.968 49.3171 330.467 49.2148 330.973Z" fill="#682614"/>
<path d="M193.591 141.306C193.564 141.5 193.527 141.697 193.485 141.897C192.846 144.979 190.604 149.002 184.848 152.496C178.65 156.255 173.895 157.725 170.692 160.841C166.399 165.018 160.954 179.057 160.954 179.057L147.896 168.079C147.896 168.079 159.667 154.554 160.75 152.924C161.83 151.29 170.202 140.423 174.355 138.747C178.504 137.07 176.883 139.516 176.287 140.765C175.69 142.016 173.64 144.406 174.446 144.954C175.252 145.502 185.231 139.263 186.63 138.559C188.033 137.855 193.366 135.579 193.67 139.27C193.719 139.864 193.704 140.549 193.591 141.306Z" fill="#FFB18A"/>
<path opacity="0.56" d="M179.828 145.728C179.776 145.728 179.727 145.702 179.698 145.654C179.655 145.582 179.678 145.488 179.75 145.445C184.255 142.712 186.21 141.06 189.456 137.778C189.515 137.718 189.611 137.718 189.67 137.778C189.729 137.838 189.729 137.934 189.67 137.994C186.196 141.506 184.097 143.164 179.905 145.707C179.881 145.721 179.854 145.728 179.828 145.728Z" fill="#5B3428"/>
<path opacity="0.56" d="M181.957 147.881C181.903 147.881 181.85 147.851 181.823 147.798C181.785 147.723 181.814 147.631 181.888 147.593C186.682 145.112 189.125 142.564 192.79 137.792C192.841 137.726 192.937 137.714 193.002 137.766C193.068 137.817 193.08 137.913 193.029 137.98C189.335 142.789 186.87 145.357 182.026 147.865C182.004 147.876 181.98 147.881 181.957 147.881Z" fill="#5B3428"/>
<path opacity="0.56" d="M193.591 141.306C193.563 141.5 193.527 141.697 193.484 141.897C190.068 145.868 187.911 147.67 183.859 150.014C183.834 150.029 183.807 150.035 183.783 150.035C183.731 150.035 183.679 150.008 183.652 149.959C183.609 149.885 183.636 149.793 183.707 149.749C187.856 147.35 190.007 145.52 193.591 141.306Z" fill="#5B3428"/>
<path opacity="0.56" d="M169.618 153.391C169.565 153.391 169.513 153.363 169.486 153.312C169.446 153.239 169.472 153.146 169.545 153.105C171.905 151.783 173.381 149.066 173.218 146.343C173.213 146.259 173.276 146.186 173.359 146.181C173.451 146.178 173.514 146.24 173.519 146.324C173.689 149.162 172.151 151.995 169.691 153.372C169.668 153.385 169.643 153.391 169.618 153.391Z" fill="#5B3428"/>
<path opacity="0.56" d="M158.413 159.656L167.591 165.059L165.808 167.841L158.413 159.656Z" fill="#5B3428"/>
<path d="M171.708 181.966C171.708 181.969 171.69 182.235 161.842 191.941C140.791 212.683 130.714 207.406 126.003 199.718C123.439 195.533 122.465 190.636 122.175 188.826C122.103 188.367 122.072 188.111 122.072 188.111L120.73 200.342C120.73 200.342 126.324 226.164 127.451 281.9C128.108 314.216 126.112 329.855 126.112 329.855L49.4434 330.881C49.4434 330.881 41.3814 257.756 54.4252 222.469C55.4774 219.619 56.6415 216.914 57.9266 214.398C58.6522 212.973 59.4201 211.61 60.2305 210.311C67.847 198.076 67.847 198.076 67.847 198.076L66.2021 190.834L61.5759 170.447L61.5729 170.438C55.7494 180.859 50.8179 187.203 50.8179 187.203L66.0569 198.076L48.1299 222.545C48.1299 222.545 37.8224 212.123 27.0644 204.42C16.3124 196.716 18.55 189.012 38.2698 155.486C57.9869 121.956 75.882 125.076 75.882 125.076L94.7359 146.877L101.373 125.656C101.373 125.656 110.87 126.035 119.835 131.47C128.797 136.908 140.45 176.329 140.45 176.329L154.34 158.656C165.098 158.201 171.708 181.966 171.708 181.966Z" fill="#FFFEFD"/>
<path opacity="0.8" d="M126.003 199.717C123.439 195.534 122.465 190.634 122.176 188.825C122.176 188.222 122.176 187.869 122.176 187.869L124.61 170.644C124.61 170.644 124.47 187.832 126.003 199.717Z" fill="#3E435B"/>
<path opacity="0.8" d="M69.3646 156.749L66.2019 190.834L61.5757 170.447L69.3646 156.749Z" fill="#3E435B"/>
<path opacity="0.8" d="M57.9262 214.399C59.0823 214.482 66.606 215.002 73.5727 215.177C63.8496 215.845 55.6415 221.578 54.4246 222.467C55.4771 219.619 56.6424 216.915 57.9262 214.399Z" fill="#3E435B"/>
<path d="M79.052 228.661L116.383 227.526V173.752L79.052 174.886V228.661Z" fill="#6FC4B5"/>
<path d="M99.9516 204.876C99.8609 204.952 99.7641 205.029 99.6645 205.096C99.6645 205.096 99.6524 205.12 99.6251 205.166C99.3802 205.606 97.9531 208.052 95.3829 210.406C95.2681 210.519 95.1471 210.623 95.0232 210.73C92.8007 212.681 89.7833 214.503 86.0007 214.992C76.8452 216.169 73.8065 215.56 68.3277 215.245C66.3926 215.135 61.4158 214.811 57.8782 214.576C55.674 214.432 54.0291 214.322 54.0291 214.322L63.7288 200.902L65.5914 198.328C65.5914 198.328 72.1858 198.759 74.0455 197.004C75.902 195.253 78.977 193.715 78.977 193.715L78.9226 198.799C78.9226 198.799 93.7746 197.985 94.7028 197.108C95.6342 196.231 97.8474 197.218 97.8021 198.582C97.7568 199.887 96.901 200.746 96.8315 200.816C96.9584 200.746 99.4953 199.358 100.735 199.985C101.938 200.596 101.615 203.482 99.9516 204.876Z" fill="#FFB18A"/>
<path opacity="0.56" d="M83.0827 203.555C83.0075 203.555 82.9425 203.498 82.9333 203.421C82.9232 203.337 82.9823 203.261 83.0649 203.251C87.8392 202.67 91.4188 201.855 95.9884 200.644C96.0692 200.623 96.1516 200.672 96.1726 200.753C96.1937 200.835 96.1455 200.918 96.065 200.94C91.4826 202.153 87.8925 202.97 83.1011 203.554C83.0949 203.555 83.089 203.555 83.0827 203.555Z" fill="#5B3428"/>
<path opacity="0.56" d="M99.9526 204.877C99.8613 204.953 99.7641 205.027 99.6636 205.095C99.6636 205.095 99.6513 205.12 99.6241 205.166C93.938 207.067 89.6788 207.882 84.0018 208.171C84.0018 208.171 83.9988 208.171 83.9958 208.171C83.9167 208.171 83.8498 208.106 83.8436 208.023C83.8406 207.94 83.9045 207.869 83.9896 207.863C89.7121 207.574 93.9897 206.744 99.7669 204.797C99.8432 204.772 99.9192 204.806 99.9526 204.877Z" fill="#5B3428"/>
<path opacity="0.56" d="M95.3832 210.407C95.2677 210.517 95.1459 210.622 95.0242 210.73C91.8967 211.92 87.0048 212.64 83.6825 212.738H83.6795C83.5973 212.738 83.5304 212.673 83.5273 212.591C83.5273 212.507 83.5912 212.437 83.6763 212.434C87.0716 212.332 92.1186 211.582 95.1976 210.336C95.2677 210.308 95.3499 210.339 95.3832 210.407Z" fill="#5B3428"/>
<path opacity="0.56" d="M65.5428 198.459L57.878 214.576C55.6737 214.432 54.0288 214.322 54.0288 214.322L63.7286 200.902L65.5428 198.459Z" fill="#5B3428"/>
<path d="M75.8811 125.074L95.5619 148.211L101.488 125.737L99.7424 125.588C98.6991 125.501 97.9313 124.56 98.0477 123.51L98.579 118.616L98.835 116.817L99.2693 113.731L99.5524 111.728L99.5641 111.649C99.5641 111.649 100.77 112.312 105.311 110.375C108.282 109.112 110.07 104.843 110.915 99.2318C111.233 97.1655 111.454 94.8797 111.493 92.5783C111.532 90.3355 111.524 88.0066 111.396 85.6619C110.795 74.4757 99.7969 73.9425 99.2462 73.9189C99.2191 74.2797 99.1918 74.6521 99.1532 75.0206C98.8856 77.9416 83.8933 88.1162 83.8933 88.1162C83.7964 88.5357 83.7498 88.7866 83.7498 88.7866C80.659 86.8458 78.3865 90.2491 78.3865 94.0052C78.3865 97.7574 83.7498 99.216 83.7498 99.216C83.9126 102.325 82.5282 107.344 80.7792 112.312L79.1426 116.699C77.1493 122.968 75.8811 125.074 75.8811 125.074Z" fill="#FFB18A"/>
<path d="M103.067 172.95C102.851 172.95 102.654 172.802 102.599 172.581C100.37 163.632 97.2227 153.463 95.1149 148.4C95.0118 148.151 95.127 147.865 95.3728 147.76C95.6199 147.659 95.902 147.773 96.0057 148.021C98.1298 153.123 101.297 163.352 103.536 172.342C103.601 172.604 103.444 172.87 103.186 172.935C103.146 172.946 103.106 172.95 103.067 172.95Z" fill="#7779AA"/>
<path d="M99.4299 171.133C99.2804 171.133 99.1333 171.063 99.0387 170.932C92.1807 161.391 80.6817 149.106 68.9749 143.242L68.333 142.92L68.8688 142.44C68.8893 142.421 70.6385 140.843 71.6348 139.379L62.3484 140.242L62.3725 139.683C62.3899 139.298 62.8035 130.226 64.0348 128.057C64.1668 127.823 64.4622 127.743 64.6941 127.877C64.9256 128.012 65.0051 128.31 64.8726 128.543C64.007 130.066 63.5176 136.272 63.3651 139.167L73.326 138.241L72.9649 139.013C72.3477 140.334 70.8306 141.906 70.0266 142.685C81.6728 148.743 93.0161 160.891 99.8199 170.358C99.9765 170.576 99.9289 170.881 99.7132 171.04C99.6276 171.103 99.5281 171.133 99.4299 171.133Z" fill="#7779AA"/>
<path d="M102.689 162.46C102.424 162.46 102.209 162.245 102.206 161.976C102.149 156.399 103.709 147.866 106.716 142.668L102.494 140.52L103.203 140.057C104.014 139.527 104.958 138.791 105.87 138.079C106.685 137.445 107.522 136.791 108.287 136.267C107.642 134.43 106.819 132.587 106.088 130.95C105.304 129.194 104.628 127.678 104.274 126.448C104.2 126.189 104.348 125.918 104.604 125.843C104.856 125.767 105.128 125.917 105.203 126.176C105.536 127.34 106.2 128.826 106.969 130.548C107.756 132.31 108.647 134.309 109.323 136.307L109.445 136.668L109.128 136.875C108.317 137.405 107.373 138.141 106.46 138.853C105.776 139.386 105.075 139.932 104.416 140.405L108.091 142.274L107.809 142.727C104.832 147.532 103.114 156.282 103.172 161.967C103.175 162.236 102.961 162.457 102.694 162.46C102.692 162.46 102.691 162.46 102.689 162.46Z" fill="#7779AA"/>
<path d="M105.258 330.125C104.993 330.125 104.777 329.908 104.776 329.639L104.3 228.663C104.298 228.393 104.514 228.174 104.78 228.172C104.78 228.172 104.782 228.172 104.782 228.172C105.048 228.172 105.264 228.389 105.265 228.658L105.741 329.634C105.742 329.904 105.527 330.124 105.261 330.125C105.26 330.125 105.259 330.125 105.258 330.125Z" fill="#7779AA"/>
<path d="M137.209 186.395C137.015 186.395 136.833 186.276 136.758 186.083C135.241 182.136 136.99 177.256 140.656 175.207C140.892 175.078 141.185 175.163 141.313 175.398C141.442 175.634 141.357 175.931 141.124 176.062C137.92 177.853 136.334 182.28 137.659 185.73C137.756 185.981 137.633 186.264 137.384 186.362C137.326 186.384 137.267 186.395 137.209 186.395Z" fill="#7779AA"/>
<path d="M50.1115 187.418C50.0313 187.418 49.95 187.398 49.8753 187.355C46.524 185.447 42.1518 185.37 38.7379 187.159C38.4997 187.283 38.2086 187.189 38.0869 186.95C37.964 186.71 38.0562 186.415 38.293 186.292C41.9902 184.354 46.7216 184.439 50.3489 186.504C50.5816 186.637 50.6635 186.935 50.5327 187.169C50.4443 187.329 50.2803 187.418 50.1115 187.418Z" fill="#7779AA"/>
<path d="M98.8418 240.298C99.9585 240.298 100.864 239.382 100.864 238.253C100.864 237.124 99.9585 236.209 98.8418 236.209C97.7251 236.209 96.8198 237.124 96.8198 238.253C96.8198 239.382 97.7251 240.298 98.8418 240.298Z" fill="#7779AA"/>
<path d="M98.8418 273.416C99.9585 273.416 100.864 272.501 100.864 271.372C100.864 270.243 99.9585 269.328 98.8418 269.328C97.7251 269.328 96.8198 270.243 96.8198 271.372C96.8198 272.501 97.7251 273.416 98.8418 273.416Z" fill="#7779AA"/>
<path d="M113.583 109.221C113.703 110.886 112.465 112.333 110.819 112.455C109.172 112.576 107.74 111.325 107.62 109.66C107.5 107.995 110.037 101.604 110.037 101.604C110.037 101.604 113.463 107.556 113.583 109.221Z" fill="#DADCF5"/>
<path d="M111.179 100.924C111.428 101.719 110.993 102.569 110.206 102.821C109.419 103.073 108.579 102.632 108.33 101.837C108.08 101.041 108.516 100.192 109.303 99.9397C110.09 99.6875 110.93 100.128 111.179 100.924Z" fill="#628AF9"/>
<path d="M112.881 95.8124C112.861 95.9568 112.841 96.1042 112.818 96.252C112.451 98.6882 111.991 100.793 111.462 102.613C107.316 116.887 98.967 113.583 98.967 113.583L98.9646 113.623L98.6719 117.312L98.1436 123.974L80.7546 123.115L82.3732 100.516C77.332 99.5681 77.321 88.5315 81.0011 88.1995C80.8346 85.9055 79.1181 86.2455 83.6544 79.4642C91.2268 68.152 116.51 69.7728 112.881 95.8124Z" fill="#FFB18A"/>
<path d="M82.6211 66.0068C83.8581 70.1629 87.6159 72.6919 91.013 71.6568C91.3001 71.5706 91.5754 71.4608 91.8391 71.3275C94.6894 69.916 96.0584 66.0657 94.9259 62.2625C93.6889 58.1064 89.9311 55.5775 86.534 56.6087C85.1533 57.0283 84.0482 57.9732 83.2997 59.22C82.2061 61.0508 81.8842 63.5366 82.6211 66.0068Z" fill="#191F28"/>
<path opacity="0.21" d="M83.2998 59.22C85.7933 59.1415 88.3179 60.2198 89.9583 62.1254C91.8585 64.3367 92.1688 67.05 91.7809 69.8377C91.7111 70.3513 91.7306 70.8572 91.839 71.3275C94.6893 69.916 96.0583 66.0657 94.9259 62.2625C93.6889 58.1065 89.931 55.5775 86.5339 56.6087C85.1534 57.0281 84.0481 57.9732 83.2998 59.22Z" fill="#E1EFED"/>
<path d="M78.4443 90.6223C80.3989 88.7991 81.9656 87.9993 84.5909 88.654C84.9748 88.748 85.3548 88.8892 85.7077 89.0736C86.0684 89.2657 86.398 89.5087 86.6734 89.8145C87.2202 90.4105 87.5266 91.2614 87.3598 92.0573C90.2838 91.4927 93.045 89.2187 95.4144 87.4189C97.9273 85.5094 100.774 83.2157 102.069 80.228C102.069 80.228 111.438 85.3838 112.974 89.191C113.307 88.7714 113.656 87.6775 113.846 86.2073C114.545 80.8199 113.04 70.3867 100.258 69.775C96.7795 69.6064 93.2078 69.83 89.8728 70.9198C88.403 71.4022 87.0186 72.0687 85.766 72.9077C83.5749 74.3741 81.7794 76.3699 80.5849 78.8439C79.7163 80.6396 79.181 82.5843 78.8825 84.5526C78.6112 86.3603 78.1845 88.8422 78.4443 90.6223Z" fill="#191F28"/>
<path opacity="0.21" d="M85.766 72.9079C85.7582 74.2802 86.2003 75.6485 87.0961 76.6836C88.7436 78.5838 91.7514 79.509 94.1664 79.6958C95.5191 79.8005 96.8894 79.6864 98.2063 79.3565C99.7131 78.979 100.931 77.9092 102.128 76.9802C102.513 76.6822 105.176 78.2878 105.591 78.5254C106.748 79.188 107.838 79.9724 108.835 80.8623C110.651 82.4826 112.198 84.0939 113.846 86.2073C114.544 80.8199 113.04 70.3867 100.258 69.775C96.7795 69.6064 93.2078 69.83 89.8727 70.9198C88.4031 71.4022 87.0185 72.0687 85.766 72.9079Z" fill="#E1EFED"/>
<path d="M84.0186 107.833C83.7799 109.484 82.2621 110.628 80.6286 110.386C78.9951 110.145 77.8644 108.61 78.1031 106.959C78.3418 105.307 82.1848 99.6206 82.1848 99.6206C82.1848 99.6206 84.2573 106.181 84.0186 107.833Z" fill="#DADCF5"/>
<path d="M83.4458 99.2065C83.5192 100.038 82.9121 100.772 82.09 100.846C81.2678 100.92 80.5418 100.306 80.4684 99.4751C80.395 98.6439 81.0021 97.9098 81.8243 97.8357C82.6466 97.7614 83.3725 98.3751 83.4458 99.2065Z" fill="#DADCF5"/>
<path d="M100.835 91.7619C100.822 91.7631 100.809 91.7639 100.796 91.7642L93.7353 91.9718C93.3845 91.9822 93.0918 91.7031 93.0816 91.3482C93.0713 90.9936 93.3476 90.6934 93.6983 90.6873L100.76 90.4798C101.11 90.4694 101.403 90.7485 101.413 91.1033C101.423 91.4449 101.167 91.7319 100.835 91.7619Z" fill="#15192D"/>
<path d="M112.551 91.4626C112.538 91.4638 112.526 91.4645 112.513 91.4649L106.048 91.669C105.697 91.6801 105.404 91.4015 105.393 91.0469C105.382 90.6921 105.656 90.3956 106.008 90.3846L112.473 90.1805C112.824 90.1694 113.118 90.4481 113.129 90.8026C113.139 91.1446 112.883 91.4326 112.551 91.4626Z" fill="#15192D"/>
<path d="M99.5734 95.1077C99.5099 95.9398 98.9915 96.578 98.4154 96.5331C97.8393 96.4882 97.4236 95.7773 97.4871 94.9452C97.5506 94.1131 98.069 93.4749 98.6451 93.5198C99.2211 93.5647 99.6368 94.2756 99.5734 95.1077Z" fill="#15192D"/>
<path d="M110.074 95.0169C110.01 95.849 109.492 96.4871 108.916 96.4423C108.34 96.3974 107.924 95.6865 107.987 94.8544C108.051 94.0222 108.569 93.3841 109.145 93.429C109.721 93.4738 110.137 94.1848 110.074 95.0169Z" fill="#15192D"/>
<path opacity="0.6" d="M103.034 100.536C102.971 100.542 102.906 100.52 102.86 100.47C102.78 100.383 102.784 100.248 102.87 100.167C103.263 99.7931 103.842 99.8542 104.307 99.9031C104.85 99.9607 105.19 99.8717 105.331 99.6395C105.429 99.4773 105.423 99.2515 105.405 98.9944L105.029 93.4525C105.021 93.3344 105.124 93.2312 105.226 93.2242C105.343 93.2159 105.444 93.3051 105.452 93.4232L105.828 98.9652C105.845 99.2209 105.869 99.5712 105.692 99.863C105.459 100.248 104.981 100.405 104.274 100.33C103.864 100.287 103.413 100.239 103.159 100.479C103.124 100.513 103.079 100.532 103.034 100.536Z" fill="#893F3E"/>
<path d="M106.305 103.419C105.94 104.368 105.103 105.117 104.128 105.368C103.261 105.591 102.303 105.416 101.561 104.912C101.061 104.571 99.9436 103.546 100.698 102.923C101.237 102.477 102.467 103.454 103.102 103.588C104.161 103.811 105.27 103.714 106.305 103.419Z" fill="white"/>
<path opacity="0.6" d="M85.5662 93.4618C85.4539 93.4719 85.3525 93.3907 85.3375 93.2764C85.2043 92.2574 84.4709 91.3425 83.5124 90.9999C82.5531 90.6568 81.4145 90.9028 80.6776 91.6109C80.5929 91.6926 80.4587 91.6888 80.3781 91.6031C80.2975 91.5173 80.3009 91.3819 80.3858 91.3004C81.2356 90.484 82.5489 90.2016 83.6535 90.5961C84.7585 90.9911 85.604 92.0457 85.7574 93.2205C85.7726 93.3376 85.691 93.4453 85.575 93.4608C85.5723 93.4612 85.5693 93.4615 85.5662 93.4618Z" fill="#893F3E"/>
<path opacity="0.6" d="M91.2534 109.427C93.8866 113.94 97.1674 116.367 98.6721 117.312L98.8349 116.818L99.2692 113.732C99.0521 113.665 98.8427 113.599 98.8195 113.595C96.4228 113.214 91.4124 109.54 91.2534 109.427Z" fill="#893F3E"/>
<path opacity="0.2" d="M94.704 102.728C96.6026 102.728 98.1416 101.171 98.1416 99.2519C98.1416 97.3324 96.6026 95.7764 94.704 95.7764C92.8054 95.7764 91.2664 97.3324 91.2664 99.2519C91.2664 101.171 92.8054 102.728 94.704 102.728Z" fill="#C55C56"/>
<path opacity="0.2" d="M112.881 95.8124C112.861 95.9568 112.841 96.1042 112.818 96.252C112.451 98.6882 111.991 100.793 111.461 102.613C109.99 102.33 108.821 101.091 108.682 99.5078C108.513 97.5962 109.909 95.9076 111.8 95.7371C112.172 95.7035 112.535 95.7315 112.881 95.8124Z" fill="#C55C56"/>
<path d="M94.5904 93.8131C94.5437 93.9618 94.5158 94.119 94.5219 94.2837L94.6061 96.5908C94.6196 96.9629 94.7758 97.3074 95.0456 97.5608C95.3028 97.8023 95.6339 97.9334 95.9828 97.9334C96.0002 97.9334 96.0174 97.9332 96.035 97.9324L102.192 97.7026C102.56 97.6887 102.901 97.5311 103.152 97.2582C103.402 96.9852 103.533 96.63 103.519 96.2579L103.457 94.5534L103.499 94.5794C103.704 94.2394 104.074 94.0003 104.465 93.9558C104.855 93.9116 105.27 94.0611 105.544 94.3466L105.583 94.3089L105.644 95.9824C105.671 96.7333 106.284 97.3253 107.021 97.3253C107.038 97.3253 107.055 97.3251 107.073 97.3243L112.843 97.1089C113.211 97.0951 113.551 96.9374 113.802 96.6645C114.053 96.3915 114.183 96.0363 114.17 95.6642L114.085 93.3571C114.072 92.985 113.916 92.6405 113.646 92.3871C113.376 92.1337 113.029 91.9969 112.656 92.0155L106.887 92.2307C106.127 92.259 105.532 92.9074 105.56 93.6756L105.566 93.8596C105.234 93.6319 104.82 93.5201 104.422 93.5663C104.056 93.6081 103.706 93.7822 103.439 94.0405L103.435 93.9509C103.422 93.5788 103.266 93.2344 102.996 92.9809C102.726 92.7275 102.379 92.5929 102.006 92.6094L95.8492 92.8391C95.394 92.8562 95.0011 93.0982 94.7625 93.4526L87.3796 91.5435V91.9355L94.5904 93.8131ZM105.947 93.6612C105.927 93.109 106.355 92.643 106.901 92.6225L112.671 92.4073C112.936 92.4001 113.188 92.4923 113.382 92.6746C113.576 92.8566 113.688 93.1044 113.698 93.3718L113.782 95.6789C113.802 96.2311 113.374 96.6968 112.828 96.7173L107.058 96.9326C106.508 96.952 106.051 96.5201 106.031 95.968L105.947 93.6612ZM94.9093 94.2691C94.8997 94.0017 94.9934 93.7466 95.1737 93.5502C95.3537 93.3542 95.5988 93.2407 95.8633 93.2308L102.021 93.001C102.033 93.0006 102.046 93.0004 102.058 93.0004C102.309 93.0004 102.547 93.0946 102.732 93.2683C102.926 93.4503 103.038 93.6981 103.048 93.9655L103.132 96.2726C103.142 96.54 103.048 96.7953 102.868 96.9915C102.688 97.1875 102.442 97.301 102.178 97.311L96.0207 97.5408C95.7616 97.5523 95.5037 97.4559 95.3096 97.2735C95.1154 97.0915 95.0034 96.8437 94.9936 96.5762L94.9093 94.2691Z" fill="#893F3E"/>
<path d="M347.697 436.836C380.024 436.836 406.23 435.108 406.23 432.977C406.23 430.845 380.024 429.118 347.697 429.118C315.37 429.118 289.164 430.845 289.164 432.977C289.164 435.108 315.37 436.836 347.697 436.836Z" fill="#51A4AC"/>
<path d="M396.184 434.129H300.21C294.11 434.129 289.164 429.183 289.164 423.082V384.588C289.164 378.487 294.11 373.542 300.21 373.542H396.184C402.285 373.542 407.231 378.487 407.231 384.588V423.082C407.231 429.183 402.285 434.129 396.184 434.129Z" fill="#DADCF5"/>
<path d="M318.449 390.608C318.449 385.8 314.551 381.903 309.743 381.903C307.747 381.903 305.907 382.575 304.439 383.707C303.939 384.09 303.481 384.528 303.077 385.011C301.804 386.524 301.038 388.477 301.038 390.608C301.038 395.417 304.935 399.313 309.743 399.313C311.875 399.313 313.828 398.547 315.341 397.275C315.824 396.87 316.262 396.413 316.645 395.913C317.777 394.444 318.449 392.605 318.449 390.608Z" fill="#7779AA"/>
<path d="M302.842 385.304L315.048 397.51C315.548 397.127 316.005 396.689 316.41 396.205L304.146 383.941C303.663 384.346 303.225 384.803 302.842 385.304Z" fill="#DADCF5"/>
<path d="M317.451 417.032C317.451 412.224 313.554 408.327 308.746 408.327C306.75 408.327 304.91 408.998 303.442 410.13C302.941 410.513 302.484 410.951 302.08 411.434C300.807 412.948 300.041 414.9 300.041 417.032C300.041 421.84 303.938 425.737 308.746 425.737C310.877 425.737 312.83 424.971 314.343 423.698C314.827 423.294 315.265 422.837 315.648 422.336C316.78 420.868 317.451 419.028 317.451 417.032Z" fill="#7779AA"/>
<path d="M301.845 411.727L314.051 423.933C314.551 423.55 315.008 423.112 315.413 422.629L303.149 410.365C302.666 410.769 302.228 411.226 301.845 411.727Z" fill="#DADCF5"/>
<path d="M343.875 390.623C343.875 385.815 339.978 381.918 335.17 381.918C333.173 381.918 331.334 382.59 329.865 383.721C329.365 384.104 328.908 384.543 328.503 385.026C327.23 386.539 326.464 388.492 326.464 390.623C326.464 395.431 330.361 399.328 335.169 399.328C337.301 399.328 339.254 398.562 340.767 397.29C341.25 396.885 341.688 396.428 342.071 395.927C343.203 394.459 343.875 392.619 343.875 390.623Z" fill="#7779AA"/>
<path d="M328.268 385.319L340.474 397.525C340.974 397.142 341.431 396.704 341.836 396.221L329.572 383.957C329.089 384.361 328.651 384.818 328.268 385.319Z" fill="#DADCF5"/>
<path d="M342.878 417.046C342.878 412.238 338.981 408.341 334.173 408.341C332.176 408.341 330.337 409.013 328.868 410.145C328.368 410.528 327.911 410.966 327.506 411.449C326.233 412.962 325.467 414.915 325.467 417.046C325.467 421.854 329.364 425.752 334.172 425.752C336.304 425.752 338.256 424.985 339.77 423.713C340.253 423.308 340.691 422.851 341.074 422.351C342.206 420.883 342.878 419.043 342.878 417.046Z" fill="#7779AA"/>
<path d="M327.271 411.742L339.477 423.948C339.977 423.565 340.434 423.127 340.839 422.644L328.575 410.38C328.092 410.785 327.654 411.242 327.271 411.742Z" fill="#DADCF5"/>
<path d="M369.633 390.623C369.633 385.815 365.736 381.918 360.928 381.918C358.931 381.918 357.092 382.59 355.624 383.721C355.123 384.104 354.666 384.543 354.261 385.026C352.989 386.539 352.223 388.492 352.223 390.623C352.223 395.431 356.12 399.328 360.928 399.328C363.059 399.328 365.012 398.562 366.525 397.29C367.008 396.885 367.446 396.428 367.829 395.927C368.961 394.459 369.633 392.619 369.633 390.623Z" fill="#7779AA"/>
<path d="M354.026 385.319L366.232 397.525C366.733 397.142 367.19 396.704 367.595 396.221L355.33 383.957C354.847 384.361 354.409 384.818 354.026 385.319Z" fill="#DADCF5"/>
<path d="M368.636 417.046C368.636 412.238 364.739 408.341 359.931 408.341C357.935 408.341 356.095 409.013 354.627 410.145C354.126 410.528 353.669 410.966 353.264 411.449C351.992 412.962 351.226 414.915 351.226 417.046C351.226 421.854 355.123 425.752 359.931 425.752C362.062 425.752 364.015 424.985 365.528 423.713C366.011 423.308 366.45 422.851 366.833 422.351C367.964 420.883 368.636 419.043 368.636 417.046Z" fill="#7779AA"/>
<path d="M353.03 411.742L365.236 423.948C365.736 423.565 366.193 423.127 366.598 422.644L354.334 410.38C353.851 410.785 353.412 411.242 353.03 411.742Z" fill="#DADCF5"/>
<path d="M396.223 390.623C396.223 385.815 392.326 381.918 387.518 381.918C385.521 381.918 383.682 382.59 382.213 383.721C381.713 384.104 381.256 384.543 380.851 385.026C379.579 386.539 378.812 388.492 378.812 390.623C378.812 395.431 382.71 399.328 387.518 399.328C389.649 399.328 391.602 398.562 393.115 397.29C393.598 396.885 394.036 396.428 394.419 395.927C395.551 394.459 396.223 392.619 396.223 390.623Z" fill="#7779AA"/>
<path d="M380.616 385.319L392.822 397.525C393.322 397.142 393.779 396.704 394.184 396.221L381.92 383.957C381.437 384.361 380.999 384.818 380.616 385.319Z" fill="#DADCF5"/>
<path d="M395.226 417.046C395.226 412.238 391.329 408.341 386.521 408.341C384.524 408.341 382.685 409.013 381.216 410.145C380.716 410.528 380.259 410.966 379.854 411.449C378.581 412.962 377.815 414.915 377.815 417.046C377.815 421.854 381.712 425.752 386.521 425.752C388.652 425.752 390.605 424.985 392.118 423.713C392.601 423.308 393.039 422.851 393.422 422.351C394.554 420.883 395.226 419.043 395.226 417.046Z" fill="#7779AA"/>
<path d="M379.619 411.742L391.825 423.948C392.325 423.565 392.782 423.127 393.187 422.644L380.923 410.38C380.44 410.785 380.002 411.242 379.619 411.742Z" fill="#DADCF5"/>
<path d="M216.92 436.837C242.978 436.837 264.103 435.109 264.103 432.978C264.103 430.846 242.978 429.119 216.92 429.119C190.862 429.119 169.738 430.846 169.738 432.978C169.738 435.109 190.862 436.837 216.92 436.837Z" fill="#51A4AC"/>
<path d="M223.497 431.343H174.215C174.005 431.343 173.834 431.172 173.834 430.962V352.35H223.878V430.962C223.878 431.172 223.707 431.343 223.497 431.343Z" fill="#DADCF5"/>
<path d="M226.575 352.35H171.625C171.59 352.35 171.562 352.322 171.562 352.288V331.856C171.562 331.821 171.59 331.793 171.625 331.793H226.575C226.61 331.793 226.638 331.821 226.638 331.856V352.288C226.638 352.322 226.61 352.35 226.575 352.35Z" fill="#6FC4B5"/>
<path d="M178.63 334.798H175.609V348.132H178.63V334.798Z" fill="white"/>
<path d="M185.024 334.798H182.003V348.132H185.024V334.798Z" fill="white"/>
<path d="M191.418 334.798H188.398V348.132H191.418V334.798Z" fill="white"/>
<path d="M197.812 334.798H194.792V348.132H197.812V334.798Z" fill="white"/>
<path d="M204.207 334.798H201.187V348.132H204.207V334.798Z" fill="white"/>
<path d="M210.601 334.798H207.581V348.132H210.601V334.798Z" fill="white"/>
<path d="M216.995 334.798H213.975V348.132H216.995V334.798Z" fill="white"/>
<path d="M223.389 334.798H220.369V348.132H223.389V334.798Z" fill="white"/>
<path d="M215.485 364.497H183.979V415.206H215.485V364.497Z" fill="white"/>
<path d="M211.089 369.615H188.909V370.692H211.089V369.615Z" fill="#7779AA"/>
<path d="M211.089 375.07H188.909V376.148H211.089V375.07Z" fill="#7779AA"/>
<path d="M211.089 380.524H188.909V381.602H211.089V380.524Z" fill="#7779AA"/>
<path opacity="0.66" d="M173.834 352.35H223.878V356.141L173.834 352.35Z" fill="black"/>
<path d="M258.925 434.863H223.66C223.481 434.863 223.335 434.718 223.335 434.538V378.171H259.25V434.538C259.25 434.718 259.104 434.863 258.925 434.863Z" fill="#6FC4B5"/>
<path d="M261.169 378.171H221.767C221.732 378.171 221.704 378.143 221.704 378.109V363.48C221.704 363.446 221.732 363.418 221.767 363.418H261.169C261.203 363.418 261.231 363.446 261.231 363.48V378.109C261.231 378.143 261.203 378.171 261.169 378.171Z" fill="white"/>
<path d="M226.777 365.575H224.608V375.144H226.777V365.575Z" fill="#7779AA"/>
<path d="M231.367 365.575H229.198V375.144H231.367V365.575Z" fill="#7779AA"/>
<path d="M235.955 365.575H233.786V375.144H235.955V365.575Z" fill="#7779AA"/>
<path d="M240.545 365.575H238.376V375.144H240.545V365.575Z" fill="#7779AA"/>
<path d="M245.134 365.575H242.965V375.144H245.134V365.575Z" fill="#7779AA"/>
<path d="M249.723 365.575H247.554V375.144H249.723V365.575Z" fill="#7779AA"/>
<path d="M254.311 365.575H252.143V375.144H254.311V365.575Z" fill="#7779AA"/>
<path d="M258.901 365.575H256.732V375.144H258.901V365.575Z" fill="#7779AA"/>
<path d="M253.227 386.889H230.615V423.282H253.227V386.889Z" fill="white"/>
<path d="M250.073 390.562H234.154V391.335H250.073V390.562Z" fill="#7779AA"/>
<path d="M250.073 394.477H234.154V395.249H250.073V394.477Z" fill="#7779AA"/>
<path d="M250.073 398.393H234.154V399.165H250.073V398.393Z" fill="#7779AA"/>
<path opacity="0.66" d="M223.335 378.171H259.25V382.427L223.335 378.171Z" fill="black"/>
<path d="M545.159 219.508C551.556 223.208 553.751 231.422 550.051 237.82C546.351 244.217 538.137 246.412 531.739 242.712C525.342 239.012 523.147 230.798 526.847 224.4C530.547 218.003 538.761 215.809 545.159 219.508ZM532.31 241.726C538.163 245.111 545.679 243.103 549.065 237.249C552.45 231.396 550.442 223.88 544.588 220.494C538.735 217.109 531.219 219.117 527.833 224.971C524.448 230.824 526.457 238.341 532.31 241.726Z" fill="white"/>
<path d="M549.332 257.999C553.22 260.248 554.554 265.241 552.305 269.129C550.056 273.017 545.064 274.351 541.176 272.102C537.288 269.854 535.954 264.861 538.203 260.973C540.451 257.085 545.444 255.751 549.332 257.999ZM541.746 271.116C545.091 273.05 549.385 271.903 551.319 268.558C553.253 265.214 552.106 260.92 548.762 258.986C545.417 257.052 541.123 258.199 539.189 261.543C537.255 264.887 538.402 269.182 541.746 271.116Z" fill="white"/>
<path d="M38.5991 232.949C41.5571 238.063 39.8023 244.631 34.6874 247.589C29.5726 250.547 23.0048 248.793 20.0468 243.678C17.0887 238.563 18.8435 231.995 23.9584 229.037C29.0732 226.079 35.641 227.834 38.5991 232.949ZM37.8105 233.405C35.104 228.725 29.0944 227.119 24.4145 229.826C19.7345 232.532 18.129 238.541 20.8355 243.222C23.542 247.902 29.5515 249.507 34.2315 246.801C38.9115 244.094 40.517 238.085 37.8105 233.405Z" fill="white"/>
<path d="M31.011 262.189C32.8088 265.298 31.7425 269.29 28.6337 271.088C25.5249 272.885 21.5334 271.819 19.7354 268.71C17.9377 265.602 19.004 261.61 22.1128 259.812C25.2216 258.014 29.2132 259.081 31.011 262.189ZM30.2225 262.646C28.6762 259.972 25.2426 259.054 22.5689 260.601C19.8951 262.147 18.9778 265.581 20.524 268.254C22.0702 270.928 25.5038 271.845 28.1776 270.299C30.8515 268.753 31.7687 265.319 30.2225 262.646Z" fill="white"/>
</svg>
